<svg width="450" height="339" viewBox="0 0 450 339" fill="none" xmlns="http://www.w3.org/2000/svg">
<line x1="420.5" y1="154" x2="420.5" y2="339" stroke="#FDF19B"/>
<line y1="330.5" x2="450" y2="330.5" stroke="#00FFD1"/>
<path d="M356 104V91H363V104H400V91H410V1H310V91H319V104H356Z" stroke="#FDF19B"/>
<path d="M246 1V14L253 14V1L290 1V14L300 14V104L200 104L200 14L209 14V1L246 1Z" stroke="#00FFD1"/>
<path d="M273 77H285V89H273V77Z" stroke="#00FFD1"/>
<path d="M76 218V231H83V218H120V231H130V321H30V231H39V218H76Z" stroke="#FDF19B"/>
<path d="M71 291H89V321H71V291Z" stroke="#FDF19B"/>
<path d="M410 206H380V229H350V252H320V275H290V298H260V321H410V206Z" stroke="#BA6BF8"/>
</svg>
