<svg width="460" height="320" viewBox="0 0 460 320" fill="none" xmlns="http://www.w3.org/2000/svg">
<rect width="460" height="320" rx="16" fill="url(#paint0_linear_80_549)"/>
<rect width="460" height="320" rx="16" fill="url(#paint1_linear_80_549)"/>
<path d="M174.983 53.6778C176.049 52.878 177.122 52.0916 178.215 51.3252" stroke="#DDDDDD" stroke-width="3" stroke-linecap="round" stroke-linejoin="round"/>
<path d="M184.679 47.0865C202.475 36.0565 222.991 30.1995 243.927 30.1719C252.693 30.168 261.428 31.1993 269.952 33.2442" stroke="#DDDDDD" stroke-width="3" stroke-linecap="round" stroke-linejoin="round" stroke-dasharray="11.57 11.57"/>
<path d="M273.651 34.2107C274.935 34.5661 276.215 34.9438 277.49 35.3437" stroke="#DDDDDD" stroke-width="3" stroke-linecap="round" stroke-linejoin="round"/>
<path d="M185.206 287.87C184.066 287.203 182.933 286.47 181.82 285.744" stroke="#DDDDDD" stroke-width="3" stroke-linecap="round" stroke-linejoin="round"/>
<path d="M175.349 281.199C151.91 263.638 134.189 237.333 125.952 206.476" stroke="#DDDDDD" stroke-width="3" stroke-linecap="round" stroke-linejoin="round" stroke-dasharray="11.9 11.9"/>
<path d="M124.952 202.624C124.645 201.331 124.354 200.031 124.079 198.725" stroke="#DDDDDD" stroke-width="3" stroke-linecap="round" stroke-linejoin="round"/>
<path d="M365.795 186.369C365.631 187.702 365.448 189.021 365.249 190.328" stroke="#DDDDDD" stroke-width="3" stroke-linecap="round" stroke-linejoin="round"/>
<path d="M363.802 198.365C361.868 207.694 359.029 216.812 355.325 225.59" stroke="#DDDDDD" stroke-width="3" stroke-linecap="round" stroke-linejoin="round" stroke-dasharray="12.25 12.25"/>
<path d="M353.686 229.355C353.13 230.568 352.562 231.77 351.98 232.961" stroke="#DDDDDD" stroke-width="3" stroke-linecap="round" stroke-linejoin="round"/>
<path d="M153.103 235.293L116.488 240.705C115.833 240.798 115.168 240.646 114.62 240.276C114.072 239.907 113.68 239.347 113.522 238.705L109.283 218.925C109.214 218.616 109.21 218.295 109.272 217.984C109.334 217.673 109.46 217.378 109.643 217.119C109.826 216.86 110.061 216.642 110.333 216.479C110.605 216.316 110.908 216.211 111.223 216.173L147.838 210.768C148.492 210.674 149.158 210.827 149.706 211.196C150.254 211.566 150.645 212.125 150.803 212.767L155.042 232.501C155.118 232.813 155.126 233.138 155.068 233.453C155.009 233.769 154.883 234.069 154.7 234.333C154.517 234.597 154.28 234.819 154.004 234.984C153.729 235.15 153.422 235.255 153.103 235.293V235.293Z" fill="#F9F9F9" stroke="#DDDDDD" stroke-width="2" stroke-linecap="round" stroke-linejoin="round"/>
<path d="M114.702 219.398C115.095 219.325 136.528 226.336 136.528 226.336L146.525 213.727" stroke="#DDDDDD" stroke-width="2" stroke-linecap="round" stroke-linejoin="round"/>
<path d="M120.233 233.794L132.163 224.917" stroke="#DDDDDD" stroke-width="2" stroke-linecap="round" stroke-linejoin="round"/>
<path d="M142.26 224.917L151.337 227.789" stroke="#DDDDDD" stroke-width="2" stroke-linecap="round" stroke-linejoin="round"/>
<path d="M168.491 266.004L158.961 267.796C158.833 267.82 158.713 267.878 158.614 267.963L152.616 273.201C152.513 273.289 152.388 273.346 152.255 273.368C152.121 273.389 151.985 273.372 151.86 273.321C151.735 273.269 151.627 273.184 151.548 273.074C151.468 272.965 151.421 272.836 151.41 272.702L150.39 256.913C150.38 256.78 150.408 256.647 150.47 256.529C150.533 256.411 150.628 256.313 150.743 256.247C150.845 256.188 150.96 256.157 151.077 256.157C151.194 256.157 151.309 256.188 151.41 256.247L168.684 264.644C168.823 264.71 168.936 264.819 169.008 264.954C169.081 265.089 169.108 265.243 169.087 265.395C169.065 265.546 168.996 265.687 168.889 265.797C168.781 265.906 168.642 265.979 168.491 266.004V266.004Z" fill="white" stroke="#DDDDDD" stroke-width="2" stroke-linecap="round" stroke-linejoin="round"/>
<path d="M168.491 266.004L158.961 267.796C158.833 267.82 158.713 267.878 158.615 267.963L150.744 256.247C150.845 256.188 150.96 256.157 151.077 256.157C151.194 256.157 151.309 256.188 151.41 256.247L168.685 264.644C168.823 264.71 168.936 264.819 169.009 264.954C169.081 265.089 169.108 265.243 169.087 265.395C169.065 265.546 168.996 265.687 168.889 265.797C168.782 265.906 168.642 265.979 168.491 266.004V266.004Z" fill="#DDDDDD" stroke="#DDDDDD" stroke-width="2" stroke-linecap="round" stroke-linejoin="round"/>
<mask id="mask0_80_549" style="mask-type:alpha" maskUnits="userSpaceOnUse" x="57" y="75" width="142" height="101">
<rect x="57" y="75.6506" width="141.955" height="99.9682" fill="#C4C4C4"/>
</mask>
<g mask="url(#mask0_80_549)">
<path d="M169.191 172.067C172.243 173.6 176.195 170.734 180.587 166.855L175.829 162.59C175.829 162.59 168.364 169.548 169.191 172.067Z" fill="#BA6BF8"/>
<path d="M209.878 153.719L198.861 176.172H175.689L171.83 165.389L184.946 153.719H209.878Z" fill="#FEBD9D"/>
<path d="M191.924 153.719L181.074 170.674" stroke="#F4A789" stroke-width="0.75" stroke-linecap="round" stroke-linejoin="round"/>
<path d="M187.792 155.472C179.934 159.958 169.191 172.067 169.191 172.067L166.305 177.798L164.626 181.131H107.617C106.284 176.326 105.138 170.068 104.285 164.996C103.618 161.07 103.192 157.858 103.019 156.599L102.945 156.032C101.492 157.318 100.786 157.365 100.786 157.365L98.1202 164.409L97.8736 165.076C88.4099 158.745 71.0955 157.625 71.0955 157.625L73.4214 149.767C72.7226 148.152 72.5275 146.364 72.8616 144.636C73.2414 142.67 78.4531 133.553 83.7048 125.902C85.7754 122.789 88.072 119.833 90.5759 117.058C90.7825 116.845 90.9958 116.638 91.2091 116.445C97.547 110.613 108.05 111.46 114.955 112.086C115.981 112.179 116.954 112.246 117.861 112.286C119.901 112.393 121.945 112.393 123.985 112.286C125.658 112.199 126.578 112.073 126.578 112.073C126.791 111.1 126.991 110.073 127.191 108.947C128.437 101.663 129.137 91.9392 128.024 85.5479L145.565 93.3787C145.865 96.5643 147.038 103.555 147.844 108.154C148.298 110.727 148.624 112.553 148.624 112.553C150.037 112.293 151.37 112.059 152.623 111.846C170.431 108.827 175.016 109.96 179.947 118.644C180.081 118.871 180.207 119.111 180.341 119.364C183.38 125.362 185.452 137.358 186.605 145.835C187.425 151.407 187.792 155.472 187.792 155.472Z" fill="#BA6BF8"/>
<path d="M187.792 155.472C180.088 159.878 169.591 171.621 169.198 172.054C169.338 171.76 171.63 167.015 171.864 165.389C172.097 163.763 171.284 158.951 170.024 154.426L186.686 145.862C187.425 151.407 187.792 155.472 187.792 155.472Z" fill="#BA6BF8"/>
<path d="M128.464 158.065C128.337 164.449 113.382 165.349 104.305 164.996C103.638 161.07 103.212 157.858 103.039 156.598L102.965 156.032C106.264 152.685 108.991 148.819 111.036 144.589C116.368 148.228 109.53 151.967 109.27 153.719C108.564 158.524 128.644 148.947 128.464 158.065Z" fill="#BA6BF8"/>
<path d="M180.407 119.39C175.209 117.584 169.371 117.644 165.326 124.102C156.215 138.644 139.114 149.987 122.006 132.819C119.667 130.409 117.108 128.223 114.362 126.288C104.252 119.37 95.7011 120.77 83.7449 125.895C85.8155 122.783 88.1121 119.827 90.616 117.051C90.8226 116.838 91.0359 116.631 91.2491 116.438C97.5871 110.606 108.09 111.453 114.995 112.079C116.021 112.173 116.994 112.239 117.901 112.279C119.941 112.386 121.985 112.386 124.025 112.279C125.698 112.193 126.618 112.066 126.618 112.066C126.831 111.093 127.031 110.067 127.231 108.94C128.477 101.656 129.177 91.9323 128.064 85.541L145.605 93.3719C145.905 96.5575 147.078 103.549 147.884 108.147C148.338 110.72 148.664 112.546 148.664 112.546C150.077 112.286 151.41 112.053 152.663 111.839C170.471 108.82 175.056 109.953 179.988 118.637C180.148 118.897 180.274 119.137 180.407 119.39Z" fill="#BA6BF8"/>
<path d="M152.69 111.872C152.636 116.378 152.15 124.588 150.191 130.393C147.658 137.924 144.672 134.865 141.393 131.893C138.428 129.187 127.618 120.183 117.907 112.299C119.948 112.406 121.992 112.406 124.032 112.299C125.705 112.212 126.625 112.086 126.625 112.086C126.838 111.113 127.038 110.086 127.238 108.96C134.282 108.5 142.733 108.047 147.898 108.167C148.351 110.74 148.678 112.566 148.678 112.566C150.077 112.292 151.41 112.086 152.69 111.872Z" fill="#FCC71F"/>
<path d="M145.785 129.094C145.785 129.094 130.777 118.884 124.032 112.292C125.705 112.206 126.624 112.079 126.624 112.079C128.231 104.701 129.35 92.9185 128.071 85.5542L139.474 90.6392L145.612 93.385C145.832 95.7376 146.538 100.203 147.211 104.215C147.958 108.654 148.671 112.559 148.671 112.559C149.217 125.501 145.785 129.094 145.785 129.094Z" fill="#FEBD9D"/>
<path d="M169.191 172.067C169.331 171.774 171.623 167.028 171.857 165.402C172.09 163.776 171.277 158.964 170.017 154.439C169.951 154.206 169.884 153.966 169.811 153.733" stroke="#FCC71F" stroke-width="0.75" stroke-linecap="round" stroke-linejoin="round"/>
<path d="M147.205 104.235C135.362 104.961 136.695 92.232 136.795 91.9121L139.461 90.6592L145.599 93.405C145.825 95.7576 146.532 100.223 147.205 104.235Z" fill="#F4A789"/>
<path d="M71.1356 157.611C70.8024 158.591 70.8024 159.657 78.2333 161.75L79.3796 156.878C79.3796 156.878 72.6218 155.052 71.1356 157.611Z" fill="#BA6BF8"/>
<path d="M75.2075 155.045C73.4614 160.737 67.37 179.798 67.37 179.798C65.7172 186.789 86.4506 191.354 93.8283 179.478L97.887 160.357C91.1795 155.992 83.1557 154.113 75.2075 155.045V155.045Z" fill="#FEBD9D"/>
<path d="M109.297 147.808C109.271 147.846 109.249 147.886 109.23 147.928C108.351 149.334 107.371 150.767 106.305 152.246L106.231 152.346C105.232 153.651 104.14 154.882 102.966 156.032C101.513 157.318 100.806 157.365 100.806 157.365L97.9139 165.062C97.6207 164.869 97.3208 164.676 97.0076 164.489C91.7292 161.29 84.4649 159.531 79.0133 158.598C77.2205 158.291 75.621 158.078 74.3481 157.931C72.3887 157.698 71.1758 157.618 71.1758 157.618L73.5017 149.76C72.8029 148.145 72.6078 146.357 72.9419 144.629C73.3218 142.663 78.5334 133.546 83.7851 125.895C85.8558 122.782 88.1523 119.827 90.6562 117.051C90.8628 116.838 91.0761 116.631 91.2894 116.438C100.273 112.232 111.949 113.265 114.249 125.388C114.309 125.688 114.362 125.988 114.402 126.288C115.682 134.359 113.689 140.763 109.297 147.808Z" fill="#BA6BF8"/>
<path d="M114.362 126.288C104.252 119.37 95.7011 120.77 83.7449 125.895C85.8155 122.782 88.1121 119.827 90.616 117.051C90.8226 116.838 91.0359 116.631 91.2491 116.438C100.233 112.232 111.909 113.265 114.209 125.388C114.268 125.708 114.322 126.008 114.362 126.288Z" fill="#BA6BF8"/>
<path d="M77.1538 151.427C83.4118 151.427 89.5299 153.986 90.5629 154.472" stroke="#FCC71F" stroke-width="0.75" stroke-linecap="round" stroke-linejoin="round"/>
<path d="M102.965 156.032C104.14 154.882 105.231 153.651 106.231 152.346L106.304 152.246C107.358 150.861 108.334 149.42 109.23 147.928C109.248 147.886 109.271 147.846 109.297 147.808C110.003 146.615 110.59 145.515 111.036 144.589C111.403 143.869 111.669 143.256 111.856 142.803" stroke="#FCC71F" stroke-width="0.75" stroke-linecap="round" stroke-linejoin="round"/>
<path d="M157.142 150.467C157.381 153.619 155.529 154.426 155.529 154.426C155.782 162.09 153.529 165.755 149.784 166.728C146.038 167.701 136.361 169.754 136.361 169.754C135.358 170.162 134.391 170.652 133.469 171.22C132.389 171.833 131.05 172.62 129.47 173.553C124.659 176.365 117.081 178.991 108.077 183.736C92.1222 192.147 80.7525 187.588 79.9927 178.665C78.6198 162.33 99.3666 161.263 106.944 160.004C112.436 159.084 120.94 156.905 126.211 155.685C128.211 155.232 129.71 154.912 130.417 154.845C132.949 154.619 138.201 151.846 147.418 148.947C156.635 146.048 164.079 144.369 164.079 146.401C164.079 148.434 157.142 150.467 157.142 150.467Z" fill="#FEBD9D"/>
<path d="M147.431 148.948C156.642 146.035 164.093 144.369 164.093 146.402C164.093 148.434 157.115 150.487 157.115 150.487C157.355 153.639 155.502 154.446 155.502 154.446C155.755 162.11 153.503 165.775 149.757 166.749" stroke="#F4A789" stroke-width="0.75" stroke-linecap="round" stroke-linejoin="round"/>
<path d="M83.8582 167.608C87.8569 163.736 94.2615 162.063 99.6731 161.117" stroke="#F4A789" stroke-width="0.75" stroke-linecap="round" stroke-linejoin="round"/>
<path d="M133.469 171.22C132.39 171.834 131.05 172.62 129.471 173.553C125.758 169.414 123.832 163.003 126.212 155.665C128.211 155.212 129.71 154.892 130.417 154.826C128.697 159.524 128.378 167.188 133.469 171.22Z" fill="#683F1D"/>
<path d="M157.142 150.467L151.443 152.313" stroke="#F4A789" stroke-width="0.75" stroke-linecap="round" stroke-linejoin="round"/>
<path d="M155.529 154.426L152.023 155.698" stroke="#F4A789" stroke-width="0.75" stroke-linecap="round" stroke-linejoin="round"/>
<path d="M152.403 159.378L155.389 158.564" stroke="#F4A789" stroke-width="0.75" stroke-linecap="round" stroke-linejoin="round"/>
<path d="M132.123 164.276C132.123 165.229 131.84 166.161 131.311 166.953C130.782 167.745 130.029 168.363 129.149 168.728C128.268 169.092 127.299 169.188 126.365 169.002C125.43 168.816 124.571 168.357 123.897 167.683C123.224 167.009 122.765 166.151 122.579 165.216C122.393 164.281 122.488 163.312 122.853 162.432C123.218 161.552 123.835 160.799 124.628 160.27C125.42 159.74 126.352 159.458 127.305 159.458C128.582 159.458 129.808 159.965 130.712 160.869C131.615 161.772 132.123 162.998 132.123 164.276V164.276Z" fill="white" stroke="#683F1D" stroke-linecap="round" stroke-linejoin="round"/>
</g>
<path d="M198.862 75.0976V174.586H57V75.0976C56.9991 73.7799 57.2579 72.4749 57.7616 71.2572C58.2653 70.0395 59.0039 68.933 59.9354 68.0009C60.8669 67.0688 61.9729 66.3294 63.1902 65.8249C64.4076 65.3204 65.7124 65.0608 67.0301 65.0608H188.831C190.149 65.0608 191.454 65.3204 192.671 65.8249C193.889 66.3294 194.995 67.0688 195.926 68.0009C196.858 68.933 197.596 70.0395 198.1 71.2572C198.604 72.4749 198.862 73.7799 198.862 75.0976Z" stroke="#DDDDDD" stroke-width="2" stroke-linecap="round" stroke-linejoin="round"/>
<path d="M198.862 75.0976V75.5441H57V75.0976C56.9991 73.7799 57.2579 72.4749 57.7616 71.2572C58.2653 70.0395 59.0039 68.933 59.9354 68.0009C60.8669 67.0688 61.9729 66.3294 63.1902 65.8249C64.4076 65.3204 65.7124 65.0608 67.0301 65.0608H188.831C190.149 65.0608 191.454 65.3204 192.671 65.8249C193.889 66.3294 194.995 67.0688 195.926 68.0009C196.858 68.933 197.596 70.0395 198.1 71.2572C198.604 72.4749 198.862 73.7799 198.862 75.0976Z" stroke="#DDDDDD" stroke-width="2" stroke-linecap="round" stroke-linejoin="round"/>
<path d="M179.661 70.3056C179.661 70.6667 179.554 71.0198 179.353 71.3201C179.153 71.6204 178.868 71.8545 178.534 71.9927C178.2 72.1309 177.833 72.167 177.479 72.0966C177.125 72.0261 176.799 71.8522 176.544 71.5968C176.288 71.3414 176.115 71.0161 176.044 70.6618C175.974 70.3076 176.01 69.9404 176.148 69.6068C176.286 69.2731 176.52 68.9879 176.821 68.7872C177.121 68.5866 177.474 68.4795 177.835 68.4795C178.075 68.4795 178.312 68.5267 178.534 68.6185C178.755 68.7103 178.957 68.8448 179.126 69.0143C179.296 69.1839 179.43 69.3852 179.522 69.6068C179.614 69.8283 179.661 70.0658 179.661 70.3056V70.3056Z" fill="#DDDDDD"/>
<path d="M183.787 72.1317C184.795 72.1317 185.613 71.3141 185.613 70.3056C185.613 69.2971 184.795 68.4795 183.787 68.4795C182.778 68.4795 181.96 69.2971 181.96 70.3056C181.96 71.3141 182.778 72.1317 183.787 72.1317Z" fill="#DDDDDD"/>
<path d="M191.564 70.3056C191.564 70.667 191.457 71.0204 191.256 71.3208C191.055 71.6212 190.769 71.8553 190.435 71.9933C190.101 72.1313 189.733 72.1671 189.379 72.0961C189.025 72.0251 188.699 71.8505 188.444 71.5945C188.189 71.3384 188.016 71.0124 187.946 70.6577C187.876 70.3031 187.913 69.9357 188.053 69.6022C188.192 69.2686 188.427 68.9839 188.728 68.784C189.029 68.5842 189.383 68.4782 189.744 68.4795C189.984 68.4795 190.221 68.5268 190.442 68.6186C190.663 68.7105 190.864 68.8451 191.033 69.0148C191.202 69.1844 191.336 69.3858 191.427 69.6073C191.518 69.8288 191.565 70.0661 191.564 70.3056Z" fill="#DDDDDD"/>
<path d="M164.439 157.545C166.718 155.125 170.524 154.825 170.524 154.825L174.929 159.377C174.929 159.377 176.182 145.935 170.524 127.494C169.451 136.498 166.138 150.987 164.439 157.545Z" fill="#DDDDDD" stroke="#DDDDDD" stroke-linecap="round" stroke-linejoin="round"/>
<path d="M207.905 124.762C214.27 144.956 213.963 159.378 213.963 159.378H174.929C174.929 159.378 169.671 139.337 170.524 127.494C170.524 127.494 169.784 124.702 172.23 124.455C174.676 124.209 207.905 124.762 207.905 124.762Z" fill="#F9F9F9" stroke="#DDDDDD" stroke-linecap="round" stroke-linejoin="round"/>
<path d="M176.629 124.562C176.625 124.506 176.625 124.451 176.629 124.395C176.685 123.856 176.897 123.344 177.238 122.923C177.58 122.501 178.036 122.188 178.552 122.02C179.067 121.852 179.621 121.838 180.145 121.978C180.668 122.118 181.14 122.407 181.504 122.81C181.867 123.213 182.105 123.713 182.19 124.248C182.275 124.784 182.203 125.333 181.983 125.828C181.763 126.324 181.403 126.745 180.949 127.04C180.494 127.336 179.963 127.494 179.421 127.494" stroke="#DDDDDD" stroke-linecap="round" stroke-linejoin="round"/>
<path d="M196.462 124.562C196.534 124.028 196.758 123.526 197.107 123.116C197.457 122.706 197.917 122.405 198.433 122.249C198.948 122.093 199.498 122.09 200.016 122.238C200.534 122.386 200.998 122.681 201.353 123.086C201.709 123.491 201.939 123.99 202.019 124.523C202.098 125.056 202.022 125.6 201.8 126.091C201.578 126.582 201.219 126.999 200.767 127.291C200.314 127.584 199.787 127.74 199.248 127.741C198.78 127.74 198.32 127.616 197.915 127.381" stroke="#DDDDDD" stroke-linecap="round" stroke-linejoin="round"/>
<path d="M184.593 124.442C184.623 123.711 184.926 123.018 185.442 122.499C185.957 121.98 186.648 121.672 187.379 121.636C188.148 121.716 188.86 122.078 189.378 122.652C189.895 123.226 190.182 123.972 190.182 124.745C190.182 125.518 189.895 126.264 189.378 126.838C188.86 127.413 188.148 127.775 187.379 127.854C186.75 127.844 186.147 127.608 185.679 127.188" stroke="#DDDDDD" stroke-linecap="round" stroke-linejoin="round"/>
<path d="M190.538 124.508C190.608 123.975 190.831 123.474 191.179 123.064C191.527 122.654 191.985 122.353 192.5 122.196C193.015 122.04 193.563 122.036 194.08 122.183C194.598 122.331 195.061 122.624 195.416 123.028C195.771 123.433 196.002 123.93 196.081 124.462C196.16 124.994 196.085 125.538 195.863 126.028C195.642 126.518 195.284 126.934 194.832 127.226C194.381 127.518 193.854 127.673 193.317 127.674" stroke="#DDDDDD" stroke-linecap="round" stroke-linejoin="round"/>
<path d="M205.813 131.253H178.461V134.379H205.813V131.253Z" stroke="#DDDDDD" stroke-linecap="round" stroke-linejoin="round"/>
<path d="M185.239 155.972L184.893 153.339L183.133 139.79L182.84 137.564" stroke="#DDDDDD" stroke-linecap="round" stroke-linejoin="round"/>
<path d="M194.117 155.972L193.75 153.153L192.031 139.963L191.717 137.564" stroke="#DDDDDD" stroke-linecap="round" stroke-linejoin="round"/>
<path d="M200.601 137.558L202.994 155.978" stroke="#DDDDDD" stroke-linecap="round" stroke-linejoin="round"/>
<path d="M206.106 141.243H192.197H183.32H179.428" stroke="#DDDDDD" stroke-linecap="round" stroke-linejoin="round"/>
<path d="M207.459 149.287H193.243H184.366H180.774" stroke="#DDDDDD" stroke-linecap="round" stroke-linejoin="round"/>
<path d="M185.852 138.198C181.44 140.45 179.314 149.84 186.799 150.467C197.828 151.387 198.355 137.804 188.691 139.084" fill="#F9F9F9"/>
<path d="M185.852 138.198C181.44 140.45 179.314 149.84 186.799 150.467C197.828 151.387 198.355 137.804 188.691 139.084" stroke="#DDDDDD" stroke-width="2" stroke-linecap="round" stroke-linejoin="round"/>
<path d="M193.244 149.287H184.366L183.32 141.243H192.197L193.244 149.287Z" fill="#DDDDDD"/>
<path d="M209.191 148.074C209.378 151.133 215.189 147.768 214.79 145.089C214.39 142.41 208.971 144.529 209.191 148.074Z" fill="#FEBD9D" stroke="#F4A789" stroke-width="0.75" stroke-linecap="round" stroke-linejoin="round"/>
<path d="M208.205 143.955C208.418 147.021 214.963 143.656 214.536 140.97C214.11 138.284 207.958 140.417 208.205 143.955Z" fill="#FEBD9D" stroke="#F4A789" stroke-width="0.75" stroke-linecap="round" stroke-linejoin="round"/>
<path d="M207.746 140.883C207.972 143.942 214.99 140.576 214.53 137.897C214.07 135.218 207.486 137.337 207.746 140.883Z" fill="#FEBD9D" stroke="#F4A789" stroke-width="0.75" stroke-linecap="round" stroke-linejoin="round"/>
<path d="M206.759 137.091C206.992 139.87 214.23 136.818 213.757 134.385C213.284 131.953 206.486 133.879 206.759 137.091Z" fill="#FEBD9D" stroke="#F4A789" stroke-width="0.75" stroke-linecap="round" stroke-linejoin="round"/>
<path d="M185.852 138.198C181.44 140.45 179.314 149.84 186.799 150.467C197.828 151.387 198.355 137.804 188.691 139.084" stroke="#DDDDDD" stroke-width="2" stroke-linecap="round" stroke-linejoin="round"/>
<path d="M159.514 66.8801C158.934 71.6986 152.489 74.5243 152.489 74.5243L134.608 90.1327C132.776 93.0584 127.784 94.5313 124.745 92.0854C122.965 90.6592 121.859 87.8934 122.459 83.2882C121.961 83.2884 121.475 83.1424 121.059 82.8683C119 81.5954 117.727 77.5367 120.819 72.7182C120.599 72.9315 116.481 76.9369 112.242 75.7239C111.513 75.5292 110.834 75.182 110.249 74.7052C109.664 74.2284 109.187 73.6329 108.85 72.9581C107.517 70.2323 107.983 65.6871 111.789 59.4558C114.495 55.0105 118.26 54.2108 121.486 55.0439C125.138 55.9769 128.097 58.9759 128.097 61.1552C128.903 60.1664 129.838 59.29 130.876 58.5494C132.302 57.5564 134.069 56.8833 135.648 57.843C135.648 57.843 141.206 54.8506 144.365 56.7233C148.297 59.0426 147.431 60.6554 151.256 60.9087C154.102 61.0953 158.587 61.815 159.407 65.0407C159.563 65.6409 159.599 66.2659 159.514 66.8801Z" fill="#B25E47"/>
<path d="M128.098 61.1553L120.833 72.705C120.314 73.1904 119.76 73.636 119.174 74.0379C117.541 75.1708 114.928 76.4638 112.263 75.704C111.534 75.5093 110.854 75.162 110.27 74.6853C109.685 74.2085 109.208 73.613 108.87 72.9382C117.148 72.7649 120.06 70.4523 118.361 65.9005C116.781 61.6618 115.142 56.3368 121.506 55.0239C123.996 55.644 126.16 57.1817 127.564 59.3292C127.896 59.8821 128.079 60.511 128.098 61.1553V61.1553Z" fill="#B25E47"/>
<path d="M159.514 66.8803C158.934 71.6987 152.49 74.5245 152.49 74.5245L134.609 90.1329C132.776 93.0586 127.784 94.5315 124.745 92.0856C123.694 89.5654 123.436 86.7848 124.005 84.1142C124.574 81.4436 125.944 79.0098 127.931 77.137C131.596 73.8047 128.911 71.3189 129.264 66.9336C129.617 62.5483 137.641 55.7971 143.386 61.8552C147.891 66.607 156.368 60.8622 159.441 65.0409C159.586 65.6432 159.611 66.2683 159.514 66.8803V66.8803Z" fill="#B25E47"/>
<path d="M148.551 98.7702C140.514 97.9438 132.356 89.6065 132.356 89.6065C129.29 93.0987 123.246 87.8803 126.238 83.5351C128.197 80.676 131.263 82.3754 132.01 83.9349C133.253 83.132 134.165 81.9072 134.578 80.4856C134.99 79.0641 134.876 77.5413 134.256 76.1974C133.598 74.5473 133.313 72.7721 133.422 70.999C136.142 66.867 143.353 65.9207 143.353 65.9207C144.418 67.0444 145.715 67.9241 147.153 68.4994C148.591 69.0746 150.136 69.3316 151.683 69.2529C151.683 69.2529 154.156 74.0847 156.169 78.9965C156.209 79.1031 156.262 79.2231 156.302 79.3297C156.868 80.7293 157.395 82.1288 157.808 83.4084C157.848 83.5351 157.881 83.6483 157.921 83.7683C158.252 84.7789 158.497 85.8156 158.654 86.8673C159.301 92.1523 156.582 99.6299 148.551 98.7702Z" fill="#FEBD9D"/>
<path d="M151.89 76.7905C151.89 76.9618 151.941 77.1293 152.036 77.2718C152.131 77.4143 152.266 77.5253 152.425 77.5909C152.583 77.6565 152.757 77.6736 152.925 77.6402C153.093 77.6068 153.248 77.5243 153.369 77.4031C153.49 77.2819 153.573 77.1276 153.606 76.9595C153.639 76.7914 153.622 76.6172 153.557 76.4589C153.491 76.3006 153.38 76.1653 153.238 76.0701C153.095 75.9749 152.928 75.9241 152.756 75.9241C152.527 75.9258 152.308 76.0177 152.146 76.1798C151.983 76.3419 151.892 76.5612 151.89 76.7905V76.7905Z" fill="#683F1D"/>
<path d="M147.431 78.5297C147.91 78.5297 148.298 78.1418 148.298 77.6633C148.298 77.1848 147.91 76.7969 147.431 76.7969C146.953 76.7969 146.565 77.1848 146.565 77.6633C146.565 78.1418 146.953 78.5297 147.431 78.5297Z" fill="#683F1D"/>
<path d="M146.412 83.5281C148.148 84.3989 150.075 84.8227 152.017 84.761C152.017 84.761 151.643 88.0066 148.858 87.1403C146.425 86.3872 146.412 83.5281 146.412 83.5281Z" fill="white" stroke="#F4A789" stroke-width="0.75" stroke-linecap="round" stroke-linejoin="round"/>
<path d="M143.666 75.1174C143.986 76.1838 147.991 75.1174 147.551 73.3847C147.112 71.6519 143.206 73.6379 143.666 75.1174Z" fill="#B25E47"/>
<path d="M150.47 72.9715C150.41 74.1312 154.509 74.2111 154.509 73.2115C154.509 72.3051 150.577 71.0988 150.47 72.9715Z" fill="#B25E47"/>
<path d="M122.459 83.2883C122.956 80.0084 124.543 76.9914 126.964 74.7244" stroke="#683F1D" stroke-width="0.75" stroke-linecap="round" stroke-linejoin="round"/>
<path d="M135.648 57.8362C134.388 58.8425 132.502 62.1148 131.769 63.5877" stroke="#683F1D" stroke-width="0.75" stroke-linecap="round" stroke-linejoin="round"/>
<path d="M134.529 66.8869C136.015 62.9281 138.874 61.142 140.213 62.6616C141.553 64.1811 143.352 65.9139 143.352 65.9139" stroke="#683F1D" stroke-width="0.75" stroke-linecap="round" stroke-linejoin="round"/>
<path d="M151.683 69.2862C153.349 69.2195 154.936 67.52 155.415 66.5337" stroke="#683F1D" stroke-width="0.75" stroke-linecap="round" stroke-linejoin="round"/>
<path d="M118.341 71.992C112.196 72.9517 109.163 63.8546 114.155 56.6636" stroke="#683F1D" stroke-width="0.75" stroke-linecap="round" stroke-linejoin="round"/>
<path d="M124.499 63.5881C125.785 60.2558 121.493 54.8775 119.167 58.5697C116.501 62.795 120.393 68.3999 124.499 67.9" stroke="#683F1D" stroke-width="0.75" stroke-linecap="round" stroke-linejoin="round"/>
<path d="M120.833 72.7049C122.304 68.3334 124.794 64.3745 128.097 61.1553C128.097 61.1553 126.231 64.9407 127.598 67.6332C125.226 69.1624 122.966 70.8572 120.833 72.7049V72.7049Z" fill="#FED81D"/>
<path d="M126.964 86.3876C128.204 84.195 130.357 84.3149 131.49 86.161" stroke="#F4A789" stroke-width="0.75" stroke-linecap="round" stroke-linejoin="round"/>
<path d="M131.037 85.5741C128.484 84.9077 128.477 88.3333 131.19 87.8468" stroke="#F4A789" stroke-width="0.75" stroke-linecap="round" stroke-linejoin="round"/>
<path d="M149.577 76.1636C149.537 78.1629 151.137 79.3092 152.19 79.8624C153.243 80.4156 152.896 81.8618 152.823 82.075" stroke="#F4A789" stroke-width="0.75" stroke-linecap="round" stroke-linejoin="round"/>
<path d="M132.362 89.6333C132.771 89.1051 133.112 88.5274 133.375 87.9138" stroke="#F4A789" stroke-width="0.75" stroke-linecap="round" stroke-linejoin="round"/>
<path d="M143.906 82.8749C143.239 84.1412 141.193 84.3745 139.24 83.4081C137.288 82.4417 136.268 80.6223 136.908 79.3561C137.548 78.0898 139.62 77.8565 141.573 78.8295C143.526 79.8026 144.545 81.6353 143.906 82.8749Z" fill="#F4A789"/>
<path d="M157.921 83.795C157.503 83.9883 157.039 84.059 156.583 83.9988C156.126 83.9386 155.696 83.7501 155.342 83.4551C154.376 82.4888 154.742 80.5294 156.169 79.0232C156.209 79.1298 156.262 79.2498 156.302 79.3564C156.868 80.756 157.395 82.1555 157.808 83.4351C157.848 83.5617 157.881 83.675 157.921 83.795Z" fill="#F4A789"/>
<path d="M395.279 51.9379V151.426H253.444V51.9379C253.444 49.276 254.502 46.7231 256.384 44.8408C258.266 42.9586 260.819 41.9011 263.481 41.9011H385.282C387.938 41.9099 390.482 42.9715 392.356 44.853C394.23 46.7345 395.281 49.2824 395.279 51.9379V51.9379Z" stroke="#DDDDDD" stroke-width="2" stroke-linecap="round" stroke-linejoin="round"/>
<path d="M395.279 51.9379V52.3845H253.444V51.9379C253.444 49.276 254.502 46.7231 256.384 44.8408C258.266 42.9586 260.819 41.9011 263.481 41.9011H385.282C387.938 41.9099 390.482 42.9715 392.356 44.853C394.23 46.7345 395.281 49.2824 395.279 51.9379V51.9379Z" stroke="#DDDDDD" stroke-width="2" stroke-linecap="round" stroke-linejoin="round"/>
<path d="M376.105 47.1462C376.105 47.5076 375.998 47.8609 375.797 48.1614C375.596 48.4618 375.31 48.6959 374.976 48.8339C374.642 48.9719 374.275 49.0077 373.92 48.9367C373.566 48.8657 373.24 48.6911 372.985 48.435C372.73 48.179 372.557 47.853 372.487 47.4983C372.417 47.1437 372.455 46.7763 372.594 46.4427C372.733 46.1092 372.968 45.8244 373.269 45.6246C373.57 45.4247 373.924 45.3188 374.286 45.3201C374.525 45.3201 374.762 45.3674 374.983 45.4592C375.205 45.5511 375.405 45.6857 375.575 45.8553C375.744 46.025 375.877 46.2264 375.968 46.4479C376.06 46.6694 376.106 46.9067 376.105 47.1462V47.1462Z" fill="#DDDDDD"/>
<path d="M382.064 47.1462C382.064 47.5073 381.956 47.8604 381.756 48.1607C381.555 48.461 381.27 48.695 380.936 48.8332C380.603 48.9715 380.235 49.0076 379.881 48.9372C379.527 48.8667 379.202 48.6928 378.946 48.4374C378.691 48.182 378.517 47.8566 378.446 47.5024C378.376 47.1482 378.412 46.781 378.55 46.4473C378.689 46.1137 378.923 45.8285 379.223 45.6278C379.523 45.4272 379.876 45.3201 380.237 45.3201C380.722 45.3201 381.186 45.5125 381.529 45.8549C381.871 46.1974 382.064 46.6618 382.064 47.1462V47.1462Z" fill="#DDDDDD"/>
<path d="M388.015 47.1462C388.015 47.5073 387.908 47.8604 387.707 48.1607C387.507 48.461 387.221 48.695 386.888 48.8332C386.554 48.9715 386.187 49.0076 385.833 48.9372C385.478 48.8667 385.153 48.6928 384.898 48.4374C384.642 48.182 384.468 47.8566 384.398 47.5024C384.327 47.1482 384.364 46.781 384.502 46.4473C384.64 46.1137 384.874 45.8285 385.174 45.6278C385.475 45.4272 385.828 45.3201 386.189 45.3201C386.673 45.3201 387.138 45.5125 387.48 45.8549C387.823 46.1974 388.015 46.6618 388.015 47.1462V47.1462Z" fill="#DDDDDD"/>
<path d="M256.47 95.1911C256.103 91.0324 274.464 83.1483 277.497 89.233L271.499 95.1911C271.499 95.1911 259.109 100.103 256.47 95.1911Z" fill="#FCC71F"/>
<path d="M265.454 65.4472C262.788 57.1565 262.588 56.1168 264.374 55.497C266.16 54.8772 270.686 64.2942 271.199 65.4472C272.992 69.0762 274.373 72.8942 275.317 76.8303C276.111 80.5091 277.15 88.9797 277.317 91.0191C278.023 99.6297 263.828 102.249 263.208 95.551C262.588 88.8531 262.541 86.6871 262.541 86.6871C262.541 86.6871 255.21 87.3536 254.184 81.902C253.158 76.4504 253.444 68.9728 253.444 68.9728C253.444 68.9728 242.301 67.1267 242.688 64.1876C243.074 61.2486 264.881 67.1867 264.881 67.1867L265.454 65.4472Z" fill="#B25E47"/>
<path d="M253.444 68.973C253.444 68.973 242.301 67.127 242.688 64.1879C243.074 61.2488 264.881 67.1869 264.881 67.1869L265.454 65.4675C262.788 57.1768 262.588 56.1371 264.374 55.5173C266.16 54.8975 270.686 64.3145 271.199 65.4675" stroke="#914839" stroke-width="0.75" stroke-linecap="round" stroke-linejoin="round"/>
<path d="M264.881 67.1667C263.923 70.8408 264.076 74.7161 265.32 78.3032" stroke="#914839" stroke-width="0.75" stroke-linecap="round" stroke-linejoin="round"/>
<path d="M259.662 60.8087C261.409 61.715 262.788 61.9083 263.308 59.4158C263.828 56.9232 261.369 56.8632 260.576 56.9965C259.356 57.1965 258.909 60.4154 259.662 60.8087Z" fill="#683F1D"/>
<path d="M259.989 60.1689C259.715 61.1407 259.492 62.1262 259.322 63.1213C259.609 63.268 261.322 63.8478 261.548 63.268C261.81 62.2502 261.995 61.2143 262.101 60.1689H259.989Z" fill="#683F1D"/>
<path d="M258.43 63.948C257.517 68.0334 252.798 90.4263 252.638 91.1594C252.478 91.8925 252.691 95.2781 252.978 95.4047C253.265 95.5313 254.911 93.1121 255.51 91.8858C256.11 90.6595 261.415 66.0873 261.742 64.941C262.555 62.1486 259.029 61.2755 258.43 63.948Z" fill="#683F1D"/>
<path d="M254.277 76.6571C251.991 77.1836 251.345 79.3629 253.031 80.8091C254.844 82.3686 259.309 81.6755 259.516 79.6828C259.722 77.6901 256.183 76.2239 254.277 76.6571Z" fill="#B25E47" stroke="#914839" stroke-width="0.75" stroke-linecap="round" stroke-linejoin="round"/>
<path d="M254.071 73.0849C251.725 72.7384 251.152 75.0843 252.824 76.8837C254.497 78.6831 260.022 79.0897 260.335 76.9503C260.649 74.811 255.51 73.2982 254.071 73.0849Z" fill="#B25E47" stroke="#914839" stroke-width="0.75" stroke-linecap="round" stroke-linejoin="round"/>
<path d="M251.991 69.0795C254.937 68.413 261.322 72.7116 261.062 74.0512C260.749 75.7373 257.73 75.9906 253.478 74.1845C249.486 72.4917 250.552 69.4194 251.991 69.0795Z" fill="#B25E47" stroke="#914839" stroke-width="0.75" stroke-linecap="round" stroke-linejoin="round"/>
<mask id="mask1_80_549" style="mask-type:alpha" maskUnits="userSpaceOnUse" x="253" y="48" width="143" height="104">
<rect x="253.604" y="48.3259" width="141.955" height="103.3" fill="#C4C4C4"/>
</mask>
<g mask="url(#mask1_80_549)">
<path d="M393.793 101.556C384.649 101.11 377.078 109.354 374.732 118.831C374.666 119.097 374.606 119.384 374.552 119.697C374.303 121.156 374.127 122.626 374.026 124.102C373.053 136.612 373.973 161.49 374.066 162.09C374.099 162.297 367.595 162.09 358.571 161.664C355.238 161.51 351.586 161.344 347.774 161.15C328.394 160.197 305.374 158.911 305.374 158.911L303.975 143.343C303.975 143.343 301.076 148.248 291.159 157.825C281.242 167.402 265.387 162.064 267.093 150.021C268.16 142.456 272.625 136.925 278.036 127.661C279.709 124.795 281.475 121.576 283.248 117.824C285.621 112.839 287.913 108.081 290.126 103.782C291.092 101.889 292.045 100.083 292.972 98.3905C296.451 91.9725 299.57 87.1141 302.082 84.8414C309.633 78.0036 325.815 81.9424 330.126 83.3286C336.55 85.4195 343.216 86.6761 349.96 87.0674C359.524 87.7339 374.046 91.8592 381.737 94.5384C386.173 96.0276 390.256 98.4117 393.733 101.543L393.793 101.556Z" fill="#FDF19B"/>
<path d="M400.231 115.745C391.86 107.347 379.151 103.682 366.395 115.078C351.56 128.294 340.177 130.593 323.489 111.293C311.419 97.2972 307.234 93.7716 292.972 98.4168C296.451 91.9989 299.57 87.1404 302.082 84.8678C309.633 78.03 325.815 81.9687 330.127 83.355C336.551 85.4368 343.217 86.6844 349.96 87.0671C359.524 87.7336 374.046 91.8589 381.737 94.5381C386.173 96.0274 390.256 98.4114 393.733 101.542C397.079 104.182 399.031 109.46 400.231 115.745Z" fill="#FDF19B"/>
<path d="M289.886 139.763C284.555 145.548 279.763 133.006 278.037 127.661C279.709 124.795 281.476 121.576 283.248 117.824C285.621 112.839 287.913 108.08 290.126 103.781C294.058 109.78 288.747 115.298 288.373 118.017C287.4 125.288 297.53 131.459 289.886 139.763Z" fill="#FCC71F"/>
<path d="M256.47 95.191C264.707 96.9305 277.497 89.2329 277.497 89.2329C277.497 89.2329 284.541 120.696 286.38 127.674C288.22 134.652 299.989 161.983 277.05 163.103C262.328 163.823 261.342 135.838 260.469 126.628C259.596 117.417 256.47 95.191 256.47 95.191Z" fill="#FDF19B"/>
<path d="M261.928 98.79C268.266 99.2365 275.324 94.9712 275.324 94.9712" stroke="#FCC71F" stroke-width="0.75" stroke-linecap="round" stroke-linejoin="round"/>
<path d="M277.497 89.2329C277.497 89.2329 284.541 120.696 286.381 127.674C287.387 131.479 291.346 141.343 291.013 149.707" stroke="#FCC71F" stroke-width="0.75" stroke-linecap="round" stroke-linejoin="round"/>
<path d="M323.489 88.4267C327.594 96.0443 338.484 103.369 351.626 93.2585C351.626 93.2585 353.039 89.0598 352.892 89.0598C352.746 89.0598 325.348 85.7275 325.348 85.7275L323.489 88.4267Z" fill="white"/>
<path d="M334.305 79.0162C330.92 78.2498 326.015 79.1095 322.629 84.3079C319.243 89.5062 318.81 93.7915 319.003 93.7449C319.197 93.6982 324.335 90.4526 326.634 90.6925C328.934 90.9324 334.085 92.4519 334.085 92.4519L334.305 79.0162Z" fill="#FED81D"/>
<path d="M349.56 80.5425C349.56 80.5425 357.044 80.5891 358.044 85.8341C359.044 91.0791 356.285 97.3705 352.899 100.276C349.513 103.182 351.373 96.0775 339.217 92.7453L349.56 80.5425Z" fill="#FED81D"/>
<path d="M353.213 86.6737C353.213 86.6737 349.054 92.9917 339.79 93.1317C330.527 93.2716 328.747 87.7534 328.747 87.7534C329.753 85.2475 330.96 79.9025 331.733 76.1571C332.226 73.7912 332.546 72.0584 332.546 72.0584C332.546 72.0584 334.079 57.2231 349.98 58.1162L350.254 60.5487L353.213 86.6737Z" fill="#B25E47"/>
<path d="M331.733 76.3042C332.226 73.945 332.546 72.2055 332.546 72.2055L341.596 67.9602C341.596 67.9602 343.029 78.3036 331.733 76.3042Z" fill="#914839"/>
<path d="M303.975 143.343C302.695 128.734 302.695 116.904 302.695 116.904" stroke="#FCC71F" stroke-width="0.75" stroke-linecap="round" stroke-linejoin="round"/>
</g>
<path d="M364.402 178.871C363.626 178.588 362.885 178.215 362.196 177.758C357.531 174.699 357.164 168.741 358.571 161.637C359.664 156.198 361.81 150.094 363.902 144.109C366.295 137.284 368.634 130.627 369.294 125.295C369.387 124.548 369.44 123.835 369.467 123.156C369.595 119.067 370.343 115.023 371.686 111.159C375.512 100.403 383.849 93.6316 393.766 101.556C397.052 104.182 399.004 109.46 400.204 115.745C400.631 117.991 400.964 120.37 401.237 122.796C402.143 131.033 402.277 139.89 402.683 146.488C404.689 178.431 397.032 191.187 364.402 178.871Z" fill="#FDF19B"/>
<path d="M400.231 115.745C393.026 108.52 382.596 104.795 371.7 111.146C375.525 100.39 383.863 93.6185 393.78 101.543C397.079 104.182 399.031 109.46 400.231 115.745Z" fill="#FDF19B"/>
<path d="M374.066 162.063C374.099 162.27 367.594 162.063 358.571 161.636C355.238 161.483 351.586 161.317 347.774 161.123C341.256 158.191 337.204 153.946 340.676 147.861C350.127 131.326 367.488 154.232 368.394 137.864C369.007 126.641 371.726 124.202 374.026 124.128C373.053 136.611 373.952 161.49 374.066 162.063Z" fill="#FCC71F"/>
<path d="M376.285 113.952C374.99 117.191 374.227 120.619 374.026 124.102C373.159 136.618 373.972 161.49 374.066 162.09" stroke="#FCC71F" stroke-width="0.75" stroke-linecap="round" stroke-linejoin="round"/>
<path d="M364.402 178.871C363.625 178.588 362.885 178.215 362.196 177.758C369.674 179.364 380.857 180.811 385.782 176.605C393.546 169.994 388.614 161.517 392.906 156.852C397.198 152.186 403.39 150.68 401.264 122.816C402.17 131.053 402.303 139.91 402.71 146.508C404.689 178.431 397.032 191.187 364.402 178.871Z" fill="#FCC71F"/>
<path d="M345.701 122.796C346.888 117.464 340.183 117.697 340.183 117.697C340.776 112.779 334.258 111.413 332.752 116.218C327.454 114.618 325.781 116.218 325.008 119.004L345.701 122.796Z" fill="#DDDDDD"/>
<path d="M336.665 118.211C337.537 118.211 338.244 117.503 338.244 116.631C338.244 115.759 337.537 115.052 336.665 115.052C335.792 115.052 335.085 115.759 335.085 116.631C335.085 117.503 335.792 118.211 336.665 118.211Z" fill="#F9F9F9" stroke="#DDDDDD" stroke-linecap="round" stroke-linejoin="round"/>
<path d="M314.945 115.045L305.054 168.675L344.322 176.605L354.872 122.902L314.945 115.045Z" fill="#F9F9F9" stroke="#DDDDDD" stroke-linecap="round" stroke-linejoin="round"/>
<path d="M327.041 150.58C325.042 155.799 324.922 161.284 325.841 163.116C325.841 163.116 329.587 163.816 333.332 153.653L327.041 150.58Z" fill="#FCC71F"/>
<path d="M332.126 140.49C323.142 137.405 318.85 135.538 317.231 135.099C315.611 134.659 309.76 134.166 308.827 135.099C307.894 136.032 307.827 137.218 308.16 138.431C308.494 139.644 307.494 140.584 307.354 141.836C307.214 143.089 308.72 143.469 308.414 144.716C308.107 145.962 307.081 147.328 307.787 148.714C308.494 150.101 307.121 151.513 308.414 153.193C309.706 154.872 322.956 155.685 325.861 155.066L331.566 157.618C331.566 157.618 341.603 147.308 332.126 140.49Z" fill="#B25E47"/>
<path d="M317.231 135.099C315.611 134.665 309.76 134.166 308.827 135.099C307.894 136.032 307.827 137.218 308.16 138.431C308.494 139.644 307.494 140.583 307.354 141.836C307.214 143.089 308.72 143.469 308.414 144.715C308.107 145.962 307.081 147.328 307.787 148.714C308.494 150.1 307.121 151.513 308.414 153.193" stroke="#914839" stroke-width="0.75" stroke-linecap="round" stroke-linejoin="round"/>
<path d="M385.789 176.599C383.449 180.824 377.598 182.857 366.461 179.505C363.462 178.598 360.57 177.658 357.797 176.705C353.212 175.133 348.98 173.526 345.188 171.987C338.581 169.36 332.112 166.397 325.808 163.11C327.482 161.263 328.834 159.148 329.806 156.852C330.412 155.493 330.912 154.089 331.299 152.653C332.334 148.684 332.612 144.556 332.119 140.484C333.632 140.937 335.258 141.403 336.971 141.87C341.109 143.003 345.748 144.176 350.446 145.409C364.529 149.121 379.177 153.373 382.743 158.658C383.069 159.144 383.409 159.631 383.676 160.137C383.789 160.337 383.909 160.537 384.016 160.744C384.049 160.795 384.078 160.848 384.102 160.904C384.236 161.144 384.362 161.39 384.482 161.63C384.709 162.063 384.909 162.497 385.102 162.93C387.201 167.742 387.795 172.98 385.789 176.599Z" fill="#FDF19B"/>
<path d="M332.126 140.49C348.254 145.349 377.498 150.887 382.777 158.664C383.692 160.013 384.482 161.443 385.136 162.936" stroke="#FCC71F" stroke-width="0.75" stroke-linecap="round" stroke-linejoin="round"/>
<path d="M336.971 141.87C337.971 151.98 332.752 161.683 332.752 161.683" stroke="#FCC71F" stroke-width="0.75" stroke-linecap="round" stroke-linejoin="round"/>
<path d="M385.782 176.605C383.443 180.831 377.591 182.863 366.455 179.511C363.456 178.605 360.563 177.665 357.791 176.712C364.329 178.432 379.731 181.757 385.782 176.605Z" fill="#FCC71F"/>
<path d="M349.961 58.2431L350.234 60.6689C344.602 69.4528 336.905 72.2186 332.526 72.1786C325.289 70.3725 322.816 63.8546 322.396 56.8502C322.293 55.1901 322.293 53.5252 322.396 51.8651C322.719 47.1207 323.519 42.4208 324.782 37.8362C324.782 37.8362 346.522 27.7194 348.028 48.0263C348.028 48.0263 352.693 47.1732 353.553 52.3583C354.286 56.6636 349.961 58.2431 349.961 58.2431Z" fill="#B25E47"/>
<path d="M325.888 51.8915C326.366 51.8915 326.754 51.5036 326.754 51.0251C326.754 50.5466 326.366 50.1587 325.888 50.1587C325.409 50.1587 325.021 50.5466 325.021 51.0251C325.021 51.5036 325.409 51.8915 325.888 51.8915Z" fill="#683F1D"/>
<path d="M331.94 50.785C332.418 50.785 332.806 50.3971 332.806 49.9186C332.806 49.4401 332.418 49.0522 331.94 49.0522C331.461 49.0522 331.073 49.4401 331.073 49.9186C331.073 50.3971 331.461 50.785 331.94 50.785Z" fill="#683F1D"/>
<path d="M330.633 45.2468C330.726 46.4331 334.778 46.8929 335.012 46.2198C335.338 45.2068 330.4 42.4677 330.633 45.2468Z" fill="#683F1D"/>
<path d="M322.896 47.0199C322.896 47.6864 327.301 47.9596 327.141 45.687C327.034 44.0409 322.989 45.2338 322.896 47.0199Z" fill="#683F1D"/>
<path d="M346.901 54.4642C348.714 51.7984 351.566 52.0783 351.88 52.5848" stroke="#914839" stroke-width="0.75" stroke-linecap="round" stroke-linejoin="round"/>
<path d="M347.675 53.5509C350.34 51.978 351.807 55.5036 348.421 55.5036" stroke="#914839" stroke-width="0.75" stroke-linecap="round" stroke-linejoin="round"/>
<path d="M328.227 48.5061C328.96 49.9257 328.893 50.7854 328.414 51.6984C327.934 52.6115 326.461 54.6908 327.227 56.5369" stroke="#914839" stroke-width="0.75" stroke-linecap="round" stroke-linejoin="round"/>
<path d="M332.972 56.8501C332.306 59.0561 329.68 60.4356 328.46 60.1824C328.46 60.1824 329.72 63.6013 331.939 62.7282C334.492 61.6952 332.972 56.8501 332.972 56.8501Z" fill="white" stroke="#914839" stroke-width="0.75" stroke-linecap="round" stroke-linejoin="round"/>
<path d="M346.501 57.603C347 57.9549 347.569 58.1963 348.169 58.3112C348.769 58.4262 349.386 58.4119 349.98 58.2695" stroke="#914839" stroke-width="0.75" stroke-linecap="round" stroke-linejoin="round"/>
<path d="M354.405 45.9534C356.898 49.379 353.146 50.8652 353.146 50.8652C352.767 50.3043 352.266 49.837 351.679 49.499C351.311 49.2816 350.9 49.1485 350.474 49.109C350.048 49.0695 349.619 49.1246 349.217 49.2705C348.815 49.4163 348.45 49.6493 348.149 49.9526C347.848 50.256 347.617 50.6223 347.474 51.0251C342.362 51.1318 344.568 47.1397 344.568 47.1397C339.983 48.9725 339.837 44.274 341.809 42.1546C338.23 46.1534 333.685 42.1546 334.425 38.5358C333.159 42.4879 328.647 42.6411 329.247 39.3622C328.859 40.0359 328.389 40.6583 327.847 41.2149C324.748 44.3339 321.962 41.0017 323.135 38.5491C318.47 42.9877 316.471 38.0226 320.903 35.3568C317.39 32.4777 321.569 28.3723 324.375 30.505C323.708 25.3933 328.987 25.1734 331.299 28.1524C332.206 22.5409 339.217 25.6066 339.497 28.2657C344.662 24.6535 348.66 27.3127 348.161 33.1842C350.247 30.3917 354.718 32.0312 352.999 39.1822C357.291 38.8757 358.017 44.2006 354.405 45.9534Z" fill="#683F1D"/>
<path d="M351.679 49.4989C351.311 49.2816 350.899 49.1484 350.474 49.1089C350.048 49.0694 349.619 49.1246 349.217 49.2705C348.815 49.4163 348.45 49.6493 348.149 49.9526C347.848 50.256 347.617 50.6222 347.474 51.0251C342.362 51.1318 344.568 47.1397 344.568 47.1397C339.983 48.9724 339.837 44.2739 341.809 42.1546C338.23 46.1533 333.685 42.1546 334.425 38.5358C333.159 42.4878 328.647 42.6411 329.247 39.3622C328.859 40.0358 328.389 40.6583 327.847 41.2149C326.594 37.4228 329.4 32.4177 333.685 34.6837C334.252 31.6313 341.256 29.6519 341.216 37.3495C343.809 33.7306 349.68 34.9702 346.901 41.8747C349.087 40.2419 354.112 43.0676 351.679 49.4989Z" fill="#683F1D"/>
<path d="M342.263 50.8384C342.882 52.0781 341.716 53.9108 339.663 54.9438C337.611 55.9768 335.438 55.8035 334.818 54.5639C334.198 53.3243 335.358 51.4916 337.417 50.4586C339.477 49.4256 341.643 49.5988 342.263 50.8384Z" fill="#914839"/>
<path d="M325.115 55.5501C324.795 56.4232 323.722 56.883 322.402 56.883C322.299 55.2229 322.299 53.558 322.402 51.8979C324.362 52.731 325.568 54.3105 325.115 55.5501Z" fill="#914839"/>
<path d="M343.695 194.746V294.234H201.834V194.746C201.829 193.428 202.086 192.121 202.588 190.902C203.091 189.684 203.829 188.576 204.762 187.644C205.694 186.712 206.801 185.973 208.02 185.47C209.239 184.968 210.546 184.711 211.864 184.716H333.665C334.984 184.711 336.29 184.968 337.509 185.47C338.728 185.973 339.835 186.712 340.767 187.644C341.7 188.576 342.438 189.684 342.941 190.902C343.443 192.121 343.7 193.428 343.695 194.746Z" stroke="#DDDDDD" stroke-width="2" stroke-linecap="round" stroke-linejoin="round"/>
<path d="M343.695 194.746V195.199H201.834V194.746C201.829 193.428 202.086 192.121 202.588 190.902C203.091 189.684 203.829 188.576 204.762 187.644C205.694 186.712 206.801 185.973 208.02 185.47C209.239 184.968 210.546 184.711 211.864 184.716H333.665C334.984 184.711 336.29 184.968 337.509 185.47C338.728 185.973 339.835 186.712 340.767 187.644C341.7 188.576 342.438 189.684 342.941 190.902C343.443 192.121 343.7 193.428 343.695 194.746Z" stroke="#DDDDDD" stroke-width="2" stroke-linecap="round" stroke-linejoin="round"/>
<path d="M324.495 189.954C324.495 190.315 324.388 190.668 324.187 190.969C323.986 191.269 323.701 191.503 323.367 191.641C323.034 191.78 322.667 191.816 322.312 191.745C321.958 191.675 321.633 191.501 321.377 191.245C321.122 190.99 320.948 190.665 320.878 190.311C320.807 189.956 320.843 189.589 320.982 189.255C321.12 188.922 321.354 188.637 321.654 188.436C321.954 188.235 322.307 188.128 322.669 188.128C323.153 188.128 323.617 188.321 323.96 188.663C324.302 189.005 324.495 189.47 324.495 189.954V189.954Z" fill="#DDDDDD"/>
<path d="M328.62 191.78C329.629 191.78 330.446 190.963 330.446 189.954C330.446 188.946 329.629 188.128 328.62 188.128C327.612 188.128 326.794 188.946 326.794 189.954C326.794 190.963 327.612 191.78 328.62 191.78Z" fill="#DDDDDD"/>
<path d="M334.579 191.78C335.587 191.78 336.405 190.963 336.405 189.954C336.405 188.946 335.587 188.128 334.579 188.128C333.57 188.128 332.752 188.946 332.752 189.954C332.752 190.963 333.57 191.78 334.579 191.78Z" fill="#DDDDDD"/>
<path d="M210.198 242.811C206.146 230.815 205.193 224.337 206.299 223.411C206.966 222.824 208.079 222.391 208.165 221.205C208.252 220.018 206.892 216.033 211.638 215.1C211.638 215.1 213.244 205.696 214.77 201.291C214.77 201.291 223.247 235.034 223.84 237.566C224.433 240.099 212.95 250.995 210.198 242.811Z" fill="#FEBD9D"/>
<path d="M211.638 215.1C211.327 216.61 211.105 218.136 210.971 219.672" stroke="#F4A789" stroke-width="0.75" stroke-linecap="round" stroke-linejoin="round"/>
<path d="M206.006 226.956C205.759 224.957 205.879 223.771 206.306 223.411C206.972 222.824 208.085 222.391 208.172 221.205C208.258 220.018 206.899 216.033 211.644 215.1C211.644 215.1 213.25 205.696 214.776 201.291" stroke="#F4A789" stroke-width="0.75" stroke-linecap="round" stroke-linejoin="round"/>
<path d="M251.414 181.108L214.275 191.582C212.107 192.194 210.846 194.447 211.457 196.615L218.666 222.176C219.277 224.344 221.531 225.606 223.699 224.994L260.838 214.52C263.006 213.909 264.267 211.655 263.656 209.487L256.447 183.926C255.836 181.758 253.582 180.496 251.414 181.108Z" fill="#F9F9F9" stroke="#DDDDDD" stroke-linecap="round" stroke-linejoin="round"/>
<path d="M249.579 184.84L217.803 193.802C216.368 194.207 215.533 195.698 215.937 197.132L222.217 219.397C222.621 220.831 224.112 221.666 225.547 221.262L257.324 212.3C258.758 211.895 259.593 210.404 259.189 208.969L252.91 186.705C252.505 185.271 251.014 184.435 249.579 184.84Z" stroke="#DDDDDD" stroke-linecap="round" stroke-linejoin="round"/>
<path d="M240.368 206.382C240.378 206.571 240.378 206.76 240.368 206.949C240.265 208.383 239.764 209.759 238.922 210.925C238.08 212.09 236.93 212.997 235.601 213.545C234.272 214.094 232.817 214.261 231.398 214.028C229.98 213.795 228.654 213.172 227.57 212.228C226.486 211.284 225.686 210.057 225.26 208.683C224.835 207.31 224.8 205.846 225.16 204.454C225.52 203.062 226.261 201.799 227.299 200.804C228.337 199.81 229.632 199.124 231.038 198.825C231.563 198.706 232.099 198.648 232.637 198.652C233.654 198.651 234.66 198.85 235.599 199.238C236.538 199.626 237.392 200.195 238.111 200.913C238.83 201.631 239.401 202.483 239.79 203.422C240.18 204.36 240.381 205.366 240.382 206.382H240.368Z" stroke="#DDDDDD" stroke-linecap="round" stroke-linejoin="round"/>
<path d="M240.342 206.929C240.249 208.212 239.838 209.451 239.146 210.535C238.454 211.619 237.502 212.513 236.378 213.137C235.253 213.761 233.99 214.095 232.704 214.108C231.418 214.121 230.149 213.814 229.012 213.214C230.511 210.181 232.604 205.883 232.604 205.883L240.342 206.929Z" stroke="#DDDDDD" stroke-linecap="round" stroke-linejoin="round"/>
<path d="M240.368 206.383C240.379 206.571 240.379 206.76 240.368 206.949L232.651 205.923L238.489 201.304C239.71 202.713 240.378 204.518 240.368 206.383V206.383Z" stroke="#DDDDDD" stroke-linecap="round" stroke-linejoin="round"/>
<path d="M238.463 201.304L232.624 205.923C232.624 205.923 231.625 201.637 231.025 198.825C231.55 198.706 232.086 198.648 232.624 198.652C233.731 198.65 234.824 198.886 235.831 199.344C236.839 199.802 237.736 200.47 238.463 201.304V201.304Z" fill="#DDDDDD" stroke="#DDDDDD" stroke-linecap="round" stroke-linejoin="round"/>
<path d="M249.159 203.543C250.618 203.03 249.272 202.284 250.238 201.871C251.651 201.271 252.111 192.54 245.833 194.333C241.075 195.666 244.54 203.43 246.873 202.717C247.506 202.524 247.486 204.137 249.159 203.543Z" fill="#F9F9F9" stroke="#DDDDDD" stroke-linecap="round" stroke-linejoin="round"/>
<path d="M247.446 197.146C246.826 198.259 247.319 199.038 248.332 199.412C250.032 200.045 247.506 202.038 246.953 200.945C246.346 199.745 249.665 200.545 248.952 203.237" stroke="#DDDDDD" stroke-linecap="round" stroke-linejoin="round"/>
<path d="M248.412 205.329C248.839 206.349 249.365 206.529 250.172 206.296C250.978 206.063 251.012 205.503 250.798 204.69L248.412 205.329Z" fill="#F9F9F9" stroke="#DDDDDD" stroke-linecap="round" stroke-linejoin="round"/>
<path d="M247.726 204.683C248.113 204.017 250.392 203.61 250.712 203.683C251.032 203.757 251.318 204.683 250.898 204.923C250.018 205.316 249.079 205.561 248.119 205.649C248.023 205.621 247.934 205.572 247.86 205.504C247.786 205.437 247.727 205.354 247.69 205.261C247.652 205.168 247.635 205.068 247.642 204.968C247.648 204.868 247.677 204.77 247.726 204.683Z" fill="#F9F9F9" stroke="#DDDDDD" stroke-linecap="round" stroke-linejoin="round"/>
<path d="M247.286 203.443C247.699 202.777 250.152 202.364 250.465 202.444C250.878 202.544 251.132 203.443 250.672 203.677C249.727 204.071 248.726 204.316 247.706 204.403C247.608 204.378 247.518 204.331 247.441 204.265C247.364 204.2 247.304 204.118 247.263 204.025C247.223 203.933 247.204 203.832 247.208 203.732C247.212 203.631 247.239 203.532 247.286 203.443Z" fill="#F9F9F9" stroke="#DDDDDD" stroke-linecap="round" stroke-linejoin="round"/>
<path d="M239.469 196.559L241.495 196.692" stroke="#DDDDDD" stroke-linecap="round" stroke-linejoin="round"/>
<path d="M243.454 190.387L244.34 192.34" stroke="#DDDDDD" stroke-linecap="round" stroke-linejoin="round"/>
<path d="M250.379 190.901L249.666 192.34" stroke="#DDDDDD" stroke-linecap="round" stroke-linejoin="round"/>
<path d="M216.283 220.331C213.463 225.376 215.696 231.421 219.102 233.067C222.507 234.713 223.913 224.263 224.32 221.624C224.727 218.985 224.733 214.993 225.026 212.994C225.32 210.994 223.44 209.415 222.207 212.467C220.974 215.519 220.388 217.385 220.388 217.385L216.283 220.331Z" fill="#FEBD9D"/>
<path d="M224.32 221.624C224.733 218.958 224.733 214.993 225.027 212.994C225.32 210.994 223.44 209.415 222.207 212.467C220.975 215.519 220.388 217.385 220.388 217.385L216.283 220.331" stroke="#F4A789" stroke-width="0.75" stroke-linecap="round" stroke-linejoin="round"/>
<mask id="mask2_80_549" style="mask-type:alpha" maskUnits="userSpaceOnUse" x="201" y="182" width="143" height="113">
<rect x="201.621" y="182.283" width="141.955" height="111.964" fill="#C4C4C4"/>
</mask>
<g mask="url(#mask2_80_549)">
<path d="M307.307 200.704L305.041 229.362L280.222 231.701C282.348 224.95 284.06 218.075 285.347 211.114C285.907 208.109 286.414 204.916 286.8 201.657L295.944 201.238L307.307 200.704Z" fill="#FEBD9D"/>
<path d="M297.977 203.936C296.964 207.868 291.412 210.654 285.387 211.101C285.947 208.095 286.454 204.903 286.84 201.644L295.984 201.224C297.417 201.857 298.256 202.737 297.977 203.936Z" fill="#F4A789"/>
<path d="M345.855 231.687V298.366H340.683C340.683 298.366 337.63 286.27 324.488 260.918C324.488 260.918 324.235 262.044 323.722 263.997C323.015 266.703 321.809 270.982 320.096 276.067C317.208 284.812 313.49 293.261 308.993 301.299C299.51 305.361 289.509 308.084 279.276 309.389C278.996 309.389 278.709 309.463 278.423 309.489C268.226 310.749 256.39 310.756 244.38 307.663C236.922 305.774 229.806 302.732 223.287 298.646C223.647 298.06 239.862 266.316 244.913 256.106C245.307 255.313 245.7 254.54 246.1 253.774C250.845 244.703 256.536 237.652 271.905 231.687C275.47 230.314 278.603 229.095 281.348 228.029C291.472 224.103 296.517 222.164 299.609 221.244C301.795 220.595 303.872 219.989 305.841 219.425C324.781 213.986 334.178 212.713 342.142 224.863C343.541 227.046 344.782 229.327 345.855 231.687V231.687Z" fill="#404E6D"/>
<path d="M342.142 224.863C335.584 224.463 327.333 226.269 322.668 236.539C314.051 255.493 297.043 263.431 284.574 251.281C274.777 241.744 258.082 242.984 246.099 253.774C250.845 244.703 256.536 237.652 271.904 231.687C275.47 230.314 278.602 229.095 281.348 228.029C291.472 224.103 296.517 222.164 299.609 221.244C301.795 220.595 303.872 219.989 305.84 219.425C324.781 213.986 334.178 212.713 342.142 224.863Z" fill="#404E6D"/>
<path d="M345.855 280.346V298.34H340.683C340.683 298.34 337.631 286.244 324.488 260.892C325.241 257.966 325.821 255.147 326.287 252.648C334.778 256.367 335.505 264.237 334.578 268.683C333.718 272.821 338.084 282.965 345.855 280.346Z" fill="#282B31"/>
<path d="M275.151 265.47C273.818 272.441 268.013 284.664 257.649 302.125C256.057 304.658 254.249 307.048 252.245 309.269C249.598 308.871 246.973 308.337 244.38 307.67L247.659 298.373C249.519 291.182 252.991 287.976 260.469 286.537C267.106 285.25 261.548 264.95 275.151 265.47Z" fill="#282B31"/>
<path d="M241.761 320C241.761 320 247.379 314.855 252.244 309.263C254.248 307.042 256.057 304.651 257.649 302.119C268.013 284.664 273.811 272.441 275.15 265.464C275.568 263.304 275.557 261.649 275.117 260.499" stroke="#282B31" stroke-width="0.75" stroke-linecap="round" stroke-linejoin="round"/>
<path d="M327.607 243.524C327.607 243.524 327.254 247.356 326.274 252.674C325.821 255.173 325.228 258.006 324.475 260.918" stroke="#282B31" stroke-width="0.75" stroke-linecap="round" stroke-linejoin="round"/>
<path d="M247.653 283.404C247.899 299.433 229.605 315.594 219.575 295.76C215.383 287.476 204.913 248.815 205.646 243.524C206.312 238.812 220.095 228.322 225.753 230.375C225.753 230.375 228.119 236.599 231.371 244.543C235.51 254.654 241.081 267.569 245 273.981C246.712 276.828 247.628 280.082 247.653 283.404V283.404Z" fill="#404E6D"/>
<path d="M240.368 265.17C238.196 269.469 235.703 274.421 233.264 279.166C231.604 276.134 231.304 271.668 234.837 267.503C239.329 262.218 225.266 252.994 231.371 244.53C234.05 251.088 237.329 258.799 240.368 265.17Z" fill="#282B31"/>
<path d="M240.455 265.004C240.455 265.057 240.395 265.111 240.368 265.171C238.195 269.469 235.703 274.421 233.264 279.166L230.978 283.651" stroke="#282B31" stroke-width="0.75" stroke-linecap="round" stroke-linejoin="round"/>
</g>
<path d="M280.529 186.988C277.196 199.018 274.231 205.602 294.751 206.949C294.751 206.949 307.773 192.287 306.001 171C306.001 171 294.398 161.67 284.348 179.844C284.348 179.844 280.662 181.257 280.242 181.757C279.822 182.257 280.102 185.362 280.529 186.988Z" fill="#FEBD9D"/>
<path d="M284.347 179.844C284.347 179.844 280.662 181.257 280.242 181.757C279.822 182.257 280.102 185.362 280.529 186.989" stroke="#F4A789" stroke-width="0.75" stroke-linecap="round" stroke-linejoin="round"/>
<path d="M287.153 182.423C287.632 182.423 288.02 182.036 288.02 181.557C288.02 181.079 287.632 180.691 287.153 180.691C286.675 180.691 286.287 181.079 286.287 181.557C286.287 182.036 286.675 182.423 287.153 182.423Z" fill="#683F1D"/>
<path d="M287.906 174.546C289.626 173.353 292.645 180.297 290.459 180.271C289.579 180.271 285.814 175.999 287.906 174.546Z" fill="#BF8228"/>
<path d="M324.488 233.287C323.475 243.177 318.636 247.116 319.576 250.455C320.516 253.794 322.828 253.068 322.828 253.068C322.828 253.068 320.989 258.399 313.931 256.273C313.931 256.273 307.76 265.697 301.935 258.939C296.67 266.13 285.574 267.603 285.234 257.74C285.234 257.74 289.519 258.813 291.705 256.033C293.891 253.254 294.371 248.622 291.998 246.183C289.626 243.744 286.18 241.305 285.96 237.233C285.74 233.161 288.746 226.016 293.111 220.705C293.111 220.705 275.69 215.793 274.404 230.701L270.925 232.034C270.925 232.034 267.213 230.242 267.299 224.25C267.386 218.259 272.858 213.86 278.816 213.967C284.774 214.073 299.149 211.488 292.145 193.34C292.145 193.34 297.863 195.433 299.356 190.854C300.849 186.276 295.67 183.836 292.691 186.396C292.691 186.396 290.252 182.63 297.483 174.339C296.677 171.714 293.884 171.007 295.084 168.341C296.057 166.195 302.162 166.195 306.747 167.122C307.731 167.317 308.7 167.585 309.646 167.921C312.273 168.855 314.561 170.551 316.217 172.793C317.21 174.12 317.865 175.668 318.123 177.305C318.782 177.034 319.491 176.907 320.202 176.932C321.642 176.985 323.402 177.792 324.028 181.157C324.941 186.029 321.602 188.488 319.363 189.615C318.74 189.924 318.088 190.172 317.417 190.354C317.907 191.88 318.132 193.478 318.083 195.079V195.079C318.055 196.125 317.914 197.164 317.663 198.178C316.71 201.984 314.644 208.608 315.557 213.214C315.658 213.772 315.819 214.317 316.037 214.84C317.91 219.412 325.501 223.397 324.488 233.287Z" fill="#BF8228"/>
<path d="M319.336 189.648C318.713 189.957 318.061 190.205 317.39 190.387C317.39 190.387 314.264 191.147 313.025 185.682C312.032 181.304 314.491 178.351 318.123 177.338C318.782 177.067 319.491 176.94 320.202 176.965C313.631 182.69 316.824 187.342 319.336 189.648Z" fill="#BF8228"/>
<path d="M324.488 233.287C323.475 243.177 318.636 247.116 319.576 250.455C320.516 253.794 322.828 253.068 322.828 253.068C322.828 253.068 320.989 258.399 313.931 256.273C313.931 256.273 307.76 265.697 301.935 258.939C296.67 266.13 285.574 267.603 285.234 257.74C285.234 257.74 289.519 258.813 291.705 256.033C293.891 253.254 294.371 248.622 291.998 246.183C289.626 243.744 286.18 241.305 285.96 237.233C285.74 233.161 288.746 226.016 293.111 220.705C293.111 220.705 275.69 215.793 274.404 230.701L270.925 232.034C270.925 232.034 267.213 230.242 267.299 224.25C267.386 218.259 272.858 213.86 278.816 213.967C284.774 214.073 299.149 211.488 292.145 193.34C292.145 193.34 297.863 195.433 299.356 190.854C300.849 186.276 295.67 183.836 292.691 186.396C292.691 186.396 290.252 182.63 297.483 174.339C296.677 171.714 293.884 171.007 295.084 168.341C296.057 166.195 302.162 166.195 306.747 167.122C303.681 169.001 301.628 171.954 303.335 176.572C307.527 187.902 306.347 193.353 302.715 198.192C299.083 203.03 294.977 212.854 298.469 220.705C301.962 228.555 296.83 224.943 298.369 240.478C299.909 256.013 319.563 246.55 318.95 233.894C318.396 222.457 311.459 218.612 315.504 213.234C315.604 213.792 315.765 214.337 315.984 214.86C317.91 219.412 325.501 223.397 324.488 233.287Z" fill="#BF8228"/>
<path d="M292.592 189.135C294.498 187.948 296.304 188.055 297.35 188.808" stroke="#F4A789" stroke-width="0.75" stroke-linecap="round" stroke-linejoin="round"/>
<path d="M292.758 190.994C295.564 192.2 296.091 188.588 293.798 188.541" stroke="#F4A789" stroke-width="0.75" stroke-linecap="round" stroke-linejoin="round"/>
<path d="M307.233 172.973C310.306 173.933 314.904 178.765 314.904 178.765" stroke="#7F542D" stroke-width="0.75" stroke-linecap="round" stroke-linejoin="round"/>
<path d="M318.123 177.338C314.491 178.344 312.032 181.304 313.025 185.682C314.264 191.147 317.39 190.387 317.39 190.387" stroke="#7F542D" stroke-width="0.75" stroke-linecap="round" stroke-linejoin="round"/>
<path d="M314.125 179.851C316.937 178.725 320.296 178.245 321.576 181.804C322.855 185.363 320.983 188.122 318.123 190.154" stroke="#7F542D" stroke-width="0.75" stroke-linecap="round" stroke-linejoin="round"/>
<path d="M299.976 182.023C305.707 183.743 312.965 183.289 312.965 183.289" stroke="#7F542D" stroke-width="0.75" stroke-linecap="round" stroke-linejoin="round"/>
<path d="M301.555 191.967C306.56 193.2 312.885 189.568 313.885 188.128" stroke="#7F542D" stroke-width="0.75" stroke-linecap="round" stroke-linejoin="round"/>
<path d="M312.858 184.716C313.671 182.477 315.971 181.004 317.677 183.217C319.383 185.429 316.824 187.775 314.751 185.329" stroke="#7F542D" stroke-width="0.75" stroke-linecap="round" stroke-linejoin="round"/>
<path d="M293.118 220.738C297.97 215.013 302.062 210.441 299.983 202.177" stroke="#7F542D" stroke-width="0.75" stroke-linecap="round" stroke-linejoin="round"/>
<path d="M301.975 258.972C304.914 254.48 300.376 247.883 299.683 243.531C298.99 239.179 298.836 233.72 304.301 227.796" stroke="#7F542D" stroke-width="0.75" stroke-linecap="round" stroke-linejoin="round"/>
<path d="M309.353 208.195C313.432 218.572 314.072 220.245 311.859 228.015C309.646 235.786 308.313 239.638 311.859 245.183C315.798 251.328 314.565 253.554 313.925 256.273" stroke="#7F542D" stroke-width="0.75" stroke-linecap="round" stroke-linejoin="round"/>
<path d="M291.265 186.102C291.525 187.515 290.172 188.948 288.253 189.295C286.334 189.641 284.568 188.782 284.308 187.362C284.048 185.943 285.401 184.516 287.32 184.17C289.239 183.823 291.005 184.683 291.265 186.102Z" fill="#F4A789"/>
<path d="M343.695 211.461V294.235H201.834" stroke="#DDDDDD" stroke-width="2" stroke-linecap="round" stroke-linejoin="round"/>
<defs>
<linearGradient id="paint0_linear_80_549" x1="230" y1="310" x2="244" y2="160" gradientUnits="userSpaceOnUse">
<stop offset="0.0885417" stop-color="#FDF19B" stop-opacity="0"/>
<stop offset="0.479167" stop-color="#A69729" stop-opacity="0.21"/>
<stop offset="1" stop-color="#282B31" stop-opacity="0"/>
</linearGradient>
<linearGradient id="paint1_linear_80_549" x1="439.5" y1="252" x2="258" y2="99" gradientUnits="userSpaceOnUse">
<stop stop-color="#282B31"/>
<stop offset="1" stop-color="#282B31" stop-opacity="0"/>
</linearGradient>
</defs>
</svg>
