<svg width="32" height="32" viewBox="0 0 32 32" fill="none" xmlns="http://www.w3.org/2000/svg">
<rect width="32" height="32" rx="2" fill="#282B31"/>
<g filter="url(#filter0_i_260_432)">
<path d="M22.9409 23.093C22.0008 24.0982 20.2027 25.1555 18.6684 25.605C11.8637 27.5987 5.14451 21.7522 6.0892 14.6598C6.38089 12.4694 6.34431 12.4658 9.175 14.9654L11.6925 17.1885L10.7134 18.6007L9.73434 20.0129L10.2674 20.6363C13.2105 24.0773 18.2795 24.2153 21.3048 20.9367L22.3515 19.8026L23.3197 20.6574C24.4101 21.6202 24.4284 21.5027 22.9409 23.093Z" fill="url(#paint0_linear_260_432)"/>
<path d="M8.17145 9.70369C14.4685 1.42069 28.2917 8.23145 25.6742 18.3272C25.4055 19.3632 24.195 18.5756 20.6908 15.0845L20.2411 14.6367L21.1482 13.3859C22.2072 11.9256 22.1921 11.7385 20.9191 10.5613C17.8985 7.76784 13.3351 7.98788 10.5347 11.062L9.54166 12.152L8.58584 11.2838L7.63001 10.4157L8.17145 9.70369Z" fill="url(#paint1_linear_260_432)"/>
</g>
<path d="M22.1678 19.6331L22.3337 19.4534L22.517 19.6152L23.4852 20.47C23.5306 20.5101 23.5748 20.5489 23.6177 20.5866C23.8228 20.7663 23.9969 20.919 24.1171 21.055C24.2689 21.2269 24.3834 21.4253 24.3441 21.6783C24.3098 21.8988 24.1622 22.1108 23.9727 22.3373C23.8109 22.5308 23.5885 22.7679 23.3092 23.0656C23.2499 23.1289 23.1879 23.1949 23.1235 23.2638C22.1482 24.3067 20.3089 25.3849 18.7387 25.8449C11.7564 27.8906 4.87338 21.8943 5.84138 14.6268C5.84549 14.596 5.84953 14.5655 5.85354 14.5354C5.91918 14.0412 5.97293 13.6365 6.05714 13.3593C6.1019 13.212 6.16456 13.0664 6.26868 12.96C6.38641 12.8397 6.53795 12.7886 6.70462 12.8051C6.85399 12.8199 7.00666 12.8877 7.15866 12.9774C7.31441 13.0693 7.49208 13.1981 7.69512 13.3593C8.08111 13.6658 8.58393 14.1099 9.23909 14.6885C9.27249 14.718 9.30628 14.7478 9.34047 14.778L9.175 14.9654L9.34048 14.778L11.858 17.0011L12.0246 17.1483L11.898 17.331L10.9189 18.7432L10.0496 19.9969L10.4574 20.4738C10.4574 20.4738 10.4574 20.4738 10.4574 20.4738C13.3059 23.8042 18.2002 23.9327 21.1211 20.7672L21.1211 20.7672L22.1678 19.6331ZM7.46192 10.6007L7.29234 10.4467L7.43102 10.2643L7.97243 9.55239C7.97244 9.55238 7.97245 9.55237 7.97246 9.55236C11.2088 5.29545 16.3777 4.92906 20.3763 6.89916C24.3747 8.86917 27.2608 13.2036 25.9162 18.39C25.8767 18.5421 25.8138 18.6865 25.7099 18.7985C25.6005 18.9165 25.4588 18.984 25.2959 18.9976C24.9985 19.0226 24.6492 18.8666 24.2595 18.613C23.4599 18.0928 22.2633 17.004 20.5144 15.2617C20.5144 15.2617 20.5144 15.2616 20.5144 15.2616L20.0647 14.8138L19.9132 14.663L20.0387 14.4899L20.9458 13.2391C21.2115 12.8727 21.399 12.6006 21.5172 12.3771C21.6346 12.1551 21.6687 12.008 21.6589 11.8876C21.6493 11.7689 21.5937 11.6361 21.4452 11.4496C21.2949 11.2607 21.0689 11.0403 20.7494 10.7448L20.7494 10.7448C17.8325 8.04735 13.4282 8.25696 10.7195 11.2304L10.5347 11.062L10.7195 11.2304L9.72647 12.3204L9.55835 12.5049L9.37357 12.3371L8.41775 11.4689L7.46192 10.6007Z" stroke="#FDF19B" stroke-width="0.5"/>
<defs>
<filter id="filter0_i_260_432" x="5.5" y="5.50085" width="21.001" height="36.9999" filterUnits="userSpaceOnUse" color-interpolation-filters="sRGB">
<feFlood flood-opacity="0" result="BackgroundImageFix"/>
<feBlend mode="normal" in="SourceGraphic" in2="BackgroundImageFix" result="shape"/>
<feColorMatrix in="SourceAlpha" type="matrix" values="0 0 0 0 0 0 0 0 0 0 0 0 0 0 0 0 0 0 127 0" result="hardAlpha"/>
<feOffset dy="16"/>
<feGaussianBlur stdDeviation="10"/>
<feComposite in2="hardAlpha" operator="arithmetic" k2="-1" k3="1"/>
<feColorMatrix type="matrix" values="0 0 0 0 0 0 0 0 0 0 0 0 0 0 0 0 0 0 0.1 0"/>
<feBlend mode="normal" in2="shape" result="effect1_innerShadow_260_432"/>
</filter>
<linearGradient id="paint0_linear_260_432" x1="16" y1="26" x2="16" y2="6" gradientUnits="userSpaceOnUse">
<stop stop-color="#00FFD1"/>
<stop offset="0.505208" stop-color="#906BF8"/>
<stop offset="1" stop-color="#F797FF"/>
</linearGradient>
<linearGradient id="paint1_linear_260_432" x1="16" y1="26" x2="16" y2="6" gradientUnits="userSpaceOnUse">
<stop stop-color="#00FFD1"/>
<stop offset="0.505208" stop-color="#906BF8"/>
<stop offset="1" stop-color="#F797FF"/>
</linearGradient>
</defs>
</svg>
