<svg width="36" height="37" viewBox="0 0 36 37" fill="none" xmlns="http://www.w3.org/2000/svg">
<g filter="url(#filter0_i_75_206)">
<path d="M30.1172 30.8713C28.5014 32.628 25.4109 34.4757 22.7739 35.2611C11.0783 38.7452 -0.47038 28.5282 1.15331 16.1336C1.65466 12.3057 1.59178 12.2994 6.45703 16.6677L10.784 20.5527L9.1012 23.0206L7.41839 25.4885L8.33464 26.578C13.393 32.5914 22.1054 32.8326 27.3052 27.103L29.1042 25.1211L30.7682 26.6149C32.6424 28.2974 32.6739 28.092 30.1172 30.8713Z" fill="url(#paint0_linear_75_206)"/>
<path d="M4.73218 7.47243C15.5553 -7.00272 39.3139 4.89959 34.815 22.5427C34.3533 24.3531 32.2726 22.9767 26.2499 16.8758L25.4768 16.0932L27.0359 13.9073C28.8561 11.3554 28.8301 11.0284 26.6422 8.97114C21.4506 4.08939 13.6073 4.47392 8.79396 9.84619L7.08723 11.7511L5.4444 10.2339L3.80158 8.71666L4.73218 7.47243Z" fill="url(#paint1_linear_75_206)"/>
</g>
<path d="M10.951 20.3667L11.1138 20.5128L10.9906 20.6936L9.30775 23.1615L7.73176 25.4727L8.52595 26.417C13.4897 32.318 22.025 32.5492 27.1201 26.935L27.1201 26.935L28.9191 24.953L29.0862 24.769L29.2712 24.935L30.9352 26.4289C31.0152 26.5007 31.0925 26.5696 31.167 26.636C31.5193 26.9502 31.8074 27.207 32.0054 27.435C32.2521 27.7189 32.4064 28.0102 32.3514 28.3696C32.3013 28.6975 32.0807 29.0321 31.7541 29.4291C31.4796 29.7629 31.1019 30.1722 30.622 30.6924C30.5197 30.8033 30.4128 30.9192 30.3012 31.0405C28.6504 32.8352 25.5187 34.7044 22.8452 35.5007C10.9653 39.0397 -0.7403 28.6639 0.905423 16.1011C0.911979 16.0511 0.918448 16.0016 0.924842 15.9527C1.0392 15.0777 1.12971 14.3852 1.26981 13.9163C1.34379 13.6687 1.44078 13.4491 1.58878 13.2953C1.75063 13.1271 1.95704 13.0545 2.19376 13.0784C2.41245 13.1004 2.64828 13.2033 2.90168 13.3554C3.15896 13.5098 3.45686 13.7289 3.80333 14.0086C4.4629 14.541 5.32377 15.3141 6.4526 16.3277C6.50907 16.3784 6.56622 16.4297 6.62405 16.4817L10.951 20.3667ZM25.299 16.2688L25.1512 16.1192L25.2733 15.948L26.8324 13.7621C27.2884 13.1228 27.618 12.6373 27.8282 12.2334C28.0375 11.8309 28.1138 11.5358 28.0929 11.2736C28.0721 11.013 27.9522 10.7457 27.6859 10.4055C27.4176 10.0628 27.0192 9.66876 26.4709 9.15328L26.6422 8.97114L26.4709 9.15327C21.3838 4.36973 13.7017 4.74313 8.98016 10.013L8.79396 9.84619L8.98016 10.013L7.27342 11.9179L7.10406 12.1069L6.91761 11.9347L5.27479 10.4175L3.63197 8.90032L3.46639 8.74741L3.60138 8.56693L4.53196 7.32272C10.0308 -0.0315437 18.8166 -0.674232 25.6313 2.73969C32.4453 6.15327 37.3412 13.6475 35.0572 22.6044L34.815 22.5427L35.0572 22.6044C34.9938 22.853 34.8967 23.0726 34.7461 23.2377C34.5898 23.409 34.3883 23.5077 34.1501 23.528C33.9202 23.5476 33.668 23.4936 33.3977 23.3862C33.1259 23.2781 32.8209 23.1101 32.4799 22.8845C31.1238 21.9873 29.0801 20.0986 26.072 17.0514L25.299 16.2688Z" stroke="#FDF19B" stroke-width="0.5"/>
<defs>
<filter id="filter0_i_75_206" x="0.5" y="0.500854" width="35.3757" height="51.9519" filterUnits="userSpaceOnUse" color-interpolation-filters="sRGB">
<feFlood flood-opacity="0" result="BackgroundImageFix"/>
<feBlend mode="normal" in="SourceGraphic" in2="BackgroundImageFix" result="shape"/>
<feColorMatrix in="SourceAlpha" type="matrix" values="0 0 0 0 0 0 0 0 0 0 0 0 0 0 0 0 0 0 127 0" result="hardAlpha"/>
<feOffset dy="16"/>
<feGaussianBlur stdDeviation="10"/>
<feComposite in2="hardAlpha" operator="arithmetic" k2="-1" k3="1"/>
<feColorMatrix type="matrix" values="0 0 0 0 0 0 0 0 0 0 0 0 0 0 0 0 0 0 0.1 0"/>
<feBlend mode="normal" in2="shape" result="effect1_innerShadow_75_206"/>
</filter>
<linearGradient id="paint0_linear_75_206" x1="18.1875" y1="35.9514" x2="18.1875" y2="0.999966" gradientUnits="userSpaceOnUse">
<stop stop-color="#00FFD1"/>
<stop offset="0.505208" stop-color="#906BF8"/>
<stop offset="1" stop-color="#F797FF"/>
</linearGradient>
<linearGradient id="paint1_linear_75_206" x1="18.1875" y1="35.9514" x2="18.1875" y2="0.999966" gradientUnits="userSpaceOnUse">
<stop stop-color="#00FFD1"/>
<stop offset="0.505208" stop-color="#906BF8"/>
<stop offset="1" stop-color="#F797FF"/>
</linearGradient>
</defs>
</svg>
