<svg width="69" height="36" viewBox="0 0 69 36" fill="none" xmlns="http://www.w3.org/2000/svg">
<path d="M5.48406 11.661C4.51479 11.661 3.64244 10.7722 3.64244 9.68588C3.64244 8.59955 4.51479 7.71073 5.48406 7.71073C6.45333 7.71073 7.32567 8.59955 7.32567 9.68588C7.32567 10.7722 6.45333 11.661 5.48406 11.661ZM0.25 9.68588C0.25 12.4511 2.47932 14.7225 5.48406 14.7225C8.48879 14.7225 10.7181 12.4511 10.7181 9.68588C10.7181 6.92068 8.48879 4.64926 5.48406 4.64926C2.47932 4.64926 0.25 6.92068 0.25 9.68588Z" fill="white"/>
<path d="M11.4034 14.525H14.6989V9.58712C14.6989 8.48104 15.3774 7.80949 16.2498 7.80949C17.0252 7.80949 17.6067 8.38228 17.6067 9.38961V14.525H20.9023V8.69831C20.9023 6.13062 19.4484 4.64926 17.5098 4.64926C16.5212 4.64926 15.8621 5.04429 15.4162 5.43932C15.1642 5.67634 14.9509 5.93311 14.7959 6.22938H14.6989V4.84678H11.4034V14.525Z" fill="white"/>
<path d="M29.344 11.1672C29.1695 11.345 28.9563 11.4833 28.7237 11.6215C28.3166 11.8388 27.735 12.0561 27.0177 12.0561C25.7577 12.0561 24.9823 11.266 24.8854 10.6735H31.3795L31.4182 10.3574C31.4376 10.1402 31.4764 9.88339 31.4764 9.58712C31.4764 6.82192 29.344 4.64926 26.5331 4.64926C23.7222 4.64926 21.4929 6.92068 21.4929 9.68588C21.4929 12.4511 23.7222 14.7225 26.727 14.7225C27.9482 14.7225 28.8981 14.4065 29.5766 14.0312C29.9643 13.8337 30.3133 13.5967 30.604 13.3399L29.344 11.1672ZM24.8854 8.59955C25.0986 7.90825 25.6608 7.31571 26.5331 7.31571C27.4055 7.31571 27.9676 7.90825 28.1809 8.59955H24.8854Z" fill="white"/>
<path d="M32.8349 10.9697C32.8349 13.3596 34.1919 14.7225 36.2273 14.7225C36.7507 14.7225 37.2354 14.6632 37.6037 14.5842L38.1659 14.4262V11.3647C38.0883 11.4043 37.9914 11.4438 37.8945 11.4635C37.7006 11.5228 37.468 11.5623 37.1966 11.5623C36.4793 11.5623 36.1304 11.1672 36.1304 10.3772V8.20452H37.972V5.04429H36.1304V2.08157H33.2226V3.8592C33.2226 4.55051 32.738 5.04429 32.0595 5.04429H31.4779V8.20452H32.8349V10.9697Z" fill="white"/>
<path d="M39.1336 14.525H42.4291V9.58712C42.4291 8.48104 43.1076 7.80949 43.98 7.80949C44.7554 7.80949 45.3369 8.38228 45.3369 9.38961V14.525H48.6325V8.69831C48.6325 6.13062 47.1786 4.64926 45.24 4.64926C44.2514 4.64926 43.5923 5.04429 43.1464 5.43932C42.8944 5.67634 42.6811 5.93311 42.5261 6.22938H42.4291V0.698975H39.1336V14.525Z" fill="white"/>
<path d="M57.0719 11.1672C56.8975 11.345 56.6842 11.4833 56.4516 11.6215C56.0445 11.8388 55.4629 12.0561 54.7457 12.0561C53.4856 12.0561 52.7102 11.266 52.6133 10.6735H59.1074L59.1462 10.3574C59.1656 10.1402 59.2043 9.88339 59.2043 9.58712C59.2043 6.82192 57.0719 4.64926 54.261 4.64926C51.4502 4.64926 49.2208 6.92068 49.2208 9.68588C49.2208 12.4511 51.4502 14.7225 54.4549 14.7225C55.6762 14.7225 56.6261 14.4065 57.3046 14.0312C57.6923 13.8337 58.0412 13.5967 58.332 13.3399L57.0719 11.1672ZM52.6133 8.59955C52.8265 7.90825 53.3887 7.31571 54.261 7.31571C55.1334 7.31571 55.6956 7.90825 55.9088 8.59955H52.6133Z" fill="white"/>
<path d="M59.7874 14.525H63.0829V10.3772C63.0829 8.87607 63.8583 8.10576 65.1184 8.10576C65.4092 8.10576 65.6418 8.14527 65.8163 8.20452L66.0876 8.30328V4.74802H65.6999C64.8276 4.74802 64.1879 5.08379 63.742 5.39982C63.49 5.57758 63.2574 5.79485 63.0829 6.03186V4.84678H59.7874V14.525Z" fill="white"/>
<path d="M65.3168 12.9449C65.3168 13.9522 66.0728 14.7225 67.1584 14.7225C68.244 14.7225 69 13.9522 69 12.9449C69 11.9375 68.244 11.1672 67.1584 11.1672C66.0728 11.1672 65.3168 11.9375 65.3168 12.9449Z" fill="white"/>
<path d="M5.48406 28.9882C4.51479 28.9882 3.64244 28.0994 3.64244 27.013C3.64244 25.9267 4.51479 25.0379 5.48406 25.0379C6.45333 25.0379 7.32567 25.9267 7.32567 27.013C7.32567 28.0994 6.45333 28.9882 5.48406 28.9882ZM7.32567 31.8521H10.6212V18.0261H7.32567V23.5565H7.22874C7.05427 23.2603 6.84104 23.0035 6.58903 22.7665C6.14316 22.3715 5.4259 21.9764 4.41786 21.9764C2.18854 21.9764 0.25 23.9516 0.25 27.013C0.25 30.0745 2.18854 32.0497 4.41786 32.0497C5.4259 32.0497 6.14316 31.6546 6.58903 31.2596C6.84104 31.0226 7.05427 30.7658 7.22874 30.4695H7.32567V31.8521Z" fill="white"/>
<path d="M11.9736 31.8521H15.2691V22.1739H11.9736V31.8521ZM11.7798 19.4087C11.7798 20.4161 12.5358 21.1864 13.6214 21.1864C14.707 21.1864 15.463 20.4161 15.463 19.4087C15.463 18.4014 14.707 17.6311 13.6214 17.6311C12.5358 17.6311 11.7798 18.4014 11.7798 19.4087Z" fill="white"/>
<path d="M19.4332 26.7168C19.4332 25.7094 20.1892 24.9391 21.1779 24.9391C22.1666 24.9391 22.9226 25.7094 22.9226 26.7168C22.9226 27.7241 22.1666 28.4944 21.1779 28.4944C20.1892 28.4944 19.4332 27.7241 19.4332 26.7168ZM16.3315 34.0248C16.6223 34.4001 16.9713 34.7161 17.3977 35.0124C18.115 35.5062 19.2394 35.9999 20.7902 35.9999C23.8725 35.9999 26.2181 33.6298 26.2181 30.7658V22.1739H22.9226V23.5565H22.8257C22.6512 23.2603 22.4379 23.0035 22.1859 22.7665C21.7401 22.3715 21.0228 21.9764 20.0148 21.9764C17.8824 21.9764 16.0408 23.8528 16.0408 26.7168C16.0408 29.5807 17.8824 31.4571 20.0148 31.4571C21.0228 31.4571 21.7401 31.0621 22.1859 30.6671C22.4379 30.43 22.6512 30.1733 22.8257 29.877H22.9226V30.7658C22.9226 32.0497 21.9727 33.0372 20.5963 33.0372C19.8209 33.0372 19.2394 32.8002 18.8517 32.5039C18.619 32.3459 18.4252 32.1682 18.2701 31.9509L16.3315 34.0248Z" fill="white"/>
<path d="M27.4804 31.8521H30.7759V22.1739H27.4804V31.8521ZM27.2866 19.4087C27.2866 20.4161 28.0426 21.1864 29.1282 21.1864C30.2138 21.1864 30.9698 20.4161 30.9698 19.4087C30.9698 18.4014 30.2138 17.6311 29.1282 17.6311C28.0426 17.6311 27.2866 18.4014 27.2866 19.4087Z" fill="white"/>
<path d="M32.8076 28.2969C32.8076 30.6868 34.1646 32.0497 36.2001 32.0497C36.7235 32.0497 37.2081 31.9904 37.5764 31.9114L38.1386 31.7534V28.6919C38.0611 28.7314 37.9641 28.7709 37.8672 28.7907C37.6734 28.8499 37.4407 28.8894 37.1693 28.8894C36.4521 28.8894 36.1031 28.4944 36.1031 27.7043V25.5317H37.9448V22.3715H36.1031V19.4087H33.1953V21.1864C33.1953 21.8777 32.7107 22.3715 32.0322 22.3715H31.4506V25.5317H32.8076V28.2969Z" fill="white"/>
<path d="M43.7634 31.8521H47.0589V25.8477C47.0589 23.7343 45.3336 21.9764 42.6972 21.9764C41.4371 21.9764 40.4485 22.4505 39.77 22.9245C39.3629 23.201 39.014 23.517 38.7232 23.8528L40.4679 25.5317C40.6036 25.3539 40.778 25.1762 40.9719 25.0379C41.3015 24.8009 41.7667 24.5441 42.4064 24.5441C43.1818 24.5441 43.6665 25.0379 43.7634 25.5317L41.0494 26.1242C39.1884 26.5193 38.1416 27.6056 38.1416 29.2845C38.1416 30.7658 39.3823 32.0497 41.1464 32.0497C42.0187 32.0497 42.6584 31.6941 43.0655 31.3189C43.2981 31.1016 43.492 30.8448 43.6665 30.5683H43.7634V31.8521ZM43.7634 27.8031C43.7634 28.9092 43.1818 29.482 42.4064 29.482C41.8249 29.482 41.5341 29.2252 41.5341 28.6919C41.5341 28.2969 41.9218 27.9019 42.4064 27.8031L43.7634 27.5068V27.8031Z" fill="white"/>
<path d="M48.2228 31.8521H51.5183V18.0261H48.2228V31.8521Z" fill="white"/>
</svg>
