<svg width="73" height="37" viewBox="0 0 73 37" fill="none" xmlns="http://www.w3.org/2000/svg">
<path d="M5.89 14.32C4.97667 14.32 4.13667 14.1333 3.37 13.76C2.61 13.38 2 12.8067 1.54 12.04C1.08667 11.2667 0.86 10.2867 0.86 9.1C0.86 7.87333 1.08667 6.87333 1.54 6.1C2 5.32667 2.61 4.75667 3.37 4.39C4.13667 4.01667 4.97667 3.83 5.89 3.83C6.78333 3.83 7.60667 4.01667 8.36 4.39C9.11333 4.75667 9.71667 5.32667 10.17 6.1C10.63 6.87333 10.86 7.87333 10.86 9.1C10.86 10.2867 10.63 11.2667 10.17 12.04C9.71667 12.8067 9.11333 13.38 8.36 13.76C7.60667 14.1333 6.78333 14.32 5.89 14.32ZM5.77 11.53C6.07667 11.53 6.37333 11.45 6.66 11.29C6.95333 11.13 7.19667 10.8733 7.39 10.52C7.58333 10.16 7.68 9.68667 7.68 9.1C7.68 8.18667 7.51667 7.54333 7.19 7.17C6.86333 6.79667 6.47 6.61 6.01 6.61C5.70333 6.61 5.39667 6.69 5.09 6.85C4.79 7.01 4.54 7.27333 4.34 7.64C4.14667 8 4.05 8.48667 4.05 9.1C4.05 9.98667 4.22 10.6133 4.56 10.98C4.90667 11.3467 5.31 11.53 5.77 11.53ZM18.7483 14V8.26C18.7483 7.74 18.6216 7.35667 18.3683 7.11C18.1149 6.85667 17.8083 6.73 17.4483 6.73C17.0816 6.73 16.7449 6.83333 16.4383 7.04C16.1316 7.24667 15.8849 7.58 15.6983 8.04C15.5183 8.49333 15.4283 9.09667 15.4283 9.85H14.4583C14.4583 8.43667 14.6249 7.28667 14.9583 6.4C15.2983 5.51333 15.7583 4.86333 16.3383 4.45C16.9249 4.03667 17.5883 3.83 18.3283 3.83C19.1749 3.83 19.8649 4.02 20.3983 4.4C20.9383 4.78 21.3349 5.30333 21.5883 5.97C21.8416 6.63667 21.9683 7.4 21.9683 8.26V14H18.7483ZM12.2283 14V4.15H15.0483L15.4283 5.78V14H12.2283ZM27.8394 14.32C27.0127 14.32 26.236 14.1067 25.5094 13.68C24.7827 13.2533 24.1927 12.6433 23.7394 11.85C23.2927 11.0567 23.0694 10.1167 23.0694 9.03C23.0694 7.94333 23.2927 7.01333 23.7394 6.24C24.186 5.46 24.7727 4.86333 25.4994 4.45C26.226 4.03667 27.006 3.83 27.8394 3.83C28.666 3.83 29.386 3.99667 29.9994 4.33C30.6127 4.65667 31.106 5.1 31.4794 5.66C31.8594 6.22 32.106 6.85333 32.2194 7.56C32.3394 8.26 32.316 8.98333 32.1494 9.73H25.5994V8.11H29.8094L29.3494 8.41C29.3694 8.17667 29.3594 7.94 29.3194 7.7C29.286 7.46 29.216 7.24 29.1094 7.04C29.0027 6.83333 28.8494 6.67 28.6494 6.55C28.456 6.42333 28.206 6.36 27.8994 6.36C27.5594 6.36 27.2627 6.44333 27.0094 6.61C26.7627 6.77 26.5694 7.00667 26.4294 7.32C26.296 7.62667 26.2294 8.00333 26.2294 8.45V9.71C26.2294 10.13 26.2894 10.4933 26.4094 10.8C26.5294 11.1067 26.706 11.3467 26.9394 11.52C27.1794 11.6867 27.4794 11.77 27.8394 11.77C28.1327 11.77 28.3894 11.71 28.6094 11.59C28.8294 11.47 28.9827 11.28 29.0694 11.02H32.2494C32.1494 11.6333 31.9027 12.19 31.5094 12.69C31.1227 13.19 30.616 13.5867 29.9894 13.88C29.3694 14.1733 28.6527 14.32 27.8394 14.32ZM37.2964 14.32C36.6697 14.32 36.0831 14.2067 35.5364 13.98C34.9964 13.7533 34.5597 13.4 34.2264 12.92C33.8997 12.4333 33.7364 11.81 33.7364 11.05V1.66H36.9564V10.93C36.9564 11.53 37.2531 11.83 37.8464 11.83C38.0331 11.83 38.2297 11.81 38.4364 11.77C38.6497 11.7233 38.8964 11.65 39.1764 11.55L39.6464 13.78C39.2397 13.9267 38.8497 14.0533 38.4764 14.16C38.1097 14.2667 37.7164 14.32 37.2964 14.32ZM32.5664 6.22V4.15H39.1964V6.22H32.5664ZM47.2577 14V8.26C47.2577 7.74 47.131 7.35667 46.8777 7.11C46.6243 6.85667 46.3177 6.73 45.9577 6.73C45.591 6.73 45.2543 6.83333 44.9477 7.04C44.641 7.24667 44.3943 7.58 44.2077 8.04C44.0277 8.49333 43.9377 9.09667 43.9377 9.85H42.9677C42.9677 8.43667 43.1343 7.28667 43.4677 6.4C43.8077 5.51333 44.2677 4.86333 44.8477 4.45C45.4343 4.03667 46.0977 3.83 46.8377 3.83C47.6843 3.83 48.3743 4.02 48.9077 4.4C49.4477 4.78 49.8443 5.30333 50.0977 5.97C50.351 6.63667 50.4777 7.4 50.4777 8.26V14H47.2577ZM40.7377 14V0.199999H43.9377V14H40.7377ZM56.3488 14.32C55.5221 14.32 54.7454 14.1067 54.0188 13.68C53.2921 13.2533 52.7021 12.6433 52.2488 11.85C51.8021 11.0567 51.5788 10.1167 51.5788 9.03C51.5788 7.94333 51.8021 7.01333 52.2488 6.24C52.6954 5.46 53.2821 4.86333 54.0088 4.45C54.7354 4.03667 55.5154 3.83 56.3488 3.83C57.1754 3.83 57.8954 3.99667 58.5088 4.33C59.1221 4.65667 59.6154 5.1 59.9888 5.66C60.3688 6.22 60.6154 6.85333 60.7288 7.56C60.8488 8.26 60.8254 8.98333 60.6588 9.73H54.1088V8.11H58.3188L57.8588 8.41C57.8788 8.17667 57.8688 7.94 57.8288 7.7C57.7954 7.46 57.7254 7.24 57.6188 7.04C57.5121 6.83333 57.3588 6.67 57.1588 6.55C56.9654 6.42333 56.7154 6.36 56.4088 6.36C56.0688 6.36 55.7721 6.44333 55.5188 6.61C55.2721 6.77 55.0788 7.00667 54.9388 7.32C54.8054 7.62667 54.7388 8.00333 54.7388 8.45V9.71C54.7388 10.13 54.7988 10.4933 54.9188 10.8C55.0388 11.1067 55.2154 11.3467 55.4488 11.52C55.6888 11.6867 55.9888 11.77 56.3488 11.77C56.6421 11.77 56.8988 11.71 57.1188 11.59C57.3388 11.47 57.4921 11.28 57.5788 11.02H60.7588C60.6588 11.6333 60.4121 12.19 60.0188 12.69C59.6321 13.19 59.1254 13.5867 58.4988 13.88C57.8788 14.1733 57.1621 14.32 56.3488 14.32ZM62.1658 14V4.09H65.3658V14H62.1658ZM64.6858 9.8C64.6858 8.46 64.8558 7.36 65.1958 6.5C65.5358 5.64 65.9658 5.00333 66.4858 4.59C67.0058 4.17667 67.5358 3.97 68.0758 3.97C68.1824 3.97 68.2891 3.97667 68.3958 3.99C68.5024 3.99667 68.6024 4.01 68.6958 4.03L68.7258 7.25C68.5591 7.23 68.3891 7.21667 68.2158 7.21C68.0424 7.19667 67.8791 7.19 67.7258 7.19C67.2591 7.19 66.8458 7.27667 66.4858 7.45C66.1324 7.62333 65.8558 7.9 65.6558 8.28C65.4624 8.66 65.3658 9.16667 65.3658 9.8H64.6858ZM68.1219 12.14C68.1219 11.5467 68.3185 11.0533 68.7119 10.66C69.1119 10.2667 69.6285 10.07 70.2619 10.07C70.8952 10.07 71.4185 10.2667 71.8319 10.66C72.2452 11.0533 72.4519 11.5467 72.4519 12.14C72.4519 12.7333 72.2452 13.2233 71.8319 13.61C71.4185 13.99 70.8952 14.18 70.2619 14.18C69.6285 14.18 69.1119 13.9867 68.7119 13.6C68.3185 13.2133 68.1219 12.7267 68.1219 12.14ZM5.44 31.32C4.58667 31.32 3.81 31.1 3.11 30.66C2.41667 30.2133 1.86667 29.5933 1.46 28.8C1.05333 28 0.85 27.0733 0.85 26.02C0.85 24.98 1.04333 24.0733 1.43 23.3C1.81667 22.52 2.34 21.9133 3 21.48C3.66 21.0467 4.4 20.83 5.22 20.83C5.96 20.83 6.59 21.0067 7.11 21.36C7.63 21.7067 8.02333 22.2333 8.29 22.94C8.56333 23.64 8.7 24.52 8.7 25.58H7.81C7.81 25.2067 7.72667 24.8833 7.56 24.61C7.4 24.33 7.18667 24.1133 6.92 23.96C6.65333 23.8067 6.35667 23.73 6.03 23.73C5.61 23.73 5.25 23.83 4.95 24.03C4.65667 24.23 4.43333 24.5033 4.28 24.85C4.12667 25.1967 4.05 25.5867 4.05 26.02C4.05 26.4733 4.12667 26.88 4.28 27.24C4.44 27.6 4.66667 27.8833 4.96 28.09C5.25333 28.2967 5.59667 28.4 5.99 28.4C6.30333 28.4 6.59667 28.3133 6.87 28.14C7.15 27.96 7.37667 27.7233 7.55 27.43C7.72333 27.1367 7.81 26.8167 7.81 26.47H8.7C8.7 27.5833 8.54667 28.5 8.24 29.22C7.94 29.9333 7.54 30.4633 7.04 30.81C6.54667 31.15 6.01333 31.32 5.44 31.32ZM8.44 31L7.81 28.43V17.2H11.05V31H8.44ZM15.1344 19.88C14.5277 19.88 14.0577 19.7267 13.7244 19.42C13.3977 19.1067 13.2344 18.6667 13.2344 18.1C13.2344 17.5467 13.3977 17.1067 13.7244 16.78C14.0577 16.4467 14.5277 16.28 15.1344 16.28C15.721 16.28 16.1844 16.4467 16.5244 16.78C16.8644 17.1067 17.0344 17.5467 17.0344 18.1C17.0344 18.6667 16.8644 19.1067 16.5244 19.42C16.1844 19.7267 15.721 19.88 15.1344 19.88ZM13.5344 31V21.09H16.7344V31H13.5344ZM23.3319 36.13C22.0785 36.13 21.0185 35.96 20.1519 35.62C19.2919 35.2867 18.6385 34.85 18.1919 34.31C17.7519 33.7767 17.5319 33.21 17.5319 32.61C17.5319 31.9767 17.7585 31.48 18.2119 31.12C18.6652 30.76 19.2185 30.58 19.8719 30.58L22.5019 31.33C21.9219 31.33 21.4752 31.4233 21.1619 31.61C20.8485 31.8033 20.6919 32.0767 20.6919 32.43C20.6919 32.83 20.9385 33.1233 21.4319 33.31C21.9319 33.4967 22.5652 33.59 23.3319 33.59C23.8719 33.59 24.3319 33.5033 24.7119 33.33C25.0919 33.1633 25.3785 32.9467 25.5719 32.68C25.7719 32.4133 25.8719 32.1367 25.8719 31.85C25.8719 31.6767 25.8219 31.5467 25.7219 31.46C25.6285 31.3733 25.4785 31.33 25.2719 31.33H22.5019C21.8419 31.33 21.2085 31.2167 20.6019 30.99C19.9952 30.7633 19.4985 30.4533 19.1119 30.06C18.7319 29.66 18.5419 29.21 18.5419 28.71C18.5419 28.2967 18.6552 27.9333 18.8819 27.62C19.1085 27.3067 19.4285 27.0633 19.8419 26.89C20.2619 26.7167 20.7485 26.63 21.3019 26.63L22.2219 27.62C22.0352 27.62 21.8652 27.65 21.7119 27.71C21.5652 27.77 21.4485 27.86 21.3619 27.98C21.2752 28.0933 21.2319 28.2367 21.2319 28.41C21.2319 28.6367 21.3319 28.8133 21.5319 28.94C21.7319 29.06 22.0552 29.12 22.5019 29.12H25.2719C26.4452 29.12 27.3652 29.31 28.0319 29.69C28.6985 30.0633 29.0319 30.7033 29.0319 31.61C29.0319 32.3833 28.7952 33.1133 28.3219 33.8C27.8485 34.4933 27.1852 35.0533 26.3319 35.48C25.4785 35.9133 24.4785 36.13 23.3319 36.13ZM23.2819 27.79C22.4819 27.79 21.7385 27.65 21.0519 27.37C20.3719 27.0833 19.8219 26.6833 19.4019 26.17C18.9819 25.65 18.7719 25.0367 18.7719 24.33C18.7719 23.6033 18.9819 22.98 19.4019 22.46C19.8219 21.9333 20.3719 21.53 21.0519 21.25C21.7385 20.97 22.4819 20.83 23.2819 20.83C24.0685 20.83 24.8052 20.97 25.4919 21.25C26.1785 21.53 26.7352 21.9333 27.1619 22.46C27.5885 22.98 27.8019 23.6033 27.8019 24.33C27.8019 25.0367 27.5885 25.65 27.1619 26.17C26.7352 26.6833 26.1785 27.0833 25.4919 27.37C24.8052 27.65 24.0685 27.79 23.2819 27.79ZM23.3219 25.6C23.8085 25.6 24.1519 25.4767 24.3519 25.23C24.5585 24.9833 24.6619 24.6833 24.6619 24.33C24.6619 23.9167 24.5585 23.5933 24.3519 23.36C24.1452 23.12 23.7885 23 23.2819 23C22.8219 23 22.4819 23.12 22.2619 23.36C22.0419 23.5933 21.9319 23.9167 21.9319 24.33C21.9319 24.6833 22.0419 24.9833 22.2619 25.23C22.4885 25.4767 22.8419 25.6 23.3219 25.6ZM27.0419 22.43L25.6019 21.48C25.6019 20.8733 25.7619 20.3467 26.0819 19.9C26.4019 19.4533 26.8119 19.1067 27.3119 18.86C27.8119 18.6133 28.3252 18.49 28.8519 18.49L28.7319 21.51C28.1785 21.51 27.7585 21.5867 27.4719 21.74C27.1852 21.8867 27.0419 22.1167 27.0419 22.43ZM31.9336 19.88C31.3269 19.88 30.8569 19.7267 30.5236 19.42C30.1969 19.1067 30.0336 18.6667 30.0336 18.1C30.0336 17.5467 30.1969 17.1067 30.5236 16.78C30.8569 16.4467 31.3269 16.28 31.9336 16.28C32.5203 16.28 32.9836 16.4467 33.3236 16.78C33.6636 17.1067 33.8336 17.5467 33.8336 18.1C33.8336 18.6667 33.6636 19.1067 33.3236 19.42C32.9836 19.7267 32.5203 19.88 31.9336 19.88ZM30.3336 31V21.09H33.5336V31H30.3336ZM39.6511 31.32C39.0244 31.32 38.4378 31.2067 37.8911 30.98C37.3511 30.7533 36.9144 30.4 36.5811 29.92C36.2544 29.4333 36.0911 28.81 36.0911 28.05V18.66H39.3111V27.93C39.3111 28.53 39.6078 28.83 40.2011 28.83C40.3878 28.83 40.5844 28.81 40.7911 28.77C41.0044 28.7233 41.2511 28.65 41.5311 28.55L42.0011 30.78C41.5944 30.9267 41.2044 31.0533 40.8311 31.16C40.4644 31.2667 40.0711 31.32 39.6511 31.32ZM34.9211 23.22V21.15H41.5511V23.22H34.9211ZM49.5523 31L49.1423 28.37V24.68C49.1423 24.1867 49.0523 23.8033 48.8723 23.53C48.6923 23.2567 48.309 23.12 47.7223 23.12C47.3757 23.12 47.0923 23.1733 46.8723 23.28C46.659 23.38 46.499 23.5167 46.3923 23.69C46.2923 23.8567 46.2423 24.04 46.2423 24.24H42.7823C42.7823 23.4667 42.9657 22.83 43.3323 22.33C43.699 21.8233 44.249 21.4467 44.9823 21.2C45.7157 20.9533 46.629 20.83 47.7223 20.83C48.6757 20.83 49.4957 20.9767 50.1823 21.27C50.8757 21.5633 51.409 22.0033 51.7823 22.59C52.1557 23.1767 52.3423 23.9133 52.3423 24.8V31H49.5523ZM46.4523 31.32C45.5723 31.32 44.829 31.1733 44.2223 30.88C43.6223 30.58 43.169 30.1767 42.8623 29.67C42.5557 29.1633 42.4023 28.6033 42.4023 27.99C42.4023 27.41 42.5623 26.91 42.8823 26.49C43.2023 26.0633 43.6757 25.7333 44.3023 25.5C44.9357 25.2667 45.7123 25.15 46.6323 25.15C47.1923 25.15 47.6857 25.18 48.1123 25.24C48.5457 25.3 48.989 25.3733 49.4423 25.46V27.26C49.109 27.1867 48.7623 27.13 48.4023 27.09C48.049 27.05 47.7023 27.03 47.3623 27.03C46.889 27.03 46.5123 27.1067 46.2323 27.26C45.959 27.4067 45.8223 27.65 45.8223 27.99C45.8223 28.2367 45.9457 28.4533 46.1923 28.64C46.439 28.82 46.829 28.91 47.3623 28.91C47.8157 28.91 48.1723 28.82 48.4323 28.64C48.6923 28.46 48.8757 28.2333 48.9823 27.96C49.089 27.6867 49.1423 27.4167 49.1423 27.15H49.8923C49.8923 27.91 49.7723 28.6067 49.5323 29.24C49.2923 29.8733 48.919 30.38 48.4123 30.76C47.9057 31.1333 47.2523 31.32 46.4523 31.32ZM54.3142 31V17.2H57.5142V31H54.3142Z" fill="white"/>
</svg>
