<svg width="36" height="36" viewBox="0 0 36 36" fill="none" xmlns="http://www.w3.org/2000/svg">
<g filter="url(#filter0_i_324_443)">
<path d="M29.7995 30.0581C28.2013 31.767 25.1446 33.5644 22.5363 34.3285C10.9683 37.7178 -0.45434 27.7788 1.15163 15.7217C1.64752 11.998 1.58532 11.9919 6.39749 16.2412L10.6773 20.0205L9.01282 22.4212L7.34837 24.8219L8.25462 25.8817C13.2578 31.7314 21.8751 31.9661 27.0182 26.3924L28.7976 24.4645L30.4435 25.9177C32.2972 27.5543 32.3283 27.3546 29.7995 30.0581Z" fill="url(#paint0_linear_324_443)"/>
<path d="M4.69147 7.29627C15.3965 -6.78483 38.8959 4.79347 34.4461 21.9563C33.9894 23.7174 31.9315 22.3785 25.9744 16.4437L25.2098 15.6823L26.7519 13.556C28.5522 11.0735 28.5265 10.7554 26.3625 8.75419C21.2275 4.00532 13.4697 4.37939 8.70894 9.60541L7.02082 11.4584L5.39592 9.98253L3.77102 8.50663L4.69147 7.29627Z" fill="url(#paint1_linear_324_443)"/>
</g>
<path d="M28.6139 24.2949L28.7798 24.1152L28.9631 24.2771L30.609 25.7303C30.688 25.8 30.7644 25.8671 30.8381 25.9316C31.1866 26.2373 31.4718 26.4873 31.6679 26.7094C31.912 26.9857 32.0671 27.2718 32.012 27.6262C31.9619 27.9482 31.7422 28.2753 31.4194 28.6612C31.1478 28.9859 30.7741 29.3843 30.2995 29.8903C30.1983 29.9981 30.0925 30.1109 29.9821 30.2289C28.3487 31.9754 25.2508 33.7938 22.6066 34.5684C10.861 38.0097 -0.725464 27.9208 0.903821 15.6887C0.910334 15.6398 0.916759 15.5914 0.923111 15.5436C1.03614 14.6931 1.12577 14.0186 1.26459 13.5617C1.33798 13.3201 1.43443 13.1051 1.58184 12.9544C1.74287 12.7898 1.94723 12.7197 2.1806 12.7428C2.39668 12.7642 2.62993 12.8643 2.88077 13.0123C3.13537 13.1626 3.43013 13.3758 3.77288 13.6479C4.42537 14.166 5.27698 14.9181 6.39352 15.9042C6.44934 15.9535 6.50582 16.0033 6.56297 16.0538L10.8428 19.8331L11.0094 19.9803L10.8827 20.1629L9.21827 22.5637L7.66366 24.806L8.44461 25.7192C13.3532 31.4583 21.7958 31.6834 26.8345 26.2229L26.8345 26.2229L28.6139 24.2949ZM3.60293 8.69169L3.43335 8.53765L3.57202 8.3553L4.49245 7.14497C4.49246 7.14496 4.49247 7.14495 4.49247 7.14494C9.93275 -0.0110245 18.6227 -0.635052 25.3623 2.68555C32.1017 6.00606 36.9489 13.2991 34.6881 22.019C34.6251 22.2618 34.5284 22.4769 34.3786 22.6385C34.2231 22.806 34.0234 22.9019 33.7883 22.9216C33.3467 22.9587 32.7972 22.7254 32.1365 22.2955C30.795 21.4225 28.7733 19.585 25.798 16.6208C25.798 16.6208 25.798 16.6208 25.798 16.6208L25.0334 15.8595L24.8819 15.7086L25.0074 15.5356L26.5495 13.4092C27.0006 12.7872 27.3263 12.3153 27.5339 11.9229C27.7406 11.532 27.8151 11.2469 27.7946 10.9948C27.7743 10.7443 27.657 10.4859 27.3938 10.1553C27.1288 9.82229 26.735 9.43923 26.1927 8.93773L26.3625 8.75419L26.1927 8.93773C21.1615 4.28483 13.5628 4.64847 8.89375 9.77377L7.20563 11.6268L7.03752 11.8113L6.85273 11.6435L5.22783 10.1676L3.60293 8.69169Z" stroke="#FDF19B" stroke-width="0.5"/>
<defs>
<filter id="filter0_i_324_443" x="0.5" y="0.500854" width="35.001" height="50.9999" filterUnits="userSpaceOnUse" color-interpolation-filters="sRGB">
<feFlood flood-opacity="0" result="BackgroundImageFix"/>
<feBlend mode="normal" in="SourceGraphic" in2="BackgroundImageFix" result="shape"/>
<feColorMatrix in="SourceAlpha" type="matrix" values="0 0 0 0 0 0 0 0 0 0 0 0 0 0 0 0 0 0 127 0" result="hardAlpha"/>
<feOffset dy="16"/>
<feGaussianBlur stdDeviation="10"/>
<feComposite in2="hardAlpha" operator="arithmetic" k2="-1" k3="1"/>
<feColorMatrix type="matrix" values="0 0 0 0 0 0 0 0 0 0 0 0 0 0 0 0 0 0 0.1 0"/>
<feBlend mode="normal" in2="shape" result="effect1_innerShadow_324_443"/>
</filter>
<linearGradient id="paint0_linear_324_443" x1="18" y1="35" x2="18" y2="1" gradientUnits="userSpaceOnUse">
<stop stop-color="#00FFD1"/>
<stop offset="0.505208" stop-color="#906BF8"/>
<stop offset="1" stop-color="#F797FF"/>
</linearGradient>
<linearGradient id="paint1_linear_324_443" x1="18" y1="35" x2="18" y2="1" gradientUnits="userSpaceOnUse">
<stop stop-color="#00FFD1"/>
<stop offset="0.505208" stop-color="#906BF8"/>
<stop offset="1" stop-color="#F797FF"/>
</linearGradient>
</defs>
</svg>
