<svg width="595" height="370" viewBox="0 0 595 370" fill="none" xmlns="http://www.w3.org/2000/svg">
<path opacity="0.010101" d="M592.4 239.751C592.4 257.223 584.162 273.877 569.246 289.034C554.33 304.19 532.742 317.845 506.057 329.314C452.688 352.252 378.952 366.442 297.5 366.442C216.048 366.442 142.312 352.252 88.943 329.314C62.2582 317.845 40.6697 304.19 25.7538 289.034C10.8384 273.877 2.6 257.223 2.6 239.751C2.6 222.278 10.8384 205.625 25.7538 190.468C40.6697 175.311 62.2582 161.657 88.943 150.188C142.312 127.249 216.048 113.059 297.5 113.059C378.952 113.059 452.688 127.249 506.057 150.188C532.742 161.657 554.33 175.311 569.246 190.468C584.162 205.625 592.4 222.278 592.4 239.751Z" stroke="#FDF19B" stroke-width="0.2"/>
<path opacity="0.020202" d="M589.9 237.446C589.9 254.759 581.732 271.261 566.943 286.28C552.153 301.299 530.748 314.829 504.289 326.194C451.372 348.923 378.261 362.984 297.5 362.984C216.739 362.984 143.628 348.923 90.7107 326.194C64.2521 314.829 42.8467 301.299 28.0574 286.28C13.2685 271.261 5.1 254.759 5.1 237.446C5.1 220.132 13.2685 203.63 28.0574 188.612C42.8467 173.593 64.2521 160.063 90.7107 148.698C143.628 125.968 216.739 111.907 297.5 111.907C378.261 111.907 451.372 125.968 504.289 148.698C530.748 160.063 552.153 173.593 566.943 188.612C581.732 203.63 589.9 220.132 589.9 237.446Z" stroke="#FDF19B" stroke-width="0.2"/>
<path opacity="0.030303" d="M587.4 235.14C587.4 252.294 579.302 268.645 564.639 283.526C549.976 298.407 528.754 311.813 502.522 323.073C450.057 345.594 377.571 359.526 297.5 359.526C217.429 359.526 144.943 345.594 92.4785 323.073C66.2461 311.813 45.0237 298.407 30.3609 283.526C15.6985 268.645 7.6 252.294 7.6 235.14C7.6 217.986 15.6985 201.636 30.3609 186.755C45.0237 171.874 66.2461 158.468 92.4785 147.207C144.943 124.686 217.429 110.754 297.5 110.754C377.571 110.754 450.057 124.686 502.522 147.207C528.754 158.468 549.976 171.874 564.639 186.755C579.302 201.636 587.4 217.986 587.4 235.14Z" stroke="#FDF19B" stroke-width="0.2"/>
<path opacity="0.040404" d="M584.9 232.835C584.9 249.83 576.872 266.029 562.336 280.771C547.799 295.515 526.76 308.796 500.754 319.953C448.742 342.265 376.881 356.068 297.5 356.068C218.119 356.068 146.258 342.265 94.2462 319.953C68.24 308.796 47.2007 295.515 32.6644 280.771C18.1285 266.029 10.1 249.83 10.1 232.835C10.1 215.84 18.1285 199.641 32.6644 184.898C47.2007 170.155 68.24 156.873 94.2462 145.717C146.258 123.404 218.119 109.601 297.5 109.601C376.881 109.601 448.742 123.404 500.754 145.717C526.76 156.873 547.799 170.155 562.336 184.898C576.872 199.641 584.9 215.84 584.9 232.835Z" stroke="#FDF19B" stroke-width="0.2"/>
<path opacity="0.050505" d="M582.4 230.529C582.4 247.365 574.441 263.412 560.032 278.017C545.622 292.623 524.766 305.78 498.986 316.832C447.426 338.936 376.19 352.61 297.5 352.61C218.81 352.61 147.574 338.936 96.014 316.832C70.234 305.78 49.3777 292.623 34.9679 278.017C20.5585 263.412 12.6 247.365 12.6 230.529C12.6 213.693 20.5585 197.646 34.9679 183.041C49.3777 168.436 70.234 155.278 96.014 144.226C147.574 122.123 218.81 108.449 297.5 108.449C376.19 108.449 447.426 122.123 498.986 144.226C524.766 155.278 545.622 168.436 560.032 183.041C574.441 197.646 582.4 213.693 582.4 230.529Z" stroke="#FDF19B" stroke-width="0.2"/>
<path opacity="0.0606061" d="M579.9 228.224C579.9 244.901 572.011 260.797 557.729 275.264C543.445 289.731 522.772 302.764 497.218 313.712C446.111 335.607 375.5 349.152 297.5 349.152C219.5 349.152 148.889 335.607 97.7817 313.712C72.2279 302.764 51.5547 289.731 37.2714 275.264C22.9885 260.797 15.1 244.901 15.1 228.224C15.1 211.548 22.9885 195.652 37.2714 181.185C51.5547 166.718 72.2279 153.684 97.7817 142.736C148.889 120.841 219.5 107.296 297.5 107.296C375.5 107.296 446.111 120.841 497.218 142.736C522.772 153.684 543.445 166.718 557.729 181.185C572.011 195.652 579.9 211.548 579.9 228.224Z" stroke="#FDF19B" stroke-width="0.2"/>
<path opacity="0.0707071" d="M577.4 225.919C577.4 242.436 569.581 258.18 555.425 272.509C541.268 286.839 520.778 299.748 495.451 310.592C444.796 332.278 374.81 345.694 297.5 345.694C220.19 345.694 150.204 332.278 99.5495 310.592C74.2218 299.748 53.7317 286.839 39.5749 272.509C25.4186 258.18 17.6 242.436 17.6 225.919C17.6 209.401 25.4186 193.657 39.5749 179.328C53.7317 164.999 74.2218 152.089 99.5495 141.246C150.204 119.559 220.19 106.143 297.5 106.143C374.81 106.143 444.796 119.559 495.451 141.246C520.778 152.089 541.268 164.999 555.425 179.328C569.581 193.657 577.4 209.401 577.4 225.919Z" stroke="#FDF19B" stroke-width="0.2"/>
<path opacity="0.0808081" d="M574.9 223.613C574.9 239.972 567.151 255.564 553.122 269.755C539.091 283.947 518.784 296.732 493.683 307.471C443.48 328.949 374.119 342.236 297.5 342.236C220.881 342.236 151.52 328.949 101.317 307.471C76.2158 296.732 55.9087 283.947 41.8784 269.755C27.8486 255.564 20.1 239.972 20.1 223.613C20.1 207.255 27.8486 191.663 41.8784 177.471C55.9087 163.28 76.2158 150.495 101.317 139.756C151.52 118.278 220.881 104.991 297.5 104.991C374.119 104.991 443.48 118.278 493.683 139.756C518.784 150.495 539.091 163.28 553.122 177.471C567.151 191.663 574.9 207.255 574.9 223.613Z" stroke="#FDF19B" stroke-width="0.2"/>
<path opacity="0.0909091" d="M572.4 221.308C572.4 237.508 564.721 252.948 550.818 267.002C536.914 281.055 516.79 293.716 491.915 304.351C442.165 325.621 373.429 338.778 297.5 338.778C221.571 338.778 152.835 325.621 103.085 304.351C78.2097 293.716 58.0857 281.055 44.182 267.002C30.2786 252.948 22.6 237.508 22.6 221.308C22.6 205.109 30.2786 189.668 44.182 175.615C58.0857 161.561 78.2097 148.901 103.085 138.266C152.835 116.996 221.571 103.838 297.5 103.838C373.429 103.838 442.165 116.996 491.915 138.266C516.79 148.901 536.914 161.561 550.818 175.615C564.721 189.668 572.4 205.109 572.4 221.308Z" stroke="#FDF19B" stroke-width="0.2"/>
<path opacity="0.10101" d="M569.9 219.003C569.9 235.043 562.291 250.333 548.515 264.248C534.737 278.164 514.796 290.7 490.147 301.231C440.85 322.292 372.739 335.321 297.5 335.321C222.261 335.321 154.15 322.292 104.853 301.231C80.2037 290.7 60.2627 278.164 46.4855 264.248C32.7086 250.333 25.1 235.043 25.1 219.003C25.1 202.963 32.7086 187.674 46.4855 173.759C60.2627 159.843 80.2037 147.306 104.853 136.776C154.15 115.715 222.261 102.686 297.5 102.686C372.739 102.686 440.85 115.715 490.147 136.776C514.796 147.306 534.737 159.843 548.515 173.759C562.291 187.674 569.9 202.963 569.9 219.003Z" stroke="#FDF19B" stroke-width="0.2"/>
<path opacity="0.111111" d="M567.4 216.697C567.4 232.578 559.861 247.716 546.211 261.493C532.56 275.271 512.802 287.684 488.38 298.11C439.534 318.962 372.048 331.862 297.5 331.862C222.952 331.862 155.466 318.962 106.62 298.11C82.1976 287.684 62.4397 275.271 48.789 261.493C35.1387 247.716 27.6 232.578 27.6 216.697C27.6 200.817 35.1387 185.679 48.789 171.902C62.4397 158.124 82.1976 145.711 106.62 135.285C155.466 114.433 222.952 101.533 297.5 101.533C372.048 101.533 439.534 114.433 488.38 135.285C512.802 145.711 532.56 158.124 546.211 171.902C559.861 185.679 567.4 200.817 567.4 216.697Z" stroke="#FDF19B" stroke-width="0.2"/>
<path opacity="0.121212" d="M564.9 214.392C564.9 230.114 557.431 245.1 543.908 258.74C530.383 272.38 510.808 284.668 486.612 294.99C438.219 315.634 371.358 328.405 297.5 328.405C223.642 328.405 156.781 315.634 108.388 294.99C84.1916 284.668 64.6167 272.38 51.0925 258.74C37.5687 245.1 30.1 230.114 30.1 214.392C30.1 198.671 37.5687 183.685 51.0925 170.045C64.6167 156.405 84.1916 144.117 108.388 133.795C156.781 113.151 223.642 100.38 297.5 100.38C371.358 100.38 438.219 113.151 486.612 133.795C510.808 144.117 530.383 156.405 543.908 170.045C557.431 183.685 564.9 198.671 564.9 214.392Z" stroke="#FDF19B" stroke-width="0.2"/>
<path opacity="0.131313" d="M562.4 212.087C562.4 227.65 555.001 242.484 541.604 255.986C528.206 269.488 508.814 281.652 484.844 291.87C436.904 312.305 370.668 324.947 297.5 324.947C224.332 324.947 158.096 312.305 110.156 291.87C86.1855 281.652 66.7937 269.488 53.396 255.986C39.9987 242.484 32.6 227.65 32.6 212.087C32.6 196.525 39.9987 181.691 53.396 168.189C66.7937 154.687 86.1855 142.523 110.156 132.305C158.096 111.87 224.332 99.2279 297.5 99.2279C370.668 99.2279 436.904 111.87 484.844 132.305C508.814 142.523 528.206 154.687 541.604 168.189C555.001 181.691 562.4 196.525 562.4 212.087Z" stroke="#FDF19B" stroke-width="0.2"/>
<path opacity="0.141414" d="M559.9 209.782C559.9 225.185 552.571 239.868 539.301 253.232C526.029 266.596 506.821 278.636 483.076 288.749C435.588 308.976 369.977 321.489 297.5 321.489C225.023 321.489 159.412 308.976 111.924 288.749C88.1795 278.636 68.9707 266.596 55.6995 253.232C42.4287 239.868 35.1 225.185 35.1 209.782C35.1 194.379 42.4287 179.696 55.6995 166.332C68.9707 152.968 88.1795 140.928 111.924 130.815C159.412 110.588 225.023 98.0751 297.5 98.0751C369.977 98.0751 435.588 110.588 483.076 130.815C506.821 140.928 526.029 152.968 539.301 166.332C552.571 179.696 559.9 194.379 559.9 209.782Z" stroke="#FDF19B" stroke-width="0.2"/>
<path opacity="0.151515" d="M557.4 207.476C557.4 222.721 550.141 237.252 536.997 250.478C523.852 263.704 504.827 275.62 481.309 285.629C434.273 305.647 369.287 318.031 297.5 318.031C225.713 318.031 160.727 305.647 113.691 285.629C90.1734 275.62 71.1477 263.704 58.003 250.478C44.8587 237.252 37.6 222.721 37.6 207.476C37.6 192.232 44.8587 177.701 58.003 164.475C71.1477 151.249 90.1734 139.333 113.691 129.324C160.727 109.306 225.713 96.9223 297.5 96.9223C369.287 96.9223 434.273 109.306 481.309 129.324C504.827 139.333 523.852 151.249 536.997 164.475C550.141 177.701 557.4 192.232 557.4 207.476Z" stroke="#FDF19B" stroke-width="0.2"/>
<path opacity="0.161616" d="M554.9 205.171C554.9 220.256 547.711 234.636 534.693 247.724C521.675 260.812 502.833 272.604 479.541 282.509C432.958 302.318 368.597 314.573 297.5 314.573C226.403 314.573 162.042 302.318 115.459 282.509C92.1673 272.604 73.3247 260.812 60.3065 247.724C47.2887 234.636 40.1 220.256 40.1 205.171C40.1 190.087 47.2887 175.707 60.3065 162.619C73.3247 149.531 92.1673 137.739 115.459 127.834C162.042 108.025 226.403 95.7699 297.5 95.7699C368.597 95.7699 432.958 108.025 479.541 127.834C502.833 137.739 521.675 149.531 534.693 162.619C547.711 175.707 554.9 190.087 554.9 205.171Z" stroke="#FDF19B" stroke-width="0.2"/>
<path opacity="0.171717" d="M552.4 202.866C552.4 217.792 545.281 232.02 532.39 244.97C519.498 257.92 500.839 269.588 477.773 279.388C431.642 298.989 367.906 311.115 297.5 311.115C227.094 311.115 163.358 298.989 117.227 279.388C94.1613 269.588 75.5017 257.92 62.61 244.97C49.7188 232.02 42.6 217.792 42.6 202.866C42.6 187.94 49.7188 173.712 62.61 160.762C75.5017 147.812 94.1613 136.144 117.227 126.344C163.358 106.743 227.094 94.6171 297.5 94.6171C367.906 94.6171 431.642 106.743 477.773 126.344C500.839 136.144 519.498 147.812 532.39 160.762C545.281 173.712 552.4 187.94 552.4 202.866Z" stroke="#FDF19B" stroke-width="0.2"/>
<path opacity="0.181818" d="M549.9 200.561C549.9 215.328 542.851 229.404 530.086 242.216C517.321 255.029 498.845 266.572 476.005 276.268C430.327 295.66 367.216 307.657 297.5 307.657C227.784 307.657 164.673 295.66 118.995 276.268C96.1552 266.572 77.6787 255.029 64.9135 242.216C52.1488 229.404 45.1 215.328 45.1 200.561C45.1 185.794 52.1488 171.718 64.9135 158.906C77.6787 146.093 96.1552 134.55 118.995 124.854C164.673 105.462 227.784 93.4647 297.5 93.4647C367.216 93.4647 430.327 105.462 476.005 124.854C498.845 134.55 517.321 146.093 530.086 158.906C542.851 171.718 549.9 185.794 549.9 200.561Z" stroke="#FDF19B" stroke-width="0.2"/>
<path opacity="0.191919" d="M547.4 198.256C547.4 212.863 540.421 226.787 527.783 239.462C515.144 252.137 496.851 263.556 474.238 273.148C429.012 292.331 366.525 304.199 297.5 304.199C228.475 304.199 165.988 292.331 120.762 273.148C98.1491 263.556 79.8557 252.137 67.2171 239.462C54.5788 226.787 47.6 212.863 47.6 198.256C47.6 183.648 54.5788 169.724 67.2171 157.049C79.8557 144.374 98.1491 132.955 120.762 123.363C165.988 104.18 228.475 92.3119 297.5 92.3119C366.525 92.3119 429.012 104.18 474.238 123.363C496.851 132.955 515.144 144.374 527.783 157.049C540.421 169.724 547.4 183.648 547.4 198.256Z" stroke="#FDF19B" stroke-width="0.2"/>
<path opacity="0.20202" d="M544.9 195.95C544.9 210.398 537.991 224.171 525.479 236.708C512.967 249.245 494.857 260.539 472.47 270.027C427.696 289.002 365.835 300.741 297.5 300.741C229.165 300.741 167.304 289.002 122.53 270.027C100.143 260.539 82.0327 249.245 69.5206 236.708C57.0088 224.171 50.1 210.398 50.1 195.95C50.1 181.502 57.0088 167.729 69.5206 155.192C82.0327 142.655 100.143 131.361 122.53 121.873C167.304 102.898 229.165 91.1591 297.5 91.1591C365.835 91.1591 427.696 102.898 472.47 121.873C494.857 131.361 512.967 142.655 525.479 155.192C537.991 167.729 544.9 181.502 544.9 195.95Z" stroke="#FDF19B" stroke-width="0.2"/>
<path opacity="0.212121" d="M542.4 193.645C542.4 207.934 535.561 221.555 523.176 233.954C510.79 246.353 492.863 257.524 470.702 266.907C426.381 285.674 365.145 297.283 297.5 297.283C229.855 297.283 168.619 285.674 124.298 266.907C102.137 257.524 84.2097 246.353 71.8241 233.954C59.4388 221.555 52.6 207.934 52.6 193.645C52.6 179.356 59.4388 165.735 71.8241 153.336C84.2097 140.937 102.137 129.766 124.298 120.383C168.619 101.617 229.855 90.0067 297.5 90.0067C365.145 90.0067 426.381 101.617 470.702 120.383C492.863 129.766 510.79 140.937 523.176 153.336C535.561 165.735 542.4 179.356 542.4 193.645Z" stroke="#FDF19B" stroke-width="0.2"/>
<path opacity="0.222222" d="M539.9 191.34C539.9 205.469 533.131 218.939 520.872 231.2C508.613 243.461 490.869 254.507 468.934 263.786C425.066 282.344 364.454 293.825 297.5 293.825C230.546 293.825 169.934 282.344 126.066 263.786C104.131 254.507 86.3867 243.461 74.1276 231.2C61.8688 218.939 55.1 205.469 55.1 191.34C55.1 177.21 61.8688 163.74 74.1276 151.479C86.3867 139.218 104.131 128.172 126.066 118.893C169.934 100.335 230.546 88.8539 297.5 88.8539C364.454 88.8539 425.066 100.335 468.934 118.893C490.869 128.172 508.613 139.218 520.872 151.479C533.131 163.74 539.9 177.21 539.9 191.34Z" stroke="#FDF19B" stroke-width="0.2"/>
<path opacity="0.232323" d="M537.4 189.034C537.4 203.005 530.701 216.323 518.569 228.446C506.436 240.569 488.875 251.491 467.167 260.666C423.75 279.015 363.764 290.367 297.5 290.367C231.236 290.367 171.25 279.015 127.833 260.666C106.125 251.491 88.5637 240.569 76.4311 228.446C64.2988 216.323 57.6 203.005 57.6 189.034C57.6 175.063 64.2988 161.745 76.4311 149.623C88.5637 137.499 106.125 126.577 127.833 117.402C171.25 99.0528 231.236 87.7011 297.5 87.7011C363.764 87.7011 423.75 99.0528 467.167 117.402C488.875 126.577 506.436 137.499 518.569 149.623C530.701 161.745 537.4 175.063 537.4 189.034Z" stroke="#FDF19B" stroke-width="0.2"/>
<path opacity="0.242424" d="M534.9 186.729C534.9 200.54 528.271 213.707 516.265 225.691C504.259 237.677 486.881 248.475 465.399 257.545C422.435 275.686 363.074 286.909 297.5 286.909C231.926 286.909 172.565 275.686 129.601 257.545C108.119 248.475 90.7407 237.677 78.7346 225.691C66.7289 213.707 60.1 200.54 60.1 186.729C60.1 172.917 66.7289 159.751 78.7346 147.766C90.7407 135.78 108.119 124.982 129.601 115.912C172.565 97.771 231.926 86.5482 297.5 86.5482C363.074 86.5482 422.435 97.771 465.399 115.912C486.881 124.982 504.259 135.78 516.265 147.766C528.271 159.751 534.9 172.917 534.9 186.729Z" stroke="#FDF19B" stroke-width="0.2"/>
<path opacity="0.252525" d="M532.4 184.424C532.4 198.076 525.841 211.091 513.962 222.938C502.082 234.785 484.887 245.459 463.631 254.425C421.12 272.358 362.383 283.451 297.5 283.451C232.617 283.451 173.88 272.358 131.369 254.425C110.113 245.459 92.9177 234.785 81.0381 222.938C69.1589 211.091 62.6 198.076 62.6 184.424C62.6 170.771 69.1589 157.757 81.0381 145.909C92.9177 134.062 110.113 123.388 131.369 114.422C173.88 96.4896 232.617 85.3959 297.5 85.3959C362.383 85.3959 421.12 96.4896 463.631 114.422C484.887 123.388 502.082 134.062 513.962 145.909C525.841 157.757 532.4 170.771 532.4 184.424Z" stroke="#FDF19B" stroke-width="0.2"/>
<path opacity="0.262626" d="M529.9 182.119C529.9 195.612 523.411 208.475 511.658 220.184C499.905 231.894 482.893 242.443 461.863 251.305C419.804 269.029 361.693 279.994 297.5 279.994C233.307 279.994 175.196 269.029 133.137 251.305C112.107 242.443 95.0947 231.894 83.3416 220.184C71.5889 208.475 65.1 195.612 65.1 182.119C65.1 168.626 71.5889 155.762 83.3416 144.053C95.0947 132.344 112.107 121.794 133.137 112.932C175.196 95.2083 233.307 84.2436 297.5 84.2436C361.693 84.2436 419.804 95.2083 461.863 112.932C482.893 121.794 499.905 132.344 511.658 144.053C523.411 155.762 529.9 168.626 529.9 182.119Z" stroke="#FDF19B" stroke-width="0.2"/>
<path opacity="0.272727" d="M527.4 179.813C527.4 193.147 520.981 205.859 509.355 217.43C497.728 229.002 480.899 239.427 460.096 248.185C418.489 265.7 361.003 276.536 297.5 276.536C233.997 276.536 176.511 265.7 134.904 248.185C114.101 239.427 97.2717 229.002 85.6451 217.43C74.0189 205.859 67.6 193.147 67.6 179.813C67.6 166.479 74.0189 153.768 85.6451 142.196C97.2717 130.625 114.101 120.199 134.904 111.442C176.511 93.9264 233.997 83.0907 297.5 83.0907C361.003 83.0907 418.489 93.9264 460.096 111.442C480.899 120.199 497.728 130.625 509.355 142.196C520.981 153.768 527.4 166.479 527.4 179.813Z" stroke="#FDF19B" stroke-width="0.2"/>
<path opacity="0.282828" d="M524.9 177.508C524.9 190.682 518.551 203.242 507.051 214.676C495.551 226.11 478.905 236.411 458.328 245.064C417.174 262.371 360.312 273.077 297.5 273.077C234.688 273.077 177.826 262.371 136.672 245.064C116.095 236.411 99.4486 226.11 87.9486 214.676C76.4489 203.242 70.1 190.682 70.1 177.508C70.1 164.333 76.4489 151.773 87.9486 140.34C99.4486 128.906 116.095 118.604 136.672 109.951C177.826 92.6446 234.688 81.9379 297.5 81.9379C360.312 81.9379 417.174 92.6446 458.328 109.951C478.905 118.604 495.551 128.906 507.051 140.34C518.551 151.773 524.9 164.333 524.9 177.508Z" stroke="#FDF19B" stroke-width="0.2"/>
<path opacity="0.292929" d="M522.4 175.203C522.4 188.218 516.121 200.627 504.748 211.922C493.374 223.218 476.911 233.395 456.56 241.944C415.858 259.042 359.622 269.62 297.5 269.62C235.378 269.62 179.142 259.042 138.44 241.944C118.088 233.395 101.626 223.218 90.2521 211.922C78.8789 200.627 72.6 188.218 72.6 175.203C72.6 162.187 78.8789 149.779 90.2521 138.483C101.626 127.187 118.088 117.01 138.44 108.461C179.142 91.3632 235.378 80.7855 297.5 80.7855C359.622 80.7855 415.858 91.3632 456.56 108.461C476.911 117.01 493.374 127.187 504.748 138.483C516.121 149.779 522.4 162.187 522.4 175.203Z" stroke="#FDF19B" stroke-width="0.2"/>
<path opacity="0.30303" d="M519.9 172.897C519.9 185.754 513.691 198.01 502.444 209.168C491.197 220.326 474.918 230.379 454.793 238.824C414.543 255.713 358.932 266.162 297.5 266.162C236.068 266.162 180.457 255.713 140.207 238.824C120.082 230.379 103.803 220.326 92.5556 209.168C81.3089 198.01 75.1 185.754 75.1 172.897C75.1 160.041 81.3089 147.784 92.5556 136.627C103.803 125.469 120.082 115.416 140.207 106.971C180.457 90.0814 236.068 79.6327 297.5 79.6327C358.932 79.6327 414.543 90.0814 454.793 106.971C474.918 115.416 491.197 125.469 502.444 136.627C513.691 147.784 519.9 160.041 519.9 172.897Z" stroke="#FDF19B" stroke-width="0.2"/>
<path opacity="0.313131" d="M517.4 170.592C517.4 183.289 511.261 195.394 500.141 206.414C489.02 217.434 472.924 227.363 453.025 235.704C413.228 252.384 358.241 262.704 297.5 262.704C236.759 262.704 181.772 252.384 141.975 235.704C122.076 227.363 105.98 217.434 94.8591 206.414C83.7389 195.394 77.6 183.289 77.6 170.592C77.6 157.895 83.7389 145.79 94.8591 134.77C105.98 123.75 122.076 113.821 141.975 105.481C181.772 88.8 236.759 78.4804 297.5 78.4804C358.241 78.4804 413.228 88.8 453.025 105.481C472.924 113.821 489.02 123.75 500.141 134.77C511.261 145.79 517.4 157.895 517.4 170.592Z" stroke="#FDF19B" stroke-width="0.2"/>
<path opacity="0.323232" d="M514.9 168.287C514.9 180.825 508.831 192.778 497.837 203.66C486.843 214.542 470.93 224.347 451.257 232.583C411.912 249.055 357.551 259.246 297.5 259.246C237.449 259.246 183.088 249.055 143.743 232.583C124.07 224.347 108.157 214.542 97.1626 203.66C86.1689 192.778 80.1 180.825 80.1 168.287C80.1 155.749 86.1689 143.795 97.1626 132.913C108.157 122.031 124.07 112.227 143.743 103.99C183.088 87.5182 237.449 77.3275 297.5 77.3275C357.551 77.3275 411.912 87.5182 451.257 103.99C470.93 112.227 486.843 122.031 497.837 132.913C508.831 143.795 514.9 155.749 514.9 168.287Z" stroke="#FDF19B" stroke-width="0.2"/>
<path opacity="0.333333" d="M512.4 165.981C512.4 178.36 506.401 190.162 495.534 200.906C484.666 211.65 468.936 221.331 449.489 229.463C410.597 245.726 356.861 255.788 297.5 255.788C238.139 255.788 184.403 245.726 145.511 229.463C126.064 221.331 110.334 211.65 99.4661 200.906C88.5989 190.162 82.6 178.36 82.6 165.981C82.6 153.602 88.5989 141.801 99.4661 131.057C110.334 120.312 126.064 110.632 145.511 102.5C184.403 86.2363 238.139 76.1747 297.5 76.1747C356.861 76.1747 410.597 86.2363 449.489 102.5C468.936 110.632 484.666 120.312 495.534 131.057C506.401 141.801 512.4 153.602 512.4 165.981Z" stroke="#FDF19B" stroke-width="0.2"/>
<path opacity="0.343434" d="M509.9 163.676C509.9 175.896 503.971 187.546 493.23 198.152C482.489 208.759 466.942 218.315 447.722 226.342C409.282 242.398 356.17 252.33 297.5 252.33C238.83 252.33 185.718 242.398 147.278 226.342C128.058 218.315 112.511 208.759 101.77 198.152C91.0289 187.546 85.1 175.896 85.1 163.676C85.1 151.457 91.0289 139.806 101.77 129.2C112.511 118.594 128.058 109.038 147.278 101.01C185.718 84.955 238.83 75.0224 297.5 75.0224C356.17 75.0224 409.282 84.955 447.722 101.01C466.942 109.038 482.489 118.594 493.23 129.2C503.971 139.806 509.9 151.457 509.9 163.676Z" stroke="#FDF19B" stroke-width="0.2"/>
<path opacity="0.353535" d="M507.4 161.371C507.4 173.431 501.541 184.93 490.927 195.398C480.312 205.866 464.948 215.299 445.954 223.222C407.966 239.068 355.48 248.872 297.5 248.872C239.52 248.872 187.034 239.068 149.046 223.222C130.052 215.299 114.688 205.866 104.073 195.398C93.4589 184.93 87.6 173.431 87.6 161.371C87.6 149.31 93.4589 137.812 104.073 127.344C114.688 116.875 130.052 107.443 149.046 99.5196C187.034 83.6731 239.52 73.8695 297.5 73.8695C355.48 73.8695 407.966 83.6731 445.954 99.5196C464.948 107.443 480.312 116.875 490.927 127.344C501.541 137.812 507.4 149.31 507.4 161.371Z" stroke="#FDF19B" stroke-width="0.2"/>
<path opacity="0.363636" d="M504.9 159.065C504.9 170.967 499.111 182.313 488.623 192.644C478.135 202.974 462.954 212.282 444.186 220.101C406.651 235.739 354.79 245.414 297.5 245.414C240.21 245.414 188.349 235.739 150.814 220.101C132.046 212.282 116.865 202.974 106.377 192.644C95.8889 182.313 90.1 170.967 90.1 159.065C90.1 147.164 95.8889 135.817 106.377 125.487C116.865 115.156 132.046 105.848 150.814 98.0292C188.349 82.3913 240.21 72.7167 297.5 72.7167C354.79 72.7167 406.651 82.3913 444.186 98.0292C462.954 105.848 478.135 115.156 488.623 125.487C499.111 135.817 504.9 147.164 504.9 159.065Z" stroke="#FDF19B" stroke-width="0.2"/>
<path opacity="0.373737" d="M502.4 156.76C502.4 168.502 496.681 179.697 486.32 189.89C475.958 200.082 460.96 209.266 442.418 216.981C405.336 232.41 354.099 241.956 297.5 241.956C240.901 241.956 189.664 232.41 152.582 216.981C134.04 209.266 119.042 200.082 108.68 189.89C98.3189 179.697 92.6 168.502 92.6 156.76C92.6 145.018 98.3189 133.822 108.68 123.63C119.042 113.437 134.04 104.254 152.582 96.5388C189.664 81.1095 240.901 71.5639 297.5 71.5639C354.099 71.5639 405.336 81.1095 442.418 96.5388C460.96 104.254 475.958 113.437 486.32 123.63C496.681 133.822 502.4 145.018 502.4 156.76Z" stroke="#FDF19B" stroke-width="0.2"/>
<path opacity="0.383838" d="M499.9 154.455C499.9 166.038 494.251 177.081 484.016 187.136C473.782 197.191 458.966 206.25 440.651 213.861C404.02 229.082 353.409 238.498 297.5 238.498C241.591 238.498 190.98 229.082 154.349 213.861C136.034 206.25 121.218 197.191 110.984 187.136C100.749 177.081 95.1 166.038 95.1 154.455C95.1 142.872 100.749 131.828 110.984 121.774C121.218 111.719 136.034 102.659 154.349 95.0489C190.98 79.8281 241.591 70.4115 297.5 70.4115C353.409 70.4115 404.02 79.8281 440.651 95.0489C458.966 102.659 473.782 111.719 484.016 121.774C494.251 131.828 499.9 142.872 499.9 154.455Z" stroke="#FDF19B" stroke-width="0.2"/>
<path opacity="0.393939" d="M497.4 152.15C497.4 163.573 491.821 174.466 481.713 184.382C471.605 194.299 456.972 203.235 438.883 210.741C402.705 225.753 352.719 235.04 297.5 235.04C242.281 235.04 192.295 225.753 156.117 210.741C138.028 203.235 123.395 194.299 113.287 184.382C103.179 174.466 97.6 163.573 97.6 152.15C97.6 140.726 103.179 129.834 113.287 119.918C123.395 110.001 138.028 101.065 156.117 93.5589C192.295 78.5468 242.281 69.2592 297.5 69.2592C352.719 69.2592 402.705 78.5468 438.883 93.5589C456.972 101.065 471.605 110.001 481.713 119.918C491.821 129.834 497.4 140.726 497.4 152.15Z" stroke="#FDF19B" stroke-width="0.2"/>
<path opacity="0.40404" d="M494.9 149.844C494.9 161.108 489.391 171.849 479.409 181.627C469.428 191.407 454.978 200.218 437.115 207.62C401.39 222.423 352.028 231.582 297.5 231.582C242.972 231.582 193.61 222.423 157.885 207.62C140.022 200.218 125.572 191.407 115.591 181.627C105.609 171.849 100.1 161.108 100.1 149.844C100.1 138.579 105.609 127.839 115.591 118.06C125.572 108.281 140.022 99.4699 157.885 92.068C193.61 77.2644 242.972 68.1059 297.5 68.1059C352.028 68.1059 401.39 77.2644 437.115 92.068C454.978 99.4699 469.428 108.281 479.409 118.06C489.391 127.839 494.9 138.579 494.9 149.844Z" stroke="#FDF19B" stroke-width="0.2"/>
<path opacity="0.414141" d="M492.4 147.539C492.4 158.644 486.961 169.233 477.106 178.874C467.251 188.515 452.984 197.202 435.348 204.5C400.074 219.095 351.338 228.124 297.5 228.124C243.662 228.124 194.926 219.095 159.652 204.5C142.016 197.202 127.749 188.515 117.894 178.874C108.039 169.233 102.6 158.644 102.6 147.539C102.6 136.434 108.039 125.845 117.894 116.204C127.749 106.563 142.016 97.8757 159.652 90.5781C194.926 75.9831 243.662 66.9535 297.5 66.9535C351.338 66.9535 400.074 75.9831 435.348 90.5781C452.984 97.8757 467.251 106.563 477.106 116.204C486.961 125.845 492.4 136.434 492.4 147.539Z" stroke="#FDF19B" stroke-width="0.2"/>
<path opacity="0.424242" d="M489.9 145.234C489.9 156.18 484.531 166.617 474.803 176.12C465.074 185.623 450.991 194.186 433.58 201.38C398.759 215.766 350.648 224.667 297.5 224.667C244.352 224.667 196.241 215.766 161.42 201.38C144.009 194.186 129.926 185.623 120.197 176.12C110.469 166.617 105.1 156.18 105.1 145.234C105.1 134.288 110.469 123.851 120.197 114.348C129.926 104.844 144.009 96.2815 161.42 89.0882C196.241 74.7017 244.352 65.8012 297.5 65.8012C350.648 65.8012 398.759 74.7017 433.58 89.0882C450.991 96.2815 465.074 104.844 474.803 114.348C484.531 123.851 489.9 134.288 489.9 145.234Z" stroke="#FDF19B" stroke-width="0.2"/>
<path opacity="0.434343" d="M487.4 142.929C487.4 153.716 482.101 164.001 472.499 173.366C462.897 182.732 448.997 191.17 431.812 198.26C397.444 212.437 349.957 221.209 297.5 221.209C245.043 221.209 197.556 212.437 163.188 198.26C146.003 191.17 132.103 182.732 122.501 173.366C112.899 164.001 107.6 153.716 107.6 142.929C107.6 132.142 112.899 121.857 122.501 112.491C132.103 103.126 146.003 94.6873 163.188 87.5983C197.556 73.4204 245.043 64.6488 297.5 64.6488C349.957 64.6488 397.444 73.4204 431.812 87.5983C448.997 94.6873 462.897 103.126 472.499 112.491C482.101 121.857 487.4 132.142 487.4 142.929Z" stroke="#FDF19B" stroke-width="0.2"/>
<path opacity="0.444444" d="M484.9 140.623C484.9 151.251 479.671 161.384 470.196 170.612C460.72 179.839 447.003 188.154 430.044 195.138C396.128 209.108 349.267 217.75 297.5 217.75C245.733 217.75 198.872 209.108 164.956 195.138C147.997 188.154 134.28 179.839 124.804 170.612C115.329 161.384 110.1 151.251 110.1 140.623C110.1 129.995 115.329 119.861 124.804 110.634C134.28 101.407 147.997 93.0921 164.956 86.1074C198.872 72.138 245.733 63.4955 297.5 63.4955C349.267 63.4955 396.128 72.138 430.044 86.1074C447.003 93.0921 460.72 101.407 470.196 110.634C479.671 119.861 484.9 129.995 484.9 140.623Z" stroke="#FDF19B" stroke-width="0.2"/>
<path opacity="0.454545" d="M482.4 138.318C482.4 148.786 477.241 158.769 467.892 167.858C458.543 176.948 445.009 185.138 428.277 192.018C394.813 205.779 348.577 214.293 297.5 214.293C246.423 214.293 200.187 205.779 166.723 192.018C149.991 185.138 136.457 176.948 127.108 167.858C117.759 158.769 112.6 148.786 112.6 138.318C112.6 127.85 117.759 117.867 127.108 108.778C136.457 99.6882 149.991 91.4979 166.723 84.6174C200.187 70.8567 246.423 62.3432 297.5 62.3432C348.577 62.3432 394.813 70.8567 428.277 84.6174C445.009 91.4979 458.543 99.6882 467.892 108.778C477.241 117.867 482.4 127.85 482.4 138.318Z" stroke="#FDF19B" stroke-width="0.2"/>
<path opacity="0.464646" d="M479.9 136.012C479.9 146.322 474.811 156.152 465.589 165.104C456.366 174.056 443.015 182.122 426.509 188.898C393.498 202.45 347.886 210.835 297.5 210.835C247.114 210.835 201.502 202.45 168.491 188.898C151.985 182.122 138.634 174.056 129.411 165.104C120.189 156.152 115.1 146.322 115.1 136.012C115.1 125.703 120.189 115.873 129.411 106.921C138.634 97.9694 151.985 89.9032 168.491 83.127C201.502 69.5748 247.114 61.1903 297.5 61.1903C347.886 61.1903 393.498 69.5748 426.509 83.127C443.015 89.9032 456.366 97.9694 465.589 106.921C474.811 115.873 479.9 125.703 479.9 136.012Z" stroke="#FDF19B" stroke-width="0.2"/>
<path opacity="0.474747" d="M477.4 133.707C477.4 143.857 472.381 153.536 463.285 162.35C454.189 171.164 441.021 179.106 424.741 185.778C392.182 199.121 347.196 207.377 297.5 207.377C247.804 207.377 202.818 199.121 170.259 185.778C153.979 179.106 140.811 171.164 131.715 162.35C122.619 153.536 117.6 143.857 117.6 133.707C117.6 123.557 122.619 113.878 131.715 105.065C140.811 96.251 153.979 88.309 170.259 81.6371C202.818 68.2935 247.804 60.038 297.5 60.038C347.196 60.038 392.182 68.2935 424.741 81.6371C441.021 88.309 454.189 96.251 463.285 105.065C472.381 113.878 477.4 123.557 477.4 133.707Z" stroke="#FDF19B" stroke-width="0.2"/>
<path opacity="0.484848" d="M474.9 131.402C474.9 141.393 469.951 150.92 460.982 159.596C452.012 168.272 439.027 176.09 422.974 182.657C390.867 195.792 346.506 203.919 297.5 203.919C248.494 203.919 204.133 195.792 172.026 182.657C155.973 176.09 142.988 168.272 134.018 159.596C125.049 150.92 120.1 141.393 120.1 131.402C120.1 121.411 125.049 111.884 134.018 103.208C142.988 94.5321 155.973 86.7143 172.026 80.1467C204.133 67.0116 248.494 58.8852 297.5 58.8852C346.506 58.8852 390.867 67.0116 422.974 80.1467C439.027 86.7143 452.012 94.5321 460.982 103.208C469.951 111.884 474.9 121.411 474.9 131.402Z" stroke="#FDF19B" stroke-width="0.2"/>
<path opacity="0.494949" d="M472.4 129.096C472.4 138.928 467.521 148.304 458.678 156.842C449.835 165.38 437.033 173.073 421.206 179.537C389.552 192.463 345.815 200.461 297.5 200.461C249.185 200.461 205.448 192.463 173.794 179.537C157.967 173.073 145.165 165.38 136.322 156.842C127.479 148.304 122.6 138.928 122.6 129.096C122.6 119.265 127.479 109.889 136.322 101.351C145.165 92.8133 157.967 85.1196 173.794 78.6563C205.448 65.7298 249.185 57.7323 297.5 57.7323C345.815 57.7323 389.552 65.7298 421.206 78.6563C437.033 85.1196 449.835 92.8133 458.678 101.351C467.521 109.889 472.4 119.265 472.4 129.096Z" stroke="#FDF19B" stroke-width="0.2"/>
<path opacity="0.50505" d="M469.9 126.791C469.9 136.463 465.091 145.687 456.375 154.087C447.658 162.488 435.039 170.057 419.438 176.416C388.237 189.134 345.125 197.003 297.5 197.003C249.875 197.003 206.763 189.134 175.562 176.416C159.961 170.057 147.342 162.488 138.625 154.087C129.909 145.687 125.1 136.463 125.1 126.791C125.1 117.119 129.909 107.895 138.625 99.4946C147.342 91.0944 159.961 83.5249 175.562 77.1659C206.763 64.448 249.875 56.5795 297.5 56.5795C345.125 56.5795 388.237 64.448 419.438 77.1659C435.039 83.5249 447.658 91.0944 456.375 99.4946C465.091 107.895 469.9 117.119 469.9 126.791Z" stroke="#FDF19B" stroke-width="0.2"/>
<path opacity="0.515152" d="M467.4 124.486C467.4 133.999 462.661 143.072 454.071 151.334C445.481 159.596 433.045 167.041 417.67 173.296C386.921 185.805 344.435 193.545 297.5 193.545C250.565 193.545 208.079 185.805 177.33 173.296C161.955 167.041 149.519 159.596 140.929 151.334C132.339 143.072 127.6 133.999 127.6 124.486C127.6 114.973 132.339 105.9 140.929 97.6383C149.519 89.376 161.955 81.9307 177.33 75.6759C208.079 63.1666 250.565 55.4271 297.5 55.4271C344.435 55.4271 386.921 63.1666 417.67 75.6759C433.045 81.9307 445.481 89.376 454.071 97.6383C462.661 105.9 467.4 114.973 467.4 124.486Z" stroke="#FDF19B" stroke-width="0.2"/>
<path opacity="0.525253" d="M464.9 122.181C464.9 131.534 460.231 140.455 451.768 148.58C443.304 156.704 431.051 164.025 415.903 170.176C385.606 182.476 343.744 190.087 297.5 190.087C251.256 190.087 209.394 182.476 179.097 170.176C163.949 164.025 151.696 156.704 143.232 148.58C134.769 140.455 130.1 131.534 130.1 122.181C130.1 112.827 134.769 103.906 143.232 95.7816C151.696 87.6572 163.949 80.336 179.097 74.1855C209.394 61.8848 251.256 54.2743 297.5 54.2743C343.744 54.2743 385.606 61.8848 415.903 74.1855C431.051 80.336 443.304 87.6572 451.768 95.7816C460.231 103.906 464.9 112.827 464.9 122.181Z" stroke="#FDF19B" stroke-width="0.2"/>
<path opacity="0.535354" d="M462.4 119.875C462.4 129.07 457.801 137.839 449.464 145.825C441.127 153.812 429.058 161.009 414.135 167.055C384.291 179.147 343.054 186.629 297.5 186.629C251.946 186.629 210.709 179.147 180.865 167.055C165.942 161.009 153.873 153.812 145.536 145.825C137.199 137.839 132.6 129.07 132.6 119.875C132.6 110.68 137.199 101.911 145.536 93.9249C153.873 85.9383 165.942 78.7413 180.865 72.6951C210.709 60.6029 251.946 53.1215 297.5 53.1215C343.054 53.1215 384.291 60.6029 414.135 72.6951C429.058 78.7413 441.127 85.9383 449.464 93.9249C457.801 101.911 462.4 110.68 462.4 119.875Z" stroke="#FDF19B" stroke-width="0.2"/>
<path opacity="0.545455" d="M459.9 117.57C459.9 126.606 455.371 135.223 447.161 143.072C438.95 150.92 427.064 157.993 412.367 163.935C382.975 175.819 342.364 183.171 297.5 183.171C252.636 183.171 212.025 175.819 182.633 163.935C167.936 157.993 156.05 150.92 147.839 143.072C139.629 135.223 135.1 126.606 135.1 117.57C135.1 108.535 139.629 99.917 147.839 92.0686C156.05 84.2199 167.936 77.1471 182.633 71.2052C212.025 59.3216 252.636 51.9691 297.5 51.9691C342.364 51.9691 382.975 59.3216 412.367 71.2052C427.064 77.1471 438.95 84.2199 447.161 92.0686C455.371 99.917 459.9 108.535 459.9 117.57Z" stroke="#FDF19B" stroke-width="0.2"/>
<path opacity="0.555556" d="M457.4 115.265C457.4 124.141 452.941 132.607 444.857 140.318C436.773 148.029 425.07 154.977 410.6 160.815C381.66 172.49 341.673 179.713 297.5 179.713C253.327 179.713 213.34 172.49 184.4 160.815C169.93 154.977 158.227 148.029 150.143 140.318C142.059 132.607 137.6 124.141 137.6 115.265C137.6 106.389 142.059 97.9229 150.143 90.2123C158.227 82.5015 169.93 75.5529 184.4 69.7153C213.34 58.0402 253.327 50.8168 297.5 50.8168C341.673 50.8168 381.66 58.0402 410.6 69.7153C425.07 75.5529 436.773 82.5015 444.857 90.2123C452.941 97.9229 457.4 106.389 457.4 115.265Z" stroke="#FDF19B" stroke-width="0.2"/>
<path opacity="0.565657" d="M454.9 112.959C454.9 121.676 450.511 129.99 442.554 137.563C434.596 145.136 423.076 151.96 408.832 157.694C380.345 169.16 340.983 176.255 297.5 176.255C254.017 176.255 214.655 169.16 186.168 157.694C171.924 151.96 160.404 145.136 152.446 137.563C144.489 129.99 140.1 121.676 140.1 112.959C140.1 104.242 144.489 95.9278 152.446 88.3551C160.404 80.7822 171.924 73.9578 186.168 68.2244C214.655 56.7579 254.017 49.6635 297.5 49.6635C340.983 49.6635 380.345 56.7579 408.832 68.2244C423.076 73.9578 434.596 80.7822 442.554 88.3551C450.511 95.9278 454.9 104.242 454.9 112.959Z" stroke="#FDF19B" stroke-width="0.2"/>
<path opacity="0.575758" d="M452.4 110.654C452.4 119.212 448.081 127.375 440.25 134.809C432.419 142.244 421.082 148.945 407.064 154.574C379.029 165.832 340.293 172.797 297.5 172.797C254.707 172.797 215.971 165.832 187.936 154.574C173.918 148.945 162.581 142.244 154.75 134.809C146.919 127.375 142.6 119.212 142.6 110.654C142.6 102.096 146.919 93.9337 154.75 86.4989C162.581 79.0638 173.918 72.3636 187.936 66.7345C215.971 55.4766 254.707 48.5111 297.5 48.5111C340.293 48.5111 379.029 55.4766 407.064 66.7345C421.082 72.3636 432.419 79.0638 440.25 86.4989C448.081 93.9337 452.4 102.096 452.4 110.654Z" stroke="#FDF19B" stroke-width="0.2"/>
<path opacity="0.585859" d="M449.9 108.349C449.9 116.748 445.651 124.759 437.947 132.056C430.242 139.353 419.088 145.929 405.297 151.454C377.714 162.503 339.602 169.339 297.5 169.339C255.398 169.339 217.286 162.503 189.703 151.454C175.912 145.929 164.758 139.353 157.053 132.056C149.349 124.759 145.1 116.748 145.1 108.349C145.1 99.9506 149.349 91.9396 157.053 84.6426C164.758 77.3455 175.912 70.7694 189.703 65.2446C217.286 54.1952 255.398 47.3588 297.5 47.3588C339.602 47.3588 377.714 54.1952 405.297 65.2446C419.088 70.7694 430.242 77.3455 437.947 84.6426C445.651 91.9396 449.9 99.9506 449.9 108.349Z" stroke="#FDF19B" stroke-width="0.2"/>
<path opacity="0.59596" d="M447.4 106.044C447.4 114.283 443.222 122.142 435.644 129.301C428.065 136.461 417.094 142.913 403.529 148.333C376.399 159.174 338.912 165.881 297.5 165.881C256.088 165.881 218.601 159.174 191.471 148.333C177.906 142.913 166.935 136.461 159.356 129.301C151.778 122.142 147.6 114.283 147.6 106.044C147.6 97.8044 151.778 89.945 159.356 82.7859C166.935 75.6266 177.906 69.1747 191.471 63.7542C218.601 52.9134 256.088 46.206 297.5 46.206C338.912 46.206 376.399 52.9134 403.529 63.7542C417.094 69.1747 428.065 75.6266 435.644 82.7859C443.222 89.945 447.4 97.8044 447.4 106.044Z" stroke="#FDF19B" stroke-width="0.2"/>
<path opacity="0.606061" d="M444.9 103.738C444.9 111.818 440.792 119.526 433.34 126.547C425.888 133.569 415.1 139.896 401.761 145.213C375.083 155.845 338.222 162.423 297.5 162.423C256.778 162.423 219.917 155.845 193.239 145.213C179.9 139.896 169.112 133.569 161.66 126.547C154.208 119.526 150.1 111.818 150.1 103.738C150.1 95.6581 154.208 87.9504 161.66 80.9292C169.112 73.9078 179.9 67.58 193.239 62.2638C219.917 51.6315 256.778 45.0531 297.5 45.0531C338.222 45.0531 375.083 51.6315 401.761 62.2638C415.1 67.58 425.888 73.9078 433.34 80.9292C440.792 87.9504 444.9 95.6581 444.9 103.738Z" stroke="#FDF19B" stroke-width="0.2"/>
<path opacity="0.616162" d="M442.4 101.433C442.4 109.354 438.362 116.91 431.037 123.793C423.712 130.677 413.107 136.881 399.994 142.093C373.768 152.516 337.531 158.966 297.5 158.966C257.469 158.966 221.232 152.516 195.006 142.093C181.893 136.881 171.288 130.677 163.963 123.793C156.638 116.91 152.6 109.354 152.6 101.433C152.6 93.5124 156.638 85.9563 163.963 79.0729C171.288 72.1894 181.893 65.9858 195.006 60.7738C221.232 50.3502 257.469 43.9008 297.5 43.9008C337.531 43.9008 373.768 50.3502 399.994 60.7738C413.107 65.9858 423.712 72.1894 431.037 79.0729C438.362 85.9563 442.4 93.5124 442.4 101.433Z" stroke="#FDF19B" stroke-width="0.2"/>
<path opacity="0.626263" d="M439.9 99.1277C439.9 106.889 435.932 114.294 428.733 121.039C421.535 127.785 411.113 133.864 398.226 138.972C372.453 149.187 336.841 155.507 297.5 155.507C258.159 155.507 222.547 149.187 196.774 138.972C183.887 133.864 173.465 127.785 166.267 121.039C159.068 114.294 155.1 106.889 155.1 99.1277C155.1 91.3662 159.068 83.9617 166.267 77.2162C173.465 70.4706 183.887 64.3911 196.774 59.2834C222.547 49.0683 258.159 42.7479 297.5 42.7479C336.841 42.7479 372.453 49.0683 398.226 59.2834C411.113 64.3911 421.535 70.4706 428.733 77.2162C435.932 83.9617 439.9 91.3662 439.9 99.1277Z" stroke="#FDF19B" stroke-width="0.2"/>
<path opacity="0.636364" d="M437.4 96.8227C437.4 104.425 433.502 111.678 426.43 118.285C419.358 124.893 409.119 130.848 396.458 135.852C371.138 145.858 336.151 152.05 297.5 152.05C258.849 152.05 223.862 145.858 198.542 135.852C185.881 130.848 175.642 124.893 168.57 118.285C161.498 111.678 157.6 104.425 157.6 96.8227C157.6 89.2204 161.498 81.9676 168.57 75.36C175.642 68.7522 185.881 62.7969 198.542 57.7935C223.862 47.787 258.849 41.5956 297.5 41.5956C336.151 41.5956 371.138 47.787 396.458 57.7935C409.119 62.7969 419.358 68.7522 426.43 75.36C433.502 81.9676 437.4 89.2204 437.4 96.8227Z" stroke="#FDF19B" stroke-width="0.2"/>
<path opacity="0.646465" d="M434.9 94.5172C434.9 101.96 431.072 109.061 424.126 115.531C417.181 122.001 407.125 127.832 394.691 132.731C369.822 142.529 335.46 148.592 297.5 148.592C259.54 148.592 225.178 142.529 200.309 132.731C187.875 127.832 177.819 122.001 170.874 115.531C163.928 109.061 160.1 101.96 160.1 94.5172C160.1 87.0742 163.928 79.973 170.874 73.5033C177.819 67.0334 187.875 61.2023 200.309 56.3031C225.178 46.5051 259.54 40.4428 297.5 40.4428C335.46 40.4428 369.822 46.5051 394.691 56.3031C407.125 61.2023 417.181 67.0334 424.126 73.5033C431.072 79.973 434.9 87.0742 434.9 94.5172Z" stroke="#FDF19B" stroke-width="0.2"/>
<path opacity="0.656566" d="M432.4 92.2118C432.4 99.4955 428.642 106.445 421.823 112.777C415.004 119.109 405.131 124.816 392.923 129.611C368.507 139.2 334.77 145.134 297.5 145.134C260.23 145.134 226.493 139.2 202.077 129.611C189.869 124.816 179.996 119.109 173.177 112.777C166.358 106.445 162.6 99.4955 162.6 92.2118C162.6 84.928 166.358 77.9784 173.177 71.6465C179.996 65.3145 189.869 59.6076 202.077 54.8127C226.493 45.2233 260.23 39.2899 297.5 39.2899C334.77 39.2899 368.507 45.2233 392.923 54.8127C405.131 59.6076 415.004 65.3145 421.823 71.6465C428.642 77.9784 432.4 84.928 432.4 92.2118Z" stroke="#FDF19B" stroke-width="0.2"/>
<path opacity="0.666667" d="M429.9 89.9063C429.9 97.0307 426.212 103.829 419.52 110.023C412.827 116.217 403.137 121.8 391.155 126.49C367.192 135.871 334.08 141.675 297.5 141.675C260.92 141.675 227.808 135.871 203.845 126.49C191.863 121.8 182.173 116.217 175.48 110.023C168.788 103.829 165.1 97.0307 165.1 89.9063C165.1 82.7818 168.788 75.9839 175.48 69.7898C182.173 63.5957 191.863 58.0129 203.845 53.3224C227.808 43.9415 260.92 38.1371 297.5 38.1371C334.08 38.1371 367.192 43.9415 391.155 53.3224C403.137 58.0129 412.827 63.5957 419.52 69.7898C426.212 75.9839 429.9 82.7818 429.9 89.9063Z" stroke="#FDF19B" stroke-width="0.2"/>
<path opacity="0.676768" d="M427.4 87.6013C427.4 94.5665 423.782 101.213 417.216 107.269C410.65 113.325 401.143 118.784 389.388 123.37C365.876 132.542 333.389 138.218 297.5 138.218C261.611 138.218 229.124 132.542 205.612 123.37C193.857 118.784 184.35 113.325 177.784 107.269C171.218 101.213 167.6 94.5665 167.6 87.6013C167.6 80.6361 171.218 73.9898 177.784 67.9336C184.35 61.8774 193.857 56.4187 205.612 51.8324C229.124 42.6601 261.611 36.9848 297.5 36.9848C333.389 36.9848 365.876 42.6601 389.388 51.8324C401.143 56.4187 410.65 61.8774 417.216 67.9336C423.782 73.9898 427.4 80.6361 427.4 87.6013Z" stroke="#FDF19B" stroke-width="0.2"/>
<path opacity="0.686869" d="M424.9 85.2963C424.9 92.1022 421.352 98.5968 414.913 104.515C408.473 110.434 399.15 115.768 387.62 120.25C364.561 129.214 332.699 134.76 297.5 134.76C262.301 134.76 230.439 129.214 207.38 120.25C195.85 115.768 186.527 110.434 180.087 104.515C173.648 98.5968 170.1 92.1022 170.1 85.2963C170.1 78.4904 173.648 71.9958 180.087 66.0774C186.527 60.159 195.85 54.8246 207.38 50.3425C230.439 41.3788 262.301 35.8324 297.5 35.8324C332.699 35.8324 364.561 41.3788 387.62 50.3425C399.15 54.8246 408.473 60.159 414.913 66.0774C421.352 71.9958 424.9 78.4904 424.9 85.2963Z" stroke="#FDF19B" stroke-width="0.2"/>
<path opacity="0.69697" d="M422.4 82.9903C422.4 89.6369 418.922 95.9799 412.609 101.76C406.296 107.541 397.156 112.751 385.852 117.129C363.246 125.884 332.009 131.302 297.5 131.302C262.991 131.302 231.754 125.884 209.148 117.129C197.844 112.751 188.704 107.541 182.391 101.76C176.078 95.9799 172.6 89.6369 172.6 82.9903C172.6 76.3437 176.078 70.0007 182.391 64.2202C188.704 58.4397 197.844 53.2294 209.148 48.8517C231.754 40.0965 262.991 34.6791 297.5 34.6791C332.009 34.6791 363.246 40.0965 385.852 48.8517C397.156 53.2294 406.296 58.4397 412.609 64.2202C418.922 70.0007 422.4 76.3437 422.4 82.9903Z" stroke="#FDF19B" stroke-width="0.2"/>
<path opacity="0.707071" d="M419.9 80.6853C419.9 87.1726 416.492 93.364 410.306 99.0066C404.119 104.649 395.162 109.735 384.085 114.009C361.931 122.556 331.318 127.844 297.5 127.844C263.682 127.844 233.069 122.556 210.915 114.009C199.838 109.735 190.881 104.649 184.694 99.0066C178.508 93.364 175.1 87.1726 175.1 80.6853C175.1 74.198 178.508 68.0067 184.694 62.364C190.881 56.7214 199.838 51.6352 210.915 47.3618C233.069 38.8151 263.682 33.5268 297.5 33.5268C331.318 33.5268 361.931 38.8151 384.085 47.3618C395.162 51.6352 404.119 56.7214 410.306 62.364C416.492 68.0067 419.9 74.198 419.9 80.6853Z" stroke="#FDF19B" stroke-width="0.2"/>
<path opacity="0.717172" d="M417.4 78.3803C417.4 84.7083 414.063 90.748 408.003 96.2528C401.943 101.758 393.168 106.72 382.317 110.889C360.615 119.227 330.628 124.386 297.5 124.386C264.372 124.386 234.385 119.227 212.683 110.889C201.832 106.72 193.057 101.758 186.997 96.2528C180.937 90.748 177.6 84.7083 177.6 78.3803C177.6 72.0523 180.937 66.0126 186.997 60.5078C193.057 55.003 201.832 50.0411 212.683 45.8719C234.385 37.5338 264.372 32.3744 297.5 32.3744C330.628 32.3744 360.615 37.5338 382.317 45.8719C393.168 50.0411 401.943 55.003 408.003 60.5078C414.063 66.0126 417.4 72.0523 417.4 78.3803Z" stroke="#FDF19B" stroke-width="0.2"/>
<path opacity="0.727273" d="M414.9 76.0749C414.9 82.2435 411.633 88.1316 405.699 93.4985C399.766 98.8655 391.174 103.703 380.549 107.768C359.3 115.898 329.938 120.928 297.5 120.928C265.062 120.928 235.7 115.898 214.451 107.768C203.826 103.703 195.234 98.8655 189.301 93.4985C183.367 88.1316 180.1 82.2435 180.1 76.0749C180.1 69.9062 183.367 64.0181 189.301 58.6512C195.234 53.2842 203.826 48.4464 214.451 44.3815C235.7 36.2519 265.062 31.2216 297.5 31.2216C329.938 31.2216 359.3 36.2519 380.549 44.3815C391.174 48.4464 399.766 53.2842 405.699 58.6512C411.633 64.0181 414.9 69.9062 414.9 76.0749Z" stroke="#FDF19B" stroke-width="0.2"/>
<path opacity="0.737374" d="M412.4 73.7694C412.4 79.7787 409.203 85.5151 403.396 90.7442C397.589 95.9733 389.18 100.687 378.782 104.648C357.985 112.569 329.247 117.47 297.5 117.47C265.753 117.47 237.015 112.569 216.218 104.648C205.82 100.687 197.411 95.9733 191.604 90.7442C185.797 85.5151 182.6 79.7787 182.6 73.7694C182.6 67.76 185.797 62.0236 191.604 56.7945C197.411 51.5654 205.82 46.8517 216.218 42.8911C237.015 34.9701 265.753 30.0688 297.5 30.0688C329.247 30.0688 357.985 34.9701 378.782 42.8911C389.18 46.8517 397.589 51.5654 403.396 56.7945C409.203 62.0236 412.4 67.76 412.4 73.7694Z" stroke="#FDF19B" stroke-width="0.2"/>
<path opacity="0.747475" d="M409.9 71.4644C409.9 77.3144 406.773 82.8992 401.092 87.9904C395.412 93.0817 387.187 97.6712 377.014 101.528C356.67 109.24 328.557 114.012 297.5 114.012C266.443 114.012 238.33 109.24 217.986 101.528C207.813 97.6712 199.588 93.0817 193.908 87.9904C188.227 82.8992 185.1 77.3144 185.1 71.4644C185.1 65.6144 188.227 60.0296 193.908 54.9383C199.588 49.8471 207.813 45.2576 217.986 41.4012C238.33 33.6887 266.443 28.9164 297.5 28.9164C328.557 28.9164 356.67 33.6887 377.014 41.4012C387.187 45.2576 395.412 49.8471 401.092 54.9383C406.773 60.0296 409.9 65.6144 409.9 71.4644Z" stroke="#FDF19B" stroke-width="0.2"/>
<path opacity="0.757576" d="M407.4 69.1589C407.4 74.8496 404.343 80.2827 398.789 85.2361C393.235 90.1895 385.193 94.6549 375.246 98.407C355.354 105.911 327.867 110.554 297.5 110.554C267.133 110.554 239.646 105.911 219.754 98.407C209.807 94.6549 201.765 90.1895 196.211 85.2361C190.657 80.2827 187.6 74.8496 187.6 69.1589C187.6 63.4682 190.657 58.0351 196.211 53.0817C201.765 48.1283 209.807 43.6629 219.754 39.9108C239.646 32.4069 267.133 27.7636 297.5 27.7636C327.867 27.7636 355.354 32.4069 375.246 39.9108C385.193 43.6629 393.235 48.1283 398.789 53.0817C404.343 58.0351 407.4 63.4682 407.4 69.1589Z" stroke="#FDF19B" stroke-width="0.2"/>
<path opacity="0.767677" d="M404.9 66.8534C404.9 72.3847 401.913 77.6662 396.486 82.4818C391.058 87.2973 383.199 91.6385 373.479 95.2864C354.039 102.582 327.176 107.096 297.5 107.096C267.824 107.096 240.961 102.582 221.521 95.2864C211.801 91.6385 203.942 87.2973 198.514 82.4818C193.087 77.6662 190.1 72.3847 190.1 66.8534C190.1 61.3221 193.087 56.0407 198.514 51.225C203.942 46.4095 211.801 42.0683 221.521 38.4205C240.961 31.1251 267.824 26.6107 297.5 26.6107C327.176 26.6107 354.039 31.1251 373.479 38.4205C383.199 42.0683 391.058 46.4095 396.486 51.225C401.913 56.0407 404.9 61.3221 404.9 66.8534Z" stroke="#FDF19B" stroke-width="0.2"/>
<path opacity="0.777778" d="M402.4 64.5479C402.4 69.9199 399.483 75.0497 394.182 79.7275C388.882 84.4052 381.205 88.6222 371.711 92.1658C352.724 99.2526 326.486 103.638 297.5 103.638C268.514 103.638 242.276 99.2526 223.289 92.1658C213.795 88.6222 206.118 84.4052 200.818 79.7275C195.517 75.0497 192.6 69.9199 192.6 64.5479C192.6 59.176 195.517 54.0462 200.818 49.3684C206.118 44.6907 213.795 40.4737 223.289 36.9301C242.276 29.8432 268.514 25.4579 297.5 25.4579C326.486 25.4579 352.724 29.8432 371.711 36.9301C381.205 40.4737 388.882 44.6907 394.182 49.3684C399.483 54.0462 402.4 59.176 402.4 64.5479Z" stroke="#FDF19B" stroke-width="0.2"/>
<path opacity="0.787879" d="M399.9 62.2429C399.9 67.4555 397.054 72.4337 391.879 76.9736C386.705 81.5135 379.212 85.6064 369.944 89.0457C351.409 95.924 325.796 100.18 297.5 100.18C269.204 100.18 243.591 95.924 225.056 89.0457C215.788 85.6064 208.295 81.5135 203.121 76.9736C197.946 72.4337 195.1 67.4555 195.1 62.2429C195.1 57.0304 197.946 52.0522 203.121 47.5123C208.295 42.9724 215.788 38.8795 225.056 35.4402C243.591 28.5619 269.204 24.3056 297.5 24.3056C325.796 24.3056 351.409 28.5619 369.944 35.4402C379.212 38.8795 386.705 42.9724 391.879 47.5123C397.054 52.0522 399.9 57.0304 399.9 62.2429Z" stroke="#FDF19B" stroke-width="0.2"/>
<path opacity="0.79798" d="M397.4 59.9375C397.4 64.9907 394.624 69.8171 389.576 74.2193C384.528 78.6213 377.218 82.5901 368.176 85.9251C350.093 92.5949 325.106 96.7222 297.5 96.7222C269.894 96.7222 244.907 92.5949 226.824 85.9251C217.782 82.5901 210.472 78.6213 205.424 74.2193C200.376 69.8171 197.6 64.9907 197.6 59.9375C197.6 54.8843 200.376 50.0578 205.424 45.6556C210.472 41.2537 217.782 37.2849 226.824 33.9498C244.907 27.2801 269.894 23.1527 297.5 23.1527C325.106 23.1527 350.093 27.2801 368.176 33.9498C377.218 37.2849 384.528 41.2537 389.576 45.6556C394.624 50.0578 397.4 54.8843 397.4 59.9375Z" stroke="#FDF19B" stroke-width="0.2"/>
<path opacity="0.808081" d="M394.9 57.6325C394.9 62.5263 392.194 67.2011 387.272 71.4654C382.351 75.7296 375.224 79.5742 366.409 82.805C348.778 89.2662 324.415 93.2646 297.5 93.2646C270.585 93.2646 246.222 89.2662 228.591 82.805C219.776 79.5742 212.649 75.7296 207.728 71.4654C202.806 67.2011 200.1 62.5263 200.1 57.6325C200.1 52.7387 202.806 48.0639 207.728 43.7995C212.649 39.5354 219.776 35.6907 228.591 32.46C246.222 25.9987 270.585 22.0004 297.5 22.0004C324.415 22.0004 348.778 25.9987 366.409 32.46C375.224 35.6907 382.351 39.5354 387.272 43.7995C392.194 48.0639 394.9 52.7387 394.9 57.6325Z" stroke="#FDF19B" stroke-width="0.2"/>
<path opacity="0.818182" d="M392.4 55.327C392.4 60.0613 389.764 64.5845 384.969 68.7111C380.174 72.8374 373.23 76.5579 364.641 79.6844C347.463 85.9371 323.725 89.8064 297.5 89.8064C271.275 89.8064 247.537 85.9371 230.359 79.6844C221.77 76.5579 214.826 72.8374 210.031 68.7111C205.236 64.5845 202.6 60.0613 202.6 55.327C202.6 50.5926 205.236 46.0695 210.031 41.9429C214.826 37.8166 221.77 34.0961 230.359 30.9696C247.537 24.7169 271.275 20.8476 297.5 20.8476C323.725 20.8476 347.463 24.7169 364.641 30.9696C373.23 34.0961 380.174 37.8166 384.969 41.9429C389.764 46.0695 392.4 50.5926 392.4 55.327Z" stroke="#FDF19B" stroke-width="0.2"/>
<path opacity="0.828283" d="M389.9 53.0215C389.9 57.5964 387.335 61.9679 382.666 65.9567C377.998 69.9452 371.237 73.5415 362.873 76.5638C346.148 82.608 323.035 86.3483 297.5 86.3483C271.965 86.3483 248.852 82.608 232.127 76.5638C223.763 73.5415 217.002 69.9452 212.334 65.9567C207.665 61.9679 205.1 57.5964 205.1 53.0215C205.1 48.4466 207.665 44.0751 212.334 40.0863C217.002 36.0979 223.763 32.5015 232.127 29.4793C248.852 23.4351 271.965 19.6947 297.5 19.6947C323.035 19.6947 346.148 23.4351 362.873 29.4793C371.237 32.5015 377.998 36.0979 382.666 40.0863C387.335 44.0751 389.9 48.4466 389.9 53.0215Z" stroke="#FDF19B" stroke-width="0.2"/>
<path opacity="0.838384" d="M387.4 50.7165C387.4 55.132 384.905 59.3518 380.363 63.2028C375.821 67.0534 369.243 70.5257 361.106 73.4437C344.832 79.2793 322.344 82.8907 297.5 82.8907C272.656 82.8907 250.168 79.2793 233.894 73.4437C225.757 70.5257 219.179 67.0534 214.637 63.2028C210.095 59.3518 207.6 55.132 207.6 50.7165C207.6 46.3011 210.095 42.0813 214.637 38.2302C219.179 34.3796 225.757 30.9074 233.894 27.9894C250.168 22.1537 272.656 18.5424 297.5 18.5424C322.344 18.5424 344.832 22.1537 361.106 27.9894C369.243 30.9074 375.821 34.3796 380.363 38.2302C384.905 42.0813 387.4 46.3011 387.4 50.7165Z" stroke="#FDF19B" stroke-width="0.2"/>
<path opacity="0.848485" d="M384.9 48.4115C384.9 52.6675 382.475 56.7357 378.059 60.4489C373.644 64.1617 367.249 67.5098 359.338 70.3235C343.517 75.9507 321.654 79.433 297.5 79.433C273.346 79.433 251.483 75.9507 235.662 70.3235C227.751 67.5098 221.356 64.1617 216.941 60.4489C212.525 56.7357 210.1 52.6675 210.1 48.4115C210.1 44.1556 212.525 40.0874 216.941 36.3742C221.356 32.6614 227.751 29.3133 235.662 26.4995C251.483 20.8724 273.346 17.39 297.5 17.39C321.654 17.39 343.517 20.8724 359.338 26.4995C367.249 29.3133 373.644 32.6614 378.059 36.3742C382.475 40.0874 384.9 44.1556 384.9 48.4115Z" stroke="#FDF19B" stroke-width="0.2"/>
<path opacity="0.858586" d="M382.4 46.1056C382.4 50.202 380.046 54.1185 375.756 57.694C371.468 61.269 365.256 64.493 357.571 67.2024C342.202 72.6211 320.964 75.9744 297.5 75.9744C274.036 75.9744 252.798 72.6211 237.429 67.2024C229.744 64.493 223.532 61.269 219.244 57.694C214.954 54.1185 212.6 50.202 212.6 46.1056C212.6 42.0091 214.954 38.0926 219.244 34.5172C223.532 30.9421 229.744 27.7182 237.429 25.0087C252.798 19.5901 274.036 16.2367 297.5 16.2367C320.964 16.2367 342.202 19.5901 357.571 25.0087C365.256 27.7182 371.468 30.9421 375.756 34.5172C380.046 38.0926 382.4 42.0091 382.4 46.1056Z" stroke="#FDF19B" stroke-width="0.2"/>
<path opacity="0.868687" d="M379.9 43.8006C379.9 47.7375 377.616 51.5023 373.453 54.94C369.291 58.3772 363.262 61.4771 355.803 64.0823C340.887 69.2924 320.274 72.5168 297.5 72.5168C274.726 72.5168 254.113 69.2924 239.197 64.0823C231.738 61.4771 225.709 58.3772 221.547 54.94C217.384 51.5023 215.1 47.7375 215.1 43.8006C215.1 39.8637 217.384 36.0988 221.547 32.6611C225.709 29.2239 231.738 26.1241 239.197 23.5189C254.113 18.3087 274.726 15.0844 297.5 15.0844C320.274 15.0844 340.887 18.3087 355.803 23.5189C363.262 26.1241 369.291 29.2239 373.453 32.6611C377.616 36.0988 379.9 39.8637 379.9 43.8006Z" stroke="#FDF19B" stroke-width="0.2"/>
<path opacity="0.878788" d="M377.4 41.4956C377.4 45.2729 375.186 48.8861 371.15 52.1861C367.114 55.4855 361.268 58.4612 354.036 60.9622C339.572 65.9638 319.583 69.0591 297.5 69.0591C275.417 69.0591 255.428 65.9638 240.964 60.9622C233.732 58.4612 227.886 55.4855 223.85 52.1861C219.814 48.8861 217.6 45.2729 217.6 41.4956C217.6 37.7182 219.814 34.1051 223.85 30.8051C227.886 27.5057 233.732 24.53 240.964 22.029C255.428 17.0274 275.417 13.932 297.5 13.932C319.583 13.932 339.572 17.0274 354.036 22.029C361.268 24.53 367.114 27.5057 371.15 30.8051C375.186 34.1051 377.4 37.7182 377.4 41.4956Z" stroke="#FDF19B" stroke-width="0.2"/>
<path opacity="0.888889" d="M374.9 39.1901C374.9 42.8078 372.757 46.2693 368.847 49.4316C364.938 52.5932 359.275 55.4448 352.268 57.8415C338.257 62.6346 318.893 65.601 297.5 65.601C276.107 65.601 256.743 62.6346 242.732 57.8415C235.725 55.4448 230.062 52.5932 226.153 49.4316C222.243 46.2693 220.1 42.8078 220.1 39.1901C220.1 35.5724 222.243 32.1109 226.153 28.9486C230.062 25.787 235.725 22.9354 242.732 20.5387C256.743 15.7456 276.107 12.7792 297.5 12.7792C318.893 12.7792 338.257 15.7456 352.268 20.5387C359.275 22.9354 364.938 25.787 368.847 28.9486C372.757 32.1109 374.9 35.5724 374.9 39.1901Z" stroke="#FDF19B" stroke-width="0.2"/>
<path opacity="0.89899" d="M372.4 36.8846C372.4 40.3427 370.327 43.6525 366.544 46.6771C362.761 49.7009 357.281 52.4284 350.501 54.7209C336.941 59.3055 318.203 62.1429 297.5 62.1429C276.797 62.1429 258.059 59.3055 244.499 54.7209C237.719 52.4284 232.239 49.7009 228.456 46.6771C224.673 43.6525 222.6 40.3427 222.6 36.8846C222.6 33.4265 224.673 30.1167 228.456 27.0922C232.239 24.0683 237.719 21.3408 244.499 19.0484C258.059 14.4638 276.797 11.6264 297.5 11.6264C318.203 11.6264 336.941 14.4638 350.501 19.0484C357.281 21.3408 362.761 24.0683 366.544 27.0922C370.327 30.1167 372.4 33.4265 372.4 36.8846Z" stroke="#FDF19B" stroke-width="0.2"/>
<path opacity="0.909091" d="M369.9 34.5796C369.9 37.878 367.898 41.0361 364.241 43.923C360.584 46.8091 355.288 49.4125 348.734 51.6007C335.626 55.9768 317.513 58.6852 297.5 58.6852C277.487 58.6852 259.374 55.9768 246.266 51.6007C239.712 49.4125 234.416 46.8091 230.759 43.923C227.102 41.0361 225.1 37.878 225.1 34.5796C225.1 31.2812 227.102 28.1231 230.759 25.2362C234.416 22.3502 239.712 19.7468 246.266 17.5585C259.374 13.1824 277.487 10.474 297.5 10.474C317.513 10.474 335.626 13.1824 348.734 17.5585C355.288 19.7468 360.584 22.3502 364.241 25.2362C367.898 28.1231 369.9 31.2812 369.9 34.5796Z" stroke="#FDF19B" stroke-width="0.2"/>
<path opacity="0.919192" d="M367.4 32.2742C367.4 35.4128 365.469 38.4192 361.938 41.1685C358.408 43.9168 353.294 46.3961 346.966 48.4801C334.311 52.6477 316.822 55.2271 297.5 55.2271C278.178 55.2271 260.689 52.6477 248.034 48.4801C241.706 46.3961 236.592 43.9168 233.062 41.1685C229.531 38.4192 227.6 35.4128 227.6 32.2742C227.6 29.1355 229.531 26.1291 233.062 23.3798C236.592 20.6315 241.706 18.1522 248.034 16.0682C260.689 11.9006 278.178 9.32119 297.5 9.32119C316.822 9.32119 334.311 11.9006 346.966 16.0682C353.294 18.1522 358.408 20.6315 361.938 23.3798C365.469 26.1291 367.4 29.1355 367.4 32.2742Z" stroke="#FDF19B" stroke-width="0.2"/>
<path opacity="0.929293" d="M364.9 29.9692C364.9 32.948 363.039 35.8028 359.635 38.4144C356.231 41.0249 351.301 43.3801 345.199 45.3599C332.996 49.319 316.132 51.7695 297.5 51.7695C278.868 51.7695 262.004 49.319 249.801 45.3599C243.699 43.3801 238.769 41.0249 235.365 38.4144C231.961 35.8028 230.1 32.948 230.1 29.9692C230.1 26.9903 231.961 24.1355 235.365 21.5239C238.769 18.9134 243.699 16.5582 249.801 14.5784C262.004 10.6193 278.868 8.16885 297.5 8.16885C316.132 8.16885 332.996 10.6193 345.199 14.5784C351.301 16.5582 356.231 18.9134 359.635 21.5239C363.039 24.1355 364.9 26.9903 364.9 29.9692Z" stroke="#FDF19B" stroke-width="0.2"/>
<path opacity="0.939394" d="M362.4 27.6637C362.4 30.4827 360.61 33.1858 357.332 35.6598C354.055 38.1326 349.307 40.3637 343.432 42.2392C331.681 45.9899 315.442 48.3113 297.5 48.3113C279.558 48.3113 263.319 45.9899 251.568 42.2392C245.693 40.3637 240.945 38.1326 237.668 35.6598C234.39 33.1858 232.6 30.4827 232.6 27.6637C232.6 24.8447 234.39 22.1416 237.668 19.6676C240.945 17.1948 245.693 14.9636 251.568 13.0881C263.319 9.33746 279.558 7.01602 297.5 7.01602C315.442 7.01602 331.681 9.33746 343.432 13.0881C349.307 14.9636 354.055 17.1948 357.332 19.6676C360.61 22.1416 362.4 24.8447 362.4 27.6637Z" stroke="#FDF19B" stroke-width="0.2"/>
<path opacity="0.949495" d="M359.9 25.3582C359.9 28.0172 358.181 30.5687 355.029 32.9051C351.879 35.2402 347.314 37.3473 341.664 39.1185C330.366 42.6608 314.752 44.8532 297.5 44.8532C280.248 44.8532 264.634 42.6608 253.336 39.1185C247.686 37.3473 243.121 35.2402 239.971 32.9051C236.819 30.5687 235.1 28.0172 235.1 25.3582C235.1 22.6992 236.819 20.1477 239.971 17.8113C243.121 15.4762 247.686 13.3691 253.336 11.5979C264.634 8.05564 280.248 5.86318 297.5 5.86318C314.752 5.86318 330.366 8.05564 341.664 11.5979C347.314 13.3691 351.879 15.4762 355.029 17.8113C358.181 20.1477 359.9 22.6992 359.9 25.3582Z" stroke="#FDF19B" stroke-width="0.2"/>
<path opacity="0.959596" d="M357.4 23.0527C357.4 25.5517 355.752 27.9515 352.726 30.1504C349.702 32.3478 345.321 34.3308 339.897 35.9979C329.051 39.3316 314.061 41.3951 297.5 41.3951C280.939 41.3951 265.949 39.3316 255.103 35.9979C249.679 34.3308 245.298 32.3478 242.274 30.1504C239.248 27.9515 237.6 25.5517 237.6 23.0527C237.6 20.5537 239.248 18.154 242.274 15.955C245.298 13.7577 249.679 11.7746 255.103 10.1076C265.949 6.77383 280.939 4.71035 297.5 4.71035C314.061 4.71035 329.051 6.77383 339.897 10.1076C345.321 11.7746 349.702 13.7577 352.726 15.955C355.752 18.154 357.4 20.5537 357.4 23.0527Z" stroke="#FDF19B" stroke-width="0.2"/>
<path opacity="0.969697" d="M354.9 20.7477C354.9 23.0866 353.323 25.3347 350.423 27.3962C347.526 29.4558 343.327 31.3148 338.13 32.8776C327.736 36.0029 313.371 37.9374 297.5 37.9374C281.629 37.9374 267.264 36.0029 256.87 32.8776C251.673 31.3148 247.474 29.4558 244.577 27.3962C241.677 25.3347 240.1 23.0866 240.1 20.7477C240.1 18.4089 241.677 16.1608 244.577 14.0993C247.474 12.0396 251.673 10.1807 256.87 8.61781C267.264 5.49251 281.629 3.55801 297.5 3.55801C313.371 3.55801 327.736 5.49251 338.13 8.61781C343.327 10.1807 347.526 12.0396 350.423 14.0993C353.323 16.1608 354.9 18.4089 354.9 20.7477Z" stroke="#FDF19B" stroke-width="0.2"/>
<path opacity="0.979798" d="M352.4 18.4422C352.4 20.6208 350.895 22.7173 348.121 24.6414C345.35 26.5634 341.334 28.2983 336.363 29.7569C326.421 32.6738 312.681 34.4793 297.5 34.4793C282.319 34.4793 268.579 32.6738 258.637 29.7569C253.666 28.2983 249.65 26.5634 246.879 24.6414C244.105 22.7173 242.6 20.6208 242.6 18.4422C242.6 16.2637 244.105 14.1672 246.879 12.2431C249.65 10.3211 253.666 8.5862 258.637 7.12757C268.579 4.2107 282.319 2.40518 297.5 2.40518C312.681 2.40518 326.421 4.2107 336.363 7.12757C341.334 8.5862 345.35 10.3211 348.121 12.2431C350.895 14.1672 352.4 16.2637 352.4 18.4422Z" stroke="#FDF19B" stroke-width="0.2"/>
<path opacity="0.989899" d="M349.9 16.1368C349.9 18.1549 348.466 20.0997 345.818 21.8865C343.174 23.6709 339.341 25.2818 334.596 26.6362C325.106 29.3446 311.991 31.0212 297.5 31.0212C283.009 31.0212 269.894 29.3446 260.404 26.6362C255.659 25.2818 251.826 23.6709 249.182 21.8865C246.534 20.0997 245.1 18.1549 245.1 16.1368C245.1 14.1186 246.534 12.1738 249.182 10.387C251.826 8.60265 255.659 6.99176 260.404 5.63734C269.894 2.92889 283.009 1.25234 297.5 1.25234C311.991 1.25234 325.106 2.92889 334.596 5.63734C339.341 6.99176 343.174 8.60265 345.818 10.387C348.466 12.1738 349.9 14.1186 349.9 16.1368Z" stroke="#FDF19B" stroke-width="0.2"/>
<path d="M347.4 13.8318C347.4 15.6893 346.038 17.4825 343.516 19.132C340.998 20.7788 337.348 22.2657 332.829 23.5159C323.791 26.016 311.301 27.5636 297.5 27.5636C283.699 27.5636 271.209 26.016 262.171 23.5159C257.652 22.2657 254.002 20.7788 251.484 19.132C248.962 17.4825 247.6 15.6893 247.6 13.8318C247.6 11.9743 248.962 10.181 251.484 8.53151C254.002 6.8847 257.652 5.39783 262.171 4.14761C271.209 1.64757 283.699 0.1 297.5 0.1C311.301 0.1 323.791 1.64757 332.829 4.14761C337.348 5.39783 340.998 6.8847 343.516 8.53151C346.038 10.181 347.4 11.9743 347.4 13.8318Z" stroke="#FDF19B" stroke-width="0.2"/>
</svg>
