<svg width="460" height="320" viewBox="0 0 460 320" fill="none" xmlns="http://www.w3.org/2000/svg">
<rect width="460" height="320" rx="16" fill="url(#paint0_linear_80_560)"/>
<rect width="460" height="320" rx="16" fill="url(#paint1_linear_80_560)"/>
<path d="M83.1344 261.637H49.5483C47.7747 261.635 46.0743 260.929 44.8207 259.675C43.5672 258.42 42.863 256.719 42.863 254.945V254.945C42.863 253.172 43.5674 251.472 44.8211 250.218C46.0748 248.964 47.7752 248.26 49.5483 248.26H83.1344C84.908 248.26 86.6091 248.964 87.8638 250.218C89.1185 251.471 89.8242 253.172 89.8258 254.945V254.945C89.8258 255.824 89.6527 256.694 89.3165 257.506C88.9802 258.318 88.4873 259.055 87.866 259.677C87.2446 260.298 86.507 260.791 85.6951 261.127C84.8833 261.464 84.0132 261.637 83.1344 261.637V261.637Z" stroke="#DDDDDD" stroke-miterlimit="10"/>
<path d="M169.673 115.891H151.396C146.579 115.891 142.673 119.797 142.673 124.614V124.62C142.673 129.438 146.579 133.343 151.396 133.343H169.673C174.49 133.343 178.396 129.438 178.396 124.62V124.614C178.396 119.797 174.49 115.891 169.673 115.891Z" stroke="#DDDDDD" stroke-miterlimit="10"/>
<path d="M238.076 44.9823H204.49C202.717 44.9823 201.017 44.278 199.763 43.0243C198.509 41.7705 197.805 40.0701 197.805 38.2971V38.2971C197.804 37.4187 197.976 36.5487 198.312 35.7369C198.648 34.9251 199.14 34.1874 199.761 33.5659C200.382 32.9445 201.119 32.4515 201.93 32.1152C202.742 31.7788 203.612 31.6057 204.49 31.6057H238.076C238.956 31.6049 239.826 31.7774 240.639 32.1133C241.451 32.4492 242.19 32.942 242.812 33.5634C243.434 34.1848 243.927 34.9228 244.264 35.735C244.601 36.5472 244.774 37.4179 244.774 38.2971V38.2971C244.773 39.1758 244.599 40.0458 244.262 40.8573C243.925 41.6688 243.432 42.406 242.81 43.0268C242.188 43.6476 241.45 44.1398 240.637 44.4753C239.825 44.8109 238.955 44.9831 238.076 44.9823V44.9823Z" stroke="#DDDDDD" stroke-miterlimit="10"/>
<path d="M342.184 227.183H315.098C314.293 227.183 313.521 226.863 312.952 226.294C312.383 225.725 312.063 224.953 312.063 224.148V224.148C312.063 223.343 312.383 222.571 312.952 222.002C313.521 221.433 314.293 221.113 315.098 221.113H342.184C342.989 221.113 343.761 221.433 344.33 222.002C344.899 222.571 345.219 223.343 345.219 224.148V224.148C345.219 224.953 344.899 225.725 344.33 226.294C343.761 226.863 342.989 227.183 342.184 227.183V227.183Z" stroke="#DDDDDD" stroke-miterlimit="10"/>
<path d="M118.703 69.6182H91.6171C90.8122 69.6182 90.0403 69.2985 89.4711 68.7294C88.902 68.1602 88.5823 67.3883 88.5823 66.5834V66.5834C88.5823 66.1849 88.6608 65.7902 88.8133 65.422C88.9658 65.0538 89.1893 64.7193 89.4711 64.4375C89.753 64.1557 90.0875 63.9321 90.4557 63.7796C90.8239 63.6271 91.2186 63.5486 91.6171 63.5486H118.703C119.101 63.5486 119.496 63.6271 119.864 63.7796C120.232 63.9321 120.567 64.1557 120.849 64.4375C121.13 64.7193 121.354 65.0538 121.507 65.422C121.659 65.7902 121.738 66.1849 121.738 66.5834V66.5834C121.738 67.3883 121.418 68.1602 120.849 68.7294C120.28 69.2985 119.508 69.6182 118.703 69.6182V69.6182Z" stroke="#DDDDDD" stroke-miterlimit="10"/>
<path d="M386.259 21.4242C394.484 25.3578 399.907 20.8086 404.671 18.531C406.676 17.5647 408.954 17.325 411.115 17.8527C413.277 18.3805 415.188 19.643 416.521 21.4242L416.152 39.1407C416.152 39.1407 409.424 36.7522 405.595 39.1407C401.766 41.5291 397.186 47.4141 386.247 39.4669L386.259 21.4242Z" fill="#DDDDDD" stroke="#DDDDDD" stroke-width="2" stroke-linecap="round" stroke-linejoin="round"/>
<path d="M417.919 94.9308C417.464 94.9308 417.029 94.7507 416.707 94.43C416.385 94.1092 416.203 93.6739 416.201 93.2195V18.2477C416.201 18.0225 416.246 17.7994 416.332 17.5914C416.419 17.3834 416.545 17.1944 416.705 17.0354C416.864 16.8764 417.054 16.7505 417.262 16.6649C417.47 16.5792 417.694 16.5356 417.919 16.5364V16.5364C418.144 16.5356 418.367 16.5792 418.576 16.6649C418.784 16.7505 418.973 16.8764 419.133 17.0354C419.293 17.1944 419.419 17.3834 419.506 17.5914C419.592 17.7994 419.636 18.0225 419.636 18.2477V93.2195C419.635 93.6739 419.453 94.1092 419.131 94.43C418.809 94.7507 418.373 94.9308 417.919 94.9308V94.9308Z" fill="#F9F9F9" stroke="#DDDDDD" stroke-width="2" stroke-linecap="round" stroke-linejoin="round"/>
<path d="M404.973 95.4973H431" stroke="#DDDDDD" stroke-width="2" stroke-linecap="round" stroke-linejoin="round"/>
<path d="M384.757 124.614H374.299V146.849H347.681V172.507" stroke="#DDDDDD" stroke-width="2" stroke-linecap="round" stroke-linejoin="round"/>
<path d="M176.223 269.122H149.599V291.185H110.023V305.657H29" stroke="#DDDDDD" stroke-width="2" stroke-linecap="round" stroke-linejoin="round"/>
<path d="M281.364 194.077V212.439H247.963V232.224H214.641V252.058H181.406V269.122" stroke="#DDDDDD" stroke-width="2" stroke-linecap="round" stroke-linejoin="round"/>
<path d="M340.152 172.894H312.285V194.076H291.232" stroke="#DDDDDD" stroke-width="2" stroke-linecap="round" stroke-linejoin="round"/>
<path d="M83.1344 261.637H49.5483C47.7747 261.635 46.0743 260.929 44.8207 259.675C43.5672 258.42 42.863 256.719 42.863 254.945V254.945C42.863 253.172 43.5674 251.472 44.8211 250.218C46.0748 248.964 47.7752 248.26 49.5483 248.26H83.1344C84.908 248.26 86.6091 248.964 87.8638 250.218C89.1185 251.471 89.8242 253.172 89.8258 254.945V254.945C89.8258 255.824 89.6527 256.694 89.3165 257.506C88.9802 258.318 88.4873 259.055 87.866 259.677C87.2446 260.298 86.507 260.791 85.6951 261.127C84.8833 261.464 84.0132 261.637 83.1344 261.637V261.637Z" stroke="#DDDDDD" stroke-miterlimit="10"/>
<path d="M169.673 115.891H151.396C146.579 115.891 142.673 119.797 142.673 124.614V124.62C142.673 129.438 146.579 133.343 151.396 133.343H169.673C174.49 133.343 178.396 129.438 178.396 124.62V124.614C178.396 119.797 174.49 115.891 169.673 115.891Z" stroke="#DDDDDD" stroke-miterlimit="10"/>
<path d="M238.076 44.9823H204.49C202.717 44.9823 201.017 44.278 199.763 43.0243C198.509 41.7705 197.805 40.0701 197.805 38.2971V38.2971C197.804 37.4187 197.976 36.5487 198.312 35.7369C198.648 34.9251 199.14 34.1874 199.761 33.5659C200.382 32.9445 201.119 32.4515 201.93 32.1152C202.742 31.7788 203.612 31.6057 204.49 31.6057H238.076C238.956 31.6049 239.826 31.7774 240.639 32.1133C241.451 32.4492 242.19 32.942 242.812 33.5634C243.434 34.1848 243.927 34.9228 244.264 35.735C244.601 36.5472 244.774 37.4179 244.774 38.2971V38.2971C244.773 39.1758 244.599 40.0458 244.262 40.8573C243.925 41.6688 243.432 42.406 242.81 43.0268C242.188 43.6476 241.45 44.1398 240.637 44.4753C239.825 44.8109 238.955 44.9831 238.076 44.9823V44.9823Z" stroke="#DDDDDD" stroke-miterlimit="10"/>
<path d="M342.184 227.183H315.098C314.293 227.183 313.521 226.863 312.952 226.294C312.383 225.725 312.063 224.953 312.063 224.148V224.148C312.063 223.343 312.383 222.571 312.952 222.002C313.521 221.433 314.293 221.113 315.098 221.113H342.184C342.989 221.113 343.761 221.433 344.33 222.002C344.899 222.571 345.219 223.343 345.219 224.148V224.148C345.219 224.953 344.899 225.725 344.33 226.294C343.761 226.863 342.989 227.183 342.184 227.183V227.183Z" stroke="#DDDDDD" stroke-miterlimit="10"/>
<path d="M118.703 69.6182H91.6171C90.8122 69.6182 90.0403 69.2985 89.4711 68.7294C88.902 68.1602 88.5823 67.3883 88.5823 66.5834V66.5834C88.5823 66.1849 88.6608 65.7902 88.8133 65.422C88.9658 65.0538 89.1893 64.7193 89.4711 64.4375C89.753 64.1557 90.0875 63.9321 90.4557 63.7796C90.8239 63.6271 91.2186 63.5486 91.6171 63.5486H118.703C119.101 63.5486 119.496 63.6271 119.864 63.7796C120.232 63.9321 120.567 64.1557 120.849 64.4375C121.13 64.7193 121.354 65.0538 121.507 65.422C121.659 65.7902 121.738 66.1849 121.738 66.5834V66.5834C121.738 67.3883 121.418 68.1602 120.849 68.7294C120.28 69.2985 119.508 69.6182 118.703 69.6182V69.6182Z" stroke="#DDDDDD" stroke-miterlimit="10"/>
<path d="M386.259 21.4242C394.484 25.3578 399.907 20.8086 404.671 18.531C406.676 17.5647 408.954 17.325 411.115 17.8527C413.277 18.3805 415.188 19.643 416.521 21.4242L416.152 39.1407C416.152 39.1407 409.424 36.7522 405.595 39.1407C401.766 41.5291 397.186 47.4141 386.247 39.4669L386.259 21.4242Z" fill="#DDDDDD" stroke="#DDDDDD" stroke-width="2" stroke-linecap="round" stroke-linejoin="round"/>
<path d="M417.919 94.9308C417.464 94.9308 417.029 94.7507 416.707 94.43C416.385 94.1092 416.203 93.6739 416.201 93.2195V18.2477C416.201 18.0225 416.246 17.7994 416.332 17.5914C416.419 17.3834 416.545 17.1944 416.705 17.0354C416.864 16.8764 417.054 16.7505 417.262 16.6649C417.47 16.5792 417.694 16.5356 417.919 16.5364V16.5364C418.144 16.5356 418.367 16.5792 418.576 16.6649C418.784 16.7505 418.973 16.8764 419.133 17.0354C419.293 17.1944 419.419 17.3834 419.506 17.5914C419.592 17.7994 419.636 18.0225 419.636 18.2477V93.2195C419.635 93.6739 419.453 94.1092 419.131 94.43C418.809 94.7507 418.373 94.9308 417.919 94.9308V94.9308Z" fill="#F9F9F9" stroke="#DDDDDD" stroke-width="2" stroke-linecap="round" stroke-linejoin="round"/>
<path d="M404.973 95.4973H431" stroke="#DDDDDD" stroke-width="2" stroke-linecap="round" stroke-linejoin="round"/>
<path d="M384.757 124.614H374.299V146.849H347.681V172.507" stroke="#DDDDDD" stroke-width="2" stroke-linecap="round" stroke-linejoin="round"/>
<path d="M176.223 269.122H149.599V291.185H110.023V305.657H29" stroke="#DDDDDD" stroke-width="2" stroke-linecap="round" stroke-linejoin="round"/>
<path d="M281.364 194.077V212.439H247.963V232.224H214.641V252.058H181.406V269.122" stroke="#DDDDDD" stroke-width="2" stroke-linecap="round" stroke-linejoin="round"/>
<path d="M340.152 172.894H312.285V194.076H291.232" stroke="#DDDDDD" stroke-width="2" stroke-linecap="round" stroke-linejoin="round"/>
<path d="M319.247 22.9401C315.554 23.6788 314.22 27.3517 314.015 29.0959H316.785C320.581 31.353 328.604 35.2517 330.328 32.7894C332.482 29.7115 329.096 24.479 326.019 22.9401C322.941 21.4011 323.864 22.0167 319.247 22.9401Z" fill="#7F542D"/>
<path d="M327.034 32.4738C327.034 32.4738 326.911 32.757 326.689 33.2371C326.468 33.7173 326.252 34.142 325.932 34.7453C325.717 35.1639 325.477 35.6133 325.206 36.0873C325.046 36.3766 324.873 36.7029 324.689 36.9799L324.51 37.2692C324.104 37.9402 323.655 38.6358 323.162 39.3191C322.817 39.7992 322.454 40.2794 322.073 40.7411C319.081 44.3669 316.569 42.8464 316.569 42.8464C315.868 43.4564 315.286 44.1911 314.852 45.0132C314.244 46.1393 313.804 47.3485 313.547 48.6021C306.486 53.7483 302.005 46.9646 304.104 40.9319C306.96 38.2417 309.508 35.2417 311.7 31.9875C309.422 28.9588 313.214 26.318 314.956 28.0539L318.73 26.3057C326.683 24.2004 327.034 32.4738 327.034 32.4738Z" fill="#FEBD9D"/>
<path d="M315.246 31.5441C315.492 30.3129 314.733 28.3636 314.323 27.5428L317.093 26.0039L320.786 24.7727C318.837 27.5428 315 32.7753 315.246 31.5441Z" fill="#7F542D"/>
<path d="M312.716 28.8171C313.713 28.8171 314.562 29.2234 314.371 30.7562" stroke="#F4A789" stroke-width="0.75" stroke-linecap="round" stroke-linejoin="round"/>
<path d="M313.719 31.4826C312.272 30.5838 313.54 29.4019 314.335 30.1468" stroke="#F4A789" stroke-width="0.75" stroke-linecap="round" stroke-linejoin="round"/>
<path d="M320.798 39.1406C319.758 38.8143 319.309 37.497 319.567 36.3582C316.797 38.2911 318.865 40.5811 320.798 39.1406Z" fill="white" stroke="#F4A789" stroke-width="0.75" stroke-linecap="round" stroke-linejoin="round"/>
<path d="M321.512 37.5339C322.448 37.5339 323.267 37.694 323.488 35.9272C323.543 35.4242 323.719 34.9419 324.001 34.5217C324.283 34.1014 324.663 33.7557 325.107 33.5142" stroke="#F4A789" stroke-width="0.75" stroke-linecap="round" stroke-linejoin="round"/>
<path d="M311.7 31.9875C312.04 32.4632 312.517 32.824 313.067 33.0217" stroke="#F4A789" stroke-width="0.75" stroke-linecap="round" stroke-linejoin="round"/>
<path d="M321.438 34.2528C321.438 34.3745 321.475 34.4936 321.542 34.5948C321.61 34.696 321.706 34.7749 321.818 34.8215C321.931 34.8681 322.055 34.8803 322.174 34.8565C322.294 34.8328 322.403 34.7742 322.489 34.6881C322.575 34.602 322.634 34.4923 322.658 34.3729C322.682 34.2535 322.669 34.1297 322.623 34.0172C322.576 33.9047 322.497 33.8086 322.396 33.741C322.295 33.6733 322.176 33.6372 322.054 33.6372C321.891 33.6372 321.734 33.7021 321.619 33.8175C321.503 33.933 321.438 34.0895 321.438 34.2528Z" fill="#683F1D"/>
<path d="M325.206 36.0996C325.046 36.389 324.874 36.7152 324.689 36.9922H324.646C324.483 36.9922 324.326 36.9274 324.211 36.8119C324.095 36.6965 324.03 36.5399 324.03 36.3767C324.03 36.2134 324.095 36.0568 324.211 35.9414C324.326 35.8259 324.483 35.7611 324.646 35.7611C324.762 35.7591 324.876 35.7898 324.975 35.8497C325.074 35.9096 325.154 35.9962 325.206 36.0996Z" fill="#683F1D"/>
<path d="M321.204 31.1752C320.909 32.0678 323.667 33.0219 324.079 32.0985C324.492 31.1752 321.58 30.0117 321.204 31.1752Z" fill="#683F1D"/>
<path d="M326.69 33.2372C326.505 33.6251 326.253 34.1422 325.932 34.7454C325.385 34.1298 324.88 33.3173 325.058 33.0033C325.341 32.5047 326.111 32.8556 326.69 33.2372Z" fill="#683F1D"/>
<path d="M316.569 42.8708C315.868 43.4809 315.286 44.2156 314.852 45.0377C311.282 42.3476 313.553 39.282 313.553 39.282C314.176 40.7538 315.227 42.0042 316.569 42.8708V42.8708Z" fill="#F4A789"/>
<path d="M330.685 31.8892C330.635 32.8925 329.712 33.8959 328.155 33.9206C326.708 33.9206 325.643 32.2893 325.883 30.6826C325.883 30.6826 323.421 31.2551 323.008 28.0479C323.008 28.0479 321.002 29.6854 319.93 27.026C318.718 28.0973 317.609 29.2803 316.619 30.5595C315.387 32.2831 314.772 32.043 314.735 31.3105C314.698 30.578 315.467 29.3653 315.56 29.2175C316.359 28.7287 317.026 28.0526 317.505 27.2477C319.069 24.9146 320.675 23.4741 322.06 25.1978C323.445 26.9214 325.046 25.1978 325.655 27.2846C326.234 29.2852 327.539 32.3693 330.685 31.8892Z" fill="#683F1D"/>
<path d="M321.722 22.3047C321.802 24.1083 320.208 26.2752 320.208 26.2752" stroke="#7F542D" stroke-width="0.75" stroke-linecap="round" stroke-linejoin="round"/>
<path d="M323.507 27.3523C323.834 26.7543 324.289 26.2354 324.839 25.8323C325.389 25.4292 326.021 25.1517 326.689 25.0193" stroke="#7F542D" stroke-width="0.75" stroke-linecap="round" stroke-linejoin="round"/>
<path d="M326.191 30.1409C327.081 29.5972 328.116 29.3375 329.158 29.3961" stroke="#7F542D" stroke-width="0.75" stroke-linecap="round" stroke-linejoin="round"/>
<path d="M316.458 26.866C316.79 27.0101 317.081 27.2338 317.305 27.5173C317.53 27.8008 317.681 28.1353 317.745 28.4911" stroke="#7F542D" stroke-width="0.75" stroke-linecap="round" stroke-linejoin="round"/>
<path d="M319.075 35.2193C318.256 35.447 317.364 34.7699 317.074 33.7172C316.785 32.6646 317.216 31.6243 318.035 31.4027C318.853 31.181 319.752 31.852 320.035 32.9047C320.318 33.9573 319.875 34.9977 319.075 35.2193Z" fill="#F4A789"/>
<path d="M324.51 37.2693C324.104 37.9403 323.655 38.6359 323.162 39.3192C323.108 39.2088 323.073 39.0903 323.058 38.9683C323.058 38.5587 323.205 38.1627 323.471 37.8513C323.737 37.54 324.106 37.3337 324.51 37.2693V37.2693Z" fill="#F4A789"/>
<path d="M336.244 115.848C335.339 124.152 329.17 120.157 320.558 119.012L315.782 118.821L284.011 117.59L281.358 117.486L290.592 91.4465C311.011 97.5039 337.388 105.273 336.244 115.848Z" fill="#FDF19B"/>
<path d="M315.781 118.822L284.011 117.59L284.959 110.647L289.299 99.5046C289.299 99.5046 296.624 99.0614 294.396 105.47C292.167 111.878 293.06 116.421 304.633 113.398C311.626 111.558 314.556 115.454 315.781 118.822Z" fill="#FCC71F"/>
<path d="M298.643 81.6528C293.232 88.7012 290.302 103.974 289.625 113.14C289.139 119.739 288.148 136.735 285.667 150.949C277.104 169.312 265.303 160.638 265.968 147.699V147.631C267.119 138.151 266.584 130.038 265.531 126.646C264.103 122.14 260.576 107.119 259.991 100.957C258.674 87.4147 261.721 75.8663 266.147 69.2734L298.643 81.6528Z" fill="#FDF19B"/>
<path d="M289.299 117.781C289.428 115.934 289.539 114.377 289.625 113.164C290.058 107.862 290.91 102.603 292.174 97.436" stroke="#FCC71F" stroke-width="0.75" stroke-linecap="round" stroke-linejoin="round"/>
<path d="M269.397 79.0732C264.411 112.61 274.002 125.242 272.543 144.03C272.017 149.208 271.068 154.334 269.705 159.358" stroke="#FCC71F" stroke-width="0.75" stroke-linecap="round" stroke-linejoin="round"/>
<path d="M267.988 94.931C271.638 91.0585 273.758 85.9922 273.953 80.6741" stroke="#FCC71F" stroke-width="0.75" stroke-linecap="round" stroke-linejoin="round"/>
<path d="M289.779 86.719C289.779 86.719 288.216 93.9213 287.588 95.9527C287.588 95.9527 289.779 96.3036 290.561 94.9247C291.343 93.5458 292.808 87.5377 292.808 87.5377" stroke="#FCC71F" stroke-width="0.75" stroke-linecap="round" stroke-linejoin="round"/>
<path d="M326.197 72.5851L323.058 85.9432C322.196 90.357 321.962 93.9458 321.476 96.5559C320.805 100.2 319.629 102.047 315.683 101.838L315.523 101.794L314.957 101.641L314.581 101.53L314.089 101.364C313.873 101.284 313.664 101.204 313.473 101.117C313.116 100.974 312.767 100.811 312.426 100.631L312.057 100.428C311.51 100.121 310.993 99.7648 310.512 99.3629C310.417 99.2901 310.327 99.212 310.241 99.129C309.529 98.5061 308.916 97.7774 308.425 96.9683C308.288 96.7493 308.163 96.5233 308.05 96.2912C307.75 95.7025 307.515 95.0833 307.348 94.4444C307.317 94.3336 307.293 94.229 307.268 94.1243C307.243 94.0197 307.213 93.8781 307.194 93.7611C307.176 93.6442 307.157 93.5518 307.139 93.4472C307.053 92.9079 307.03 92.3604 307.071 91.8159C307.28 89.5629 310.069 66.3185 310.069 66.3185L311.091 63.7946L312.457 60.415L326.197 72.5851Z" fill="#404E6D"/>
<path d="M321.476 96.556C320.805 100.2 319.629 102.047 315.683 101.838L315.511 101.795L314.944 101.641L314.569 101.53L314.076 101.364C313.861 101.284 313.652 101.204 313.461 101.117C313.104 100.974 312.754 100.811 312.414 100.631L312.045 100.428C311.498 100.121 310.981 99.7649 310.5 99.363C310.405 99.2902 310.315 99.2121 310.229 99.1291C309.516 98.5062 308.904 97.7775 308.413 96.9684C308.276 96.7494 308.151 96.5234 308.037 96.2913C307.738 95.7026 307.503 95.0834 307.336 94.4445C307.305 94.3337 307.28 94.2291 307.256 94.1244C307.231 94.0198 307.2 93.8782 307.182 93.7612C307.163 93.6443 307.145 93.5519 307.126 93.4473C307.041 92.908 307.018 92.3605 307.059 91.816C307.268 89.563 310.057 66.3186 310.057 66.3186L311.078 63.7947C313.288 68.0237 315.905 74.8752 312.857 79.5351C308.167 86.7128 308.856 98.3596 318.158 96.8453C319.255 96.6636 320.364 96.5669 321.476 96.556Z" fill="#404E6D"/>
<path d="M317.08 62.0033C316.26 62.6436 315.439 63.333 314.618 64.0717C306.763 71.2063 299.629 82.5392 297.616 83.7703C294.716 85.5063 287.92 84.509 281.401 82.8531C276.496 81.6337 271.689 80.0472 267.021 78.107C263.075 76.2602 262.097 75.1214 262.755 73.6563C263.414 72.1912 267.335 63.0375 267.335 63.0375L266.369 62.0834L255.676 51.5446C262.01 46.7677 270.302 41.4306 277.917 38.4635C283.082 36.4567 287.926 35.5456 291.638 36.6167L317.08 62.0033Z" fill="#404E6D"/>
<path d="M317.08 62.0033C316.259 62.6435 315.439 63.333 314.618 64.0717C306.357 64.2071 298.477 69.8335 291.515 63.7885C282.897 56.3092 290.696 50.7689 285.359 43.4743C283.478 41.0547 280.879 39.2921 277.935 38.4388C283.1 36.432 287.945 35.521 291.657 36.5921L317.08 62.0033Z" fill="#404E6D"/>
<path d="M281.407 82.8409C276.502 81.6214 271.695 80.0349 267.027 78.0947C263.081 76.248 262.103 75.1092 262.761 73.6441C263.42 72.179 267.341 63.0253 267.341 63.0253L266.375 62.0711C269.453 58.8332 273.719 54.3394 273.953 54.0686C274.328 53.6253 283.334 56.6294 283.334 56.6294C283.334 56.6294 283.032 66.7065 274.79 67.6668C266.547 68.6271 268.018 75.1892 275.325 76.0818C280.022 76.642 281.18 80.2862 281.407 82.8409Z" fill="#404E6D"/>
<path d="M256.267 51.0953C243.21 58.6731 254.285 84.5584 283.063 58.7101C286.098 44.1638 269.748 42.3356 256.267 51.0953Z" fill="#404E6D"/>
<path d="M317.08 62.0034C314.691 63.9032 312.471 66.0061 310.444 68.2885" stroke="#2A2D33" stroke-width="0.75" stroke-linecap="round" stroke-linejoin="round"/>
<path d="M254.008 199.34C254.008 199.34 248.467 206.573 249.255 212.439H275.639C275.639 212.439 263.906 205.582 263.297 200.559L254.008 199.34Z" fill="#683F1D"/>
<path d="M285.932 149.398C285.846 149.927 285.76 150.45 285.667 150.967C284.707 156.508 283.519 161.592 282.048 165.501C276.784 179.475 267.889 201.334 267.889 201.334L250.93 199.925C252.161 196.619 258.317 182.577 264.22 157.406C264.975 154.195 265.548 150.944 265.938 147.668C265.969 147.434 265.993 147.194 266.018 146.96C267.292 139.333 283.439 131.989 285.932 149.398Z" fill="#FDF19B"/>
<path d="M272.697 139.579C272.697 141.032 272.666 142.509 272.549 144.03C271.084 162.83 256.236 199.635 256.119 200.362" stroke="#FCC71F" stroke-width="0.75" stroke-linecap="round" stroke-linejoin="round"/>
<path d="M318.521 159.789C318.521 159.789 316.009 167.028 316.766 172.895H340.158C340.158 172.895 328.432 166.037 327.847 161.008L318.521 159.789Z" fill="#683F1D"/>
<path d="M336.44 120.785C334.513 135.202 330.826 161.832 330.826 161.832H315.504L320.558 119.012C320.626 111.558 325.686 103.623 330.857 107.095C337.979 111.909 336.816 117.972 336.44 120.785Z" fill="#FDF19B"/>
<path d="M348.352 102.718C348.352 102.718 342.196 102.939 334.975 102.939C329.023 102.939 322.356 102.792 317.88 102.238C317.536 102.195 317.203 102.145 316.877 102.084C316.729 102.084 316.582 102.035 316.44 102.004C316.298 101.973 316.194 101.961 316.071 101.93C315.855 101.887 315.646 101.831 315.455 101.782L314.839 101.604L314.698 101.561L314.175 101.382L314.082 101.351L313.467 101.117C313.444 101.112 313.423 101.102 313.405 101.087C306.424 96.6421 306.215 91.7605 310.026 88.7749C312.703 86.645 317.376 85.4508 323.082 85.974L347.287 90.8187L348.352 102.718Z" fill="#404E6D"/>
<path d="M334.975 102.939C329.023 102.939 322.356 102.792 317.88 102.238C317.536 102.195 317.203 102.145 316.877 102.084C316.729 102.084 316.582 102.035 316.44 102.004C316.298 101.973 316.194 101.961 316.071 101.93C315.855 101.887 315.646 101.831 315.455 101.782L314.839 101.604L314.698 101.561L314.175 101.382L314.082 101.351L313.467 101.117C313.444 101.112 313.423 101.102 313.405 101.087C306.424 96.642 306.215 91.7605 310.026 88.7749C309.964 93.6996 312.42 97.8055 318.164 96.8698C326.031 95.5525 332.833 98.6796 334.975 102.939Z" fill="#404E6D"/>
<path d="M323.064 85.9619C321.433 85.6881 319.789 85.497 318.139 85.3894" stroke="#2A2D33" stroke-width="0.75" stroke-linecap="round" stroke-linejoin="round"/>
<path d="M384.757 124.614L377.684 121.838L366.985 117.627C366.985 117.627 312.753 63.9424 286.775 38.1557C279.628 31.058 274.617 26.078 273.466 24.9084C269.637 21.0056 278.705 10.75 283.549 15.0221C283.925 15.3607 288.954 20.2361 296.514 27.5923C322.485 52.8312 378.386 107.347 378.386 107.347L382.129 117.467L384.757 124.614Z" fill="#F9F9F9" stroke="#DDDDDD" stroke-width="2" stroke-linecap="round" stroke-linejoin="round"/>
<path d="M300.977 38.7405L370.697 106.19" stroke="#DDDDDD" stroke-linecap="round" stroke-linejoin="round"/>
<path d="M298.003 43.302L367.109 110.16" stroke="#DDDDDD" stroke-linecap="round" stroke-linejoin="round"/>
<path d="M382.11 117.467C380.174 118.368 378.61 119.913 377.684 121.838L366.985 117.627C366.985 117.627 367.281 114.063 371.233 114.611C370.383 112.303 372.089 109.686 375.006 111.57C375.006 111.57 374.391 107.809 378.367 107.347L382.11 117.467Z" fill="#F9F9F9" stroke="#DDDDDD" stroke-width="2" stroke-linecap="round" stroke-linejoin="round"/>
<path d="M384.757 124.614L377.684 121.838C378.61 119.913 380.174 118.368 382.11 117.467L384.757 124.614Z" fill="#DDDDDD" stroke="#DDDDDD" stroke-width="2" stroke-linecap="round" stroke-linejoin="round"/>
<path d="M296.514 27.5923C293.269 31.1073 289.711 34.9793 286.775 38.1557C279.628 31.058 274.617 26.078 273.466 24.9084C269.637 21.0056 278.705 10.75 283.549 15.0221C283.925 15.3607 288.954 20.2361 296.514 27.5923Z" stroke="#DDDDDD" stroke-width="2" stroke-linecap="round" stroke-linejoin="round"/>
<path d="M292.956 24.1326L282.989 34.4005" stroke="#DDDDDD" stroke-width="2" stroke-linecap="round" stroke-linejoin="round"/>
<path d="M342.83 94.9309C348.204 90.4248 349.423 90.4802 349.922 91.0712C350.42 91.6621 348.192 94.2476 347.459 94.9309C347.459 94.9309 352.008 91.5205 353.326 92.3393C354.643 93.158 352.913 94.9309 352.913 94.9309C352.913 94.9309 355.45 94.8878 353.818 97.6148C353.818 97.6148 355.136 97.6148 354.366 98.9752C353.597 100.336 348.869 103.58 347.145 102.755C345.422 101.93 340.232 97.1162 342.83 94.9309Z" fill="#FEBD9D"/>
<path d="M345.163 93.0597C348.586 90.4558 349.472 90.5973 349.922 91.0713C350.371 91.5453 348.192 94.2478 347.459 94.9311C347.459 94.9311 352.008 91.5207 353.326 92.3394C354.643 93.1582 352.913 94.9311 352.913 94.9311C352.913 94.9311 355.449 94.888 353.818 97.615C353.818 97.615 355.136 97.615 354.366 98.9754" stroke="#F4A789" stroke-width="0.75" stroke-linecap="round" stroke-linejoin="round"/>
<path d="M352.919 94.9309L348.118 98.0334" stroke="#F4A789" stroke-width="0.75" stroke-linecap="round" stroke-linejoin="round"/>
<path d="M349.392 100.373L353.824 97.6147" stroke="#F4A789" stroke-width="0.75" stroke-linecap="round" stroke-linejoin="round"/>
<path d="M347.465 94.9309L346.074 96.0697" stroke="#F4A789" stroke-width="0.75" stroke-linecap="round" stroke-linejoin="round"/>
<path d="M291.14 56.5924C291.721 54.0951 291.653 51.4905 290.943 49.0269L285.519 51.6123C285.519 51.6123 287.495 57.0294 291.14 56.5924Z" fill="#404E6D"/>
<path d="M285.446 42.1384C286.968 41.9855 288.48 41.7347 289.97 41.3874C290.296 41.2027 292.636 39.3314 293.664 38.6542C294.692 37.9771 298.871 35.2747 299.265 35.5271C299.659 35.7795 299.801 37.0045 299.05 37.9032C299.05 37.9032 303.611 35.9641 305.581 35.7302C307.188 35.5394 306.874 37.0537 305.797 37.7493C307.52 36.986 309.57 37.7493 307.237 39.4114C308.813 39.1405 309.632 40.3532 307.163 42.1384C308.53 41.3874 309.459 42.4093 308.204 43.6835C306.16 45.7642 301.956 47.377 300.626 47.8818C299.296 48.3866 290.869 50.258 287.6 52.1047C287.6 52.1047 284.787 47.0508 285.446 42.1384Z" fill="#FEBD9D"/>
<path d="M293.67 38.6542C294.71 37.9771 298.878 35.2747 299.272 35.5271C299.665 35.7795 299.807 37.0045 299.056 37.9032C299.056 37.9032 303.617 35.9641 305.587 35.7302C307.194 35.5394 306.88 37.0537 305.803 37.7493C307.526 36.986 309.576 37.7493 307.243 39.4114C308.819 39.1405 309.638 40.3532 307.169 42.1384C308.536 41.3874 309.466 42.4093 308.21 43.6835" stroke="#F4A789" stroke-width="0.75" stroke-linecap="round" stroke-linejoin="round"/>
<path d="M299.056 37.9033L296.698 39.0606" stroke="#F4A789" stroke-width="0.75" stroke-linecap="round" stroke-linejoin="round"/>
<path d="M305.803 37.7495L300.977 39.9902" stroke="#F4A789" stroke-width="0.75" stroke-linecap="round" stroke-linejoin="round"/>
<path d="M307.243 39.4116L302.005 42.1387" stroke="#F4A789" stroke-width="0.75" stroke-linecap="round" stroke-linejoin="round"/>
<path d="M307.169 42.1384L303.063 44.4715" stroke="#F4A789" stroke-width="0.75" stroke-linecap="round" stroke-linejoin="round"/>
<path d="M287.865 40.4578C279.437 41.3134 264.232 43.8373 252.832 52.0861C248.418 55.2748 248.486 68.7068 260.533 67.5926C272.58 66.4784 291.158 56.5922 291.158 56.5922C291.158 56.5922 286.381 55.5395 287.865 40.4578Z" fill="#404E6D"/>
<path d="M267.988 66.1152C279 63.0373 291.14 56.5922 291.14 56.5922C291.14 56.5922 286.381 55.5395 287.846 40.4578C281.4 41.0815 275.035 42.3624 268.849 44.2805" stroke="#2A2D33" stroke-width="0.75" stroke-linecap="round" stroke-linejoin="round"/>
<path d="M207.027 173.51C207.027 173.51 189.562 212.827 180.901 229.072C166.472 239.242 164.225 228.777 166.521 220.356C167.518 218.275 170.449 208.98 173.514 198.484C176.112 189.583 178.802 179.826 180.495 172.894L200.249 173.35L207.027 173.51Z" fill="#83ADDF"/>
<path d="M200.778 175.837C199.042 188.284 183.837 181.082 182.366 188.284C181.634 191.885 178.845 195.486 173.514 198.509C176.112 189.607 178.802 179.85 180.495 172.919L200.249 173.374C200.738 174.096 200.928 174.978 200.778 175.837V175.837Z" fill="#83ADDF"/>
<path d="M187.925 182.165C186.318 182.904 187.309 183.809 187.765 185.151C188.22 186.493 185.838 186.166 185.918 187.982C185.998 189.798 186.879 188.783 185.918 191.516C184.989 194.157 174.45 220.688 170.836 226.487" stroke="#A7CAF0" stroke-width="0.75" stroke-linecap="round" stroke-linejoin="round"/>
<path d="M228.449 173.738C228.449 173.738 206.903 178.17 192.265 179.536C183.32 180.38 177.312 177.443 174.382 173.03C173.454 171.618 172.813 170.037 172.497 168.378C172.18 166.719 172.193 165.013 172.535 163.359C179.812 154.741 188.3 152.192 195.361 151.915C200.366 151.725 205.355 152.596 210 154.47C227.741 152.962 237.652 153.713 242.989 156.015C252.161 166.972 241.222 171.004 228.449 173.738Z" fill="#83ADDF"/>
<path d="M182.809 156.785C182.477 162.94 184.989 165.077 198.236 164.886C212.813 164.676 233.146 163.347 234.235 163.538C236.457 163.925 232.136 167.447 233.663 167.502C235.676 167.582 237.849 167.877 236.741 169.256C235.633 170.635 234.438 171.195 235.257 172.051" stroke="#A7CAF0" stroke-width="0.75" stroke-linecap="round" stroke-linejoin="round"/>
<path d="M179.135 177.345C182.379 179.143 186.768 180.054 192.265 179.543C198.131 178.995 205.1 177.955 211.348 176.902" stroke="#83ADDF" stroke-width="0.75" stroke-linecap="round" stroke-linejoin="round"/>
<path d="M233.343 146.905C232.918 148.604 231.736 150.198 229.397 151.485C229.12 151.571 228.836 151.651 228.553 151.725C228.27 151.798 228.03 151.842 227.765 151.891L227.273 151.959L226.934 151.995H226.768C226.485 151.995 226.202 152.026 225.919 152.026C221.345 152.026 216.408 149.102 212.708 141.149C212.708 141.149 210.381 145.569 209.741 148.407C209.647 148.784 209.591 149.169 209.575 149.558C209.548 151.211 209.7 152.862 210.03 154.482C210.03 154.482 200.914 154.581 194.838 156.366C188.762 158.151 181.948 161.457 172.566 163.371C172.566 163.371 173.028 159.062 174.616 156.834C174.019 156.616 173.512 156.204 173.178 155.663C172.843 155.123 172.699 154.486 172.769 153.855C172.979 152.094 174.727 151.306 176.943 147.89C177.66 146.774 178.297 145.61 178.851 144.405C182.348 136.877 181.554 134.956 181.098 134.23L176.906 138.736C169.377 146.818 154.246 163.039 153.212 164.03C151.821 165.354 149.654 165.877 148.866 165.347C148.386 165.027 145.173 167.588 142.71 169.657C141.104 171.011 139.811 172.156 139.811 172.156L130.626 166.616C130.626 166.616 133.212 164.473 135.884 162.202C138.709 159.807 141.633 157.277 141.725 156.969C141.922 156.354 141.325 154.833 142.643 153.454C143.818 152.223 166.207 127.071 173.951 118.157C174.955 117 175.718 116.119 176.149 115.596C179.922 111.047 182.194 108.825 187.623 107.477L214.136 108.049C214.136 108.049 221.763 106.652 223.37 111.429C223.598 112.13 223.838 113.091 224.084 114.23C225.512 120.915 226.996 133.633 226.996 133.633C226.996 133.633 234.82 140.909 233.343 146.905Z" fill="#F797FF"/>
<path d="M142.673 169.681C141.067 171.036 139.774 172.181 139.774 172.181L130.59 166.64C130.59 166.64 133.175 164.498 135.847 162.227C138.638 164.184 140.968 166.729 142.673 169.681V169.681Z" fill="#B25E47"/>
<path d="M187.808 126.923C187.808 130.068 186.183 134.581 184.287 136.267C181.972 138.311 185.457 145.729 181.585 147.865C180.887 148.304 180.079 148.537 179.255 148.537C178.43 148.537 177.622 148.304 176.925 147.865C177.641 146.75 178.279 145.585 178.833 144.381C182.329 136.852 181.535 134.932 181.08 134.205C183.721 131.478 186.189 128.739 187.808 126.923Z" fill="#BA6BF8"/>
<path d="M233.342 146.905C232.918 148.604 231.736 150.198 229.396 151.485C229.119 151.571 228.836 151.651 228.553 151.725C228.27 151.798 228.03 151.842 227.765 151.891L227.273 151.958L226.934 151.995H226.768C226.485 151.995 226.202 152.026 225.918 152.026C221.345 152.026 216.408 149.102 212.708 141.149C216.802 132.223 216.986 127.778 216.032 123.543C217.021 123.777 217.928 124.273 218.659 124.98C219.389 125.686 219.915 126.576 220.181 127.557C221.788 132.955 213.933 139.481 218.094 143.476C221.788 146.991 228.282 141.518 230.621 145.587C230.864 146.078 231.263 146.474 231.756 146.713C232.249 146.951 232.807 147.019 233.342 146.905Z" fill="#BA6BF8"/>
<path d="M224.029 114.211C221.499 114.008 218.28 114.543 216.494 117.904C213.25 124.06 202.471 132.063 194.918 122.589C189.015 115.202 183.678 114.66 173.915 118.114C174.918 116.956 175.681 116.076 176.112 115.553C179.886 111.004 182.157 108.781 187.587 107.433L214.1 108.006C214.1 108.006 221.727 106.608 223.334 111.385C223.543 112.112 223.783 113.047 224.029 114.211Z" fill="#F797FF"/>
<path d="M137.884 163.778L143.461 159.118" stroke="#BA6BF8" stroke-width="0.75" stroke-linecap="round" stroke-linejoin="round"/>
<path d="M139.928 165.834L145.314 161.241" stroke="#BA6BF8" stroke-width="0.75" stroke-linecap="round" stroke-linejoin="round"/>
<path d="M141.541 167.865L146.355 164.246" stroke="#BA6BF8" stroke-width="0.75" stroke-linecap="round" stroke-linejoin="round"/>
<path d="M175.515 162.688L176.925 157.16" stroke="#BA6BF8" stroke-width="0.75" stroke-linecap="round" stroke-linejoin="round"/>
<path d="M178.063 162.017L179.35 156.323" stroke="#BA6BF8" stroke-width="0.75" stroke-linecap="round" stroke-linejoin="round"/>
<path d="M180.495 161.291L181.584 156.323" stroke="#BA6BF8" stroke-width="0.75" stroke-linecap="round" stroke-linejoin="round"/>
<path d="M183.388 160.343L184.281 155.948" stroke="#BA6BF8" stroke-width="0.75" stroke-linecap="round" stroke-linejoin="round"/>
<path d="M186.22 159.345L186.798 155.387" stroke="#BA6BF8" stroke-width="0.75" stroke-linecap="round" stroke-linejoin="round"/>
<path d="M188.799 158.404L189.033 155.763" stroke="#BA6BF8" stroke-width="0.75" stroke-linecap="round" stroke-linejoin="round"/>
<path d="M189.685 124.743C189.685 124.743 188.971 125.574 187.808 126.898C186.189 128.745 183.72 131.453 181.08 134.193" stroke="#BA6BF8" stroke-width="0.75" stroke-linecap="round" stroke-linejoin="round"/>
<path d="M212.696 141.143C216.79 132.217 216.974 127.772 216.02 123.537C215.626 121.733 215.017 119.979 214.426 117.929" stroke="#BA6BF8" stroke-width="0.75" stroke-linecap="round" stroke-linejoin="round"/>
<path d="M185.61 112.038L189.686 109.305" stroke="#BA6BF8" stroke-width="0.75" stroke-linecap="round" stroke-linejoin="round"/>
<path d="M190.037 114.402L192.234 110.776" stroke="#BA6BF8" stroke-width="0.75" stroke-linecap="round" stroke-linejoin="round"/>
<path d="M193.865 115.313L194.918 111.804" stroke="#BA6BF8" stroke-width="0.75" stroke-linecap="round" stroke-linejoin="round"/>
<path d="M196.42 115.676L197.177 112.346" stroke="#BA6BF8" stroke-width="0.75" stroke-linecap="round" stroke-linejoin="round"/>
<path d="M198.931 116.218L199.387 112.678" stroke="#BA6BF8" stroke-width="0.75" stroke-linecap="round" stroke-linejoin="round"/>
<path d="M203.155 116.218V112.924" stroke="#BA6BF8" stroke-width="0.75" stroke-linecap="round" stroke-linejoin="round"/>
<path d="M206.362 112.924L206.848 116.218" stroke="#BA6BF8" stroke-width="0.75" stroke-linecap="round" stroke-linejoin="round"/>
<path d="M208.639 112.518L209.464 116.218" stroke="#BA6BF8" stroke-width="0.75" stroke-linecap="round" stroke-linejoin="round"/>
<path d="M210.696 112.038L211.834 115.042" stroke="#BA6BF8" stroke-width="0.75" stroke-linecap="round" stroke-linejoin="round"/>
<path d="M212.351 111.213L213.841 114.402" stroke="#BA6BF8" stroke-width="0.75" stroke-linecap="round" stroke-linejoin="round"/>
<path d="M214.204 111.213L216.076 112.678" stroke="#BA6BF8" stroke-width="0.75" stroke-linecap="round" stroke-linejoin="round"/>
<path d="M215.14 109.52L217.442 110.671" stroke="#BA6BF8" stroke-width="0.75" stroke-linecap="round" stroke-linejoin="round"/>
<path d="M209.027 104.953C208.572 104.743 208.073 104.528 207.537 104.337C206.24 103.853 204.859 103.631 203.475 103.685C198.722 103.74 187.586 107.489 187.586 107.489C187.827 107.821 190.738 111.053 196.672 112.278C202.607 113.503 208.689 112.894 211.292 111.86C212.054 111.53 212.714 111.005 213.207 110.338C213.7 109.671 214.008 108.886 214.1 108.061C214.1 108.061 212.862 106.701 209.027 104.953Z" fill="#B25E47"/>
<path d="M237.418 221.889C240.723 219.519 243.795 222.904 236.187 224.874" stroke="#83ADDF" stroke-width="0.75" stroke-linecap="round" stroke-linejoin="round"/>
<path d="M234.309 223.852C235.867 220.085 238.156 216.921 239.234 217.734C240.551 218.737 235.503 224.16 235.503 224.16" stroke="#83ADDF" stroke-width="0.75" stroke-linecap="round" stroke-linejoin="round"/>
<path d="M241.487 232.224H220.705C220.625 229.386 223.826 223.033 224.177 220.965C224.177 220.922 224.177 220.879 224.177 220.824C224.565 218.527 225.654 210.045 225.654 210.045L236.802 210.746L233.804 220.922C234.868 222.476 236.063 223.936 237.375 225.286C239.751 227.792 244.423 228.149 244.86 229.91C245.297 231.67 242.761 232.224 241.487 232.224Z" fill="#A7CAF0"/>
<path d="M236.821 210.746L233.823 220.922C233.823 220.922 227.778 220.873 224.195 220.824C224.583 218.527 225.672 210.045 225.672 210.045L236.821 210.746Z" fill="#B25E47"/>
<path d="M248.498 167.163C247.23 176.742 238.477 212.44 238.477 212.44H224.121L228.43 173.818C228.438 173.792 228.438 173.764 228.43 173.738C228.35 173.239 225.753 156.951 239.782 154.963C240.876 155.225 241.946 155.577 242.983 156.015V156.015C248.468 158.367 249.132 162.331 248.498 167.163Z" fill="#83ADDF"/>
<path d="M229.188 163.685C232.05 163.55 233.928 163.482 234.236 163.538C236.458 163.926 232.136 167.447 233.663 167.502C235.676 167.582 237.849 167.878 236.741 169.256C235.51 170.746 234.359 171.232 235.356 172.15C237.246 173.879 234.02 175.523 233.798 177.511C233.577 179.5 229.957 209.423 229.957 209.423" stroke="#A7CAF0" stroke-width="0.75" stroke-linecap="round" stroke-linejoin="round"/>
<path d="M245.476 112.026C244.565 114.488 243.586 116.661 243.586 116.661L243.488 117.049L241.641 124.553C241.641 124.553 243.094 124.941 243.057 126.215C243.02 127.489 240.336 137.954 237.744 143.857C237.633 144.122 237.498 144.381 237.363 144.645C237.227 144.91 237.159 145.027 237.049 145.212C236.819 145.597 236.573 145.973 236.31 146.338C236.187 146.511 236.064 146.677 235.934 146.837C235.805 146.997 235.651 147.188 235.497 147.354C235.343 147.52 235.208 147.68 235.06 147.84C234.746 148.166 234.445 148.456 234.069 148.776L233.546 149.207C232.674 149.9 231.721 150.485 230.708 150.949H230.665L230.049 151.207C229.84 151.287 229.631 151.367 229.434 151.435C225.18 150.346 223.783 147.557 223.684 144.504C223.518 139.419 226.984 133.596 226.984 133.596C226.981 133.585 226.981 133.575 226.984 133.565C227.187 132.986 230.53 123.666 231.213 122.897C231.896 122.127 233.25 122.632 233.25 122.632L235.645 115.017L236.168 113.349C236.168 113.349 235.977 112.949 235.719 112.364C235.159 111.164 234.746 109.902 234.488 108.603C234.346 107.119 235.719 106.19 236.827 106.017C236.827 106.017 236.932 103.469 237.781 102.435C237.913 102.227 238.101 102.06 238.324 101.954C238.547 101.849 238.795 101.808 239.04 101.838C239.285 101.868 239.516 101.966 239.707 102.122C239.899 102.278 240.042 102.484 240.12 102.718C240.385 101.832 242.324 101.708 242.373 103.457C242.448 103.153 242.635 102.889 242.897 102.718C243.16 102.547 243.477 102.482 243.785 102.537C244.093 102.592 244.369 102.762 244.556 103.013C244.743 103.264 244.828 103.577 244.793 103.888C244.793 103.888 246.215 102.509 246.953 105.119C247.292 106.485 246.424 109.44 245.476 112.026Z" fill="#F797FF"/>
<path d="M237.424 116.218C237.424 116.218 235.46 122.731 235.46 122.614" stroke="#BA6BF8" stroke-width="0.75" stroke-linecap="round" stroke-linejoin="round"/>
<path d="M238.957 116.833L237.596 122.485" stroke="#BA6BF8" stroke-width="0.75" stroke-linecap="round" stroke-linejoin="round"/>
<path d="M241.247 117.172L240.034 123.014" stroke="#BA6BF8" stroke-width="0.75" stroke-linecap="round" stroke-linejoin="round"/>
<path d="M226.922 133.614C225.691 137.166 224.866 139.807 225.014 140.706" stroke="#BA6BF8" stroke-width="0.75" stroke-linecap="round" stroke-linejoin="round"/>
<path d="M237.387 144.645C237.288 144.836 237.184 145.027 237.073 145.212C236.843 145.598 236.597 145.973 236.334 146.338C236.211 146.511 236.088 146.677 235.959 146.837C235.83 146.997 235.676 147.188 235.522 147.354C235.368 147.52 235.232 147.68 235.085 147.84C234.771 148.167 234.469 148.456 234.094 148.776L233.57 149.207C232.7 149.903 231.747 150.488 230.733 150.949H230.689L230.074 151.208C229.865 151.288 229.655 151.368 229.458 151.435C225.205 150.346 223.807 147.557 223.709 144.504C226.522 144.061 229.311 143.187 230.677 145.563C232.185 148.32 235.411 146.289 237.387 144.645Z" fill="#BA6BF8"/>
<path d="M243.586 116.661L243.488 117.049C242.236 117.247 240.961 117.232 239.714 117.006C238.204 116.704 236.794 116.026 235.614 115.036L236.138 113.368C236.138 113.368 234.586 110.105 234.445 108.621C234.303 107.138 235.676 106.208 236.784 106.036C236.784 106.036 236.889 103.488 237.738 102.453C237.87 102.245 238.058 102.079 238.281 101.973C238.504 101.867 238.752 101.827 238.997 101.857C239.242 101.886 239.473 101.985 239.664 102.14C239.856 102.296 239.999 102.503 240.077 102.737C240.342 101.85 242.281 101.721 242.33 103.475C242.405 103.171 242.592 102.907 242.854 102.736C243.117 102.566 243.434 102.501 243.742 102.556C244.05 102.611 244.326 102.781 244.513 103.032C244.7 103.283 244.785 103.595 244.75 103.906C244.75 103.906 246.172 102.527 246.91 105.137C247.649 107.747 243.586 116.661 243.586 116.661Z" fill="#B25E47"/>
<path d="M235.46 111.816C234.994 110.79 234.653 109.711 234.445 108.603C234.303 107.113 235.676 106.19 236.784 106.017C236.784 106.017 236.889 103.469 237.738 102.435C237.87 102.227 238.058 102.06 238.281 101.954C238.504 101.849 238.752 101.808 238.997 101.838C239.242 101.868 239.473 101.966 239.664 102.122C239.856 102.278 239.999 102.484 240.077 102.718C240.342 101.832 242.281 101.702 242.33 103.457C242.405 103.153 242.592 102.889 242.854 102.718C243.117 102.547 243.434 102.482 243.742 102.537C244.05 102.592 244.326 102.762 244.513 103.013C244.7 103.264 244.785 103.577 244.75 103.888C244.75 103.888 246.172 102.509 246.91 105.119" stroke="#914839" stroke-width="0.75" stroke-linecap="round" stroke-linejoin="round"/>
<path d="M236.771 106.036C238.71 105.685 240.366 105.87 240.422 106.528C240.477 107.187 238.169 108.123 238.169 108.123C238.169 108.123 241.117 108.517 240.12 112.038" stroke="#914839" stroke-width="0.75" stroke-linecap="round" stroke-linejoin="round"/>
<path d="M240.034 102.613C240.034 102.613 239.615 105.377 239.418 105.919" stroke="#914839" stroke-width="0.75" stroke-linecap="round" stroke-linejoin="round"/>
<path d="M240.533 106.541C241.278 106.744 241.992 105.987 242.379 103.241" stroke="#914839" stroke-width="0.75" stroke-linecap="round" stroke-linejoin="round"/>
<path d="M241.45 106.19C241.516 106.524 241.702 106.823 241.973 107.03C242.244 107.238 242.581 107.339 242.921 107.316" stroke="#914839" stroke-width="0.75" stroke-linecap="round" stroke-linejoin="round"/>
<path d="M244.774 103.906C244.159 104.38 242.558 107.267 243.408 107.981C244.399 108.806 245.193 106.75 245.193 106.75" stroke="#914839" stroke-width="0.75" stroke-linecap="round" stroke-linejoin="round"/>
<path d="M134.172 276.743C137.029 274.927 139.713 274.582 140.328 275.026C141.196 275.703 138.561 277.525 136.413 277.814" stroke="#83ADDF" stroke-width="0.75" stroke-linecap="round" stroke-linejoin="round"/>
<path d="M131.63 278.497C135.902 276.891 140.248 278.497 139.762 279.944C139.214 281.612 132.467 279.205 132.467 279.205" stroke="#83ADDF" stroke-width="0.75" stroke-linecap="round" stroke-linejoin="round"/>
<path d="M133.495 285.411C134.757 286.673 137.189 289.393 136.85 290.181C136.512 290.969 135.225 291.209 135.225 291.209H126.114C126.114 291.209 124.649 290.335 124.594 289.498C124.538 288.661 121.664 271.843 122.132 270.378C122.532 269.147 128.25 266.875 130.953 265.367C131.331 265.164 131.691 264.929 132.03 264.665C133.704 263.256 138.838 258.011 138.838 258.011L145.234 265.872C141.541 267.934 137.404 270.741 135.49 273.259C134.976 273.873 134.617 274.601 134.443 275.383C133.969 278.208 132.239 284.13 133.495 285.411Z" fill="#A7CAF0"/>
<path d="M145.234 265.847C141.541 267.91 137.404 270.717 135.49 273.234L130.953 265.343C131.331 265.139 131.691 264.905 132.03 264.641C133.705 263.231 138.838 257.986 138.838 257.986L145.234 265.847Z" fill="#B25E47"/>
<path d="M180.901 229.072C179.89 231.049 178.77 232.969 177.546 234.822C171.52 243.299 144.859 268.488 144.859 268.488L135.89 256.934L166.527 220.35C171.778 213.591 185.494 215.197 180.901 229.072Z" fill="#83ADDF"/>
<path d="M168.934 228.992C162.126 237.155 139.528 261.618 139.528 261.618" stroke="#A7CAF0" stroke-width="0.75" stroke-linecap="round" stroke-linejoin="round"/>
<path d="M175.675 216.558C174.256 219.954 172.649 223.269 170.861 226.487" stroke="#A7CAF0" stroke-width="0.75" stroke-linecap="round" stroke-linejoin="round"/>
<path d="M217.313 103.008C215.183 102.392 215.14 104.054 216.143 104.731C217.147 105.408 216.636 107.52 214.136 107.809C213.909 107.84 213.318 107.926 212.604 108C211.268 108.135 209.526 108.246 209.009 107.957C208.492 107.667 208.461 106.861 208.645 106.012C208.676 105.839 208.732 105.667 208.781 105.482C209.068 104.584 209.437 103.715 209.883 102.884C211.069 102.859 212.226 102.519 213.238 101.899C215.522 100.379 215.583 97.3318 214.66 94.1554C214.428 93.3615 214.149 92.5824 213.823 91.8224C213.57 91.2068 213.287 90.5912 212.985 90.0187C210.203 84.5954 206.257 84.6016 206.257 84.6016C208.005 87.5933 206.343 89.6247 205.321 90.1418C204.299 90.6589 203.185 91.0098 203.241 93.0658C203.296 95.1219 202.373 95.4297 201.757 95.325C199.818 94.968 198.439 96.4392 199.295 98.0521C200.15 99.6649 202.551 99.1601 203.265 98.3968C203.265 98.3968 204.687 99.351 204.767 100.49C204.847 101.629 202.65 102.995 203.69 104.768C203.888 105.08 203.995 105.44 204.002 105.809C204.008 106.178 203.912 106.542 203.725 106.86C203.538 107.178 203.267 107.438 202.941 107.612C202.616 107.786 202.249 107.867 201.88 107.846C200.979 107.738 200.066 107.879 199.239 108.252C199.04 108.349 198.851 108.465 198.673 108.597C198.547 108.691 198.428 108.794 198.316 108.905C197.38 109.853 196.685 111.016 194.456 110.505C192.228 109.994 191.834 106.892 191.834 106.892C188.676 107.033 186.565 107.415 186.361 104.842C186.195 102.798 188.485 102.066 189.698 101.844C189.936 101.812 190.159 101.711 190.34 101.554C190.521 101.397 190.653 101.19 190.718 100.959C190.784 100.729 190.78 100.484 190.708 100.255C190.636 100.026 190.499 99.823 190.313 99.6711C189.138 98.7723 190.018 97.3811 191.735 96.7901C193.453 96.1992 192.813 92.3826 192.967 90.5235C193.207 87.1994 196.285 84.3061 200.415 84.1091C200.415 84.1091 202.551 79.4861 207.722 80.2802C212.893 81.0743 215.238 86.0728 214.998 88.3751C214.758 90.6774 214.727 93.1274 217.221 93.2444C219.714 93.3613 221.117 94.8941 220.218 96.4269C219.32 97.9597 218.679 99.1109 220.569 100.373C222.459 101.635 219.443 103.605 217.313 103.008Z" fill="#683F1D"/>
<path d="M206.251 84.5705C207.999 87.5622 206.337 89.5936 205.315 90.1107C204.293 90.6278 203.179 90.9787 203.235 93.0347C203.29 95.0908 202.367 95.3986 201.751 95.2939C199.812 94.9369 198.433 96.4081 199.289 98.021C200.144 99.6338 202.545 99.129 203.259 98.3657C203.259 98.3657 204.681 99.3198 204.761 100.459C204.841 101.597 202.644 102.964 203.684 104.737C203.882 105.049 203.989 105.409 203.995 105.778C204.002 106.147 203.906 106.51 203.719 106.829C203.532 107.147 203.261 107.407 202.935 107.581C202.61 107.755 202.243 107.836 201.874 107.815C200.973 107.707 200.06 107.848 199.233 108.221C199.034 108.318 198.845 108.434 198.667 108.566C195.454 107.15 193.01 104.922 194.309 103.186C196.008 100.92 197.183 102.164 196.211 98.5504C195.238 94.9369 196.18 92.6223 198.55 92.3945C200.92 92.1668 203.161 90.5478 201.979 88.1655C200.797 85.7832 204.564 80.6677 209.366 82.8099C211.89 83.9364 212.813 86.8974 213.022 89.963C210.197 84.5643 206.251 84.5705 206.251 84.5705Z" fill="#683F1D"/>
<path d="M213.238 101.881C212.998 103.691 211.877 105.457 208.646 105.999C208.676 105.827 208.732 105.654 208.781 105.47C209.068 104.572 209.437 103.702 209.883 102.872C211.069 102.844 212.227 102.502 213.238 101.881V101.881Z" fill="#683F1D"/>
<path d="M208.781 105.47C208.467 106.51 208.375 107.55 209.009 107.932C209.501 108.221 211.268 108.11 212.604 107.975C207.624 112.075 203.481 111.447 199.215 108.246C200.042 107.872 200.955 107.732 201.856 107.84C202.224 107.861 202.591 107.78 202.917 107.606C203.242 107.432 203.513 107.171 203.7 106.853C203.887 106.535 203.983 106.172 203.977 105.803C203.971 105.434 203.863 105.073 203.665 104.762C202.625 102.989 204.823 101.628 204.743 100.483C204.663 99.3384 203.241 98.3904 203.241 98.3904C202.527 99.1537 200.107 99.6585 199.27 98.0457C198.433 96.4329 199.812 94.9678 201.732 95.3187C202.348 95.4233 203.278 95.1155 203.216 93.0595C203.154 91.0034 204.275 90.6895 205.297 90.1355C206.319 89.5814 207.981 87.5623 206.232 84.5952C206.232 84.5952 210.184 84.5952 212.967 90.0247C213.269 90.6095 213.552 91.2127 213.804 91.8283C214.13 92.5883 214.41 93.3674 214.641 94.1614C215.872 98.4704 215.331 102.539 209.864 102.89C209.419 103.721 209.05 104.59 208.762 105.488L208.781 105.47Z" fill="#B25E47"/>
<path d="M214.66 94.1368C214.426 94.2223 214.172 94.2381 213.93 94.1824C213.687 94.1267 213.466 94.0018 213.293 93.8229C212.887 93.2996 213.121 92.4132 213.822 91.7976C214.148 92.5601 214.427 93.3412 214.66 94.1368Z" fill="#914839"/>
<path d="M208.504 92.4378C208.504 92.5213 208.521 92.6039 208.554 92.6807C208.586 92.7575 208.634 92.8268 208.695 92.8843C208.755 92.9419 208.827 92.9866 208.905 93.0157C208.984 93.0447 209.067 93.0576 209.15 93.0534C209.271 93.0474 209.386 93.0062 209.483 92.935C209.581 92.8638 209.655 92.7657 209.697 92.6528C209.739 92.54 209.746 92.4173 209.719 92.2999C209.692 92.1826 209.631 92.0759 209.544 91.9928C209.457 91.9098 209.347 91.8541 209.229 91.8328C209.11 91.8114 208.988 91.8253 208.877 91.8726C208.767 91.92 208.672 91.9988 208.606 92.0992C208.54 92.1997 208.504 92.3174 208.504 92.4378Z" fill="#683F1D"/>
<path d="M211.256 91.1019C211.256 91.2652 211.321 91.4218 211.436 91.5372C211.551 91.6527 211.708 91.7175 211.871 91.7175C211.955 91.7176 212.037 91.7007 212.114 91.6679C212.191 91.635 212.26 91.5869 212.318 91.5265C212.375 91.466 212.42 91.3945 212.449 91.3162C212.478 91.2379 212.491 91.1545 212.487 91.0711C212.487 90.9079 212.422 90.7513 212.307 90.6359C212.191 90.5204 212.034 90.4556 211.871 90.4556C211.788 90.4555 211.705 90.4723 211.628 90.5052C211.552 90.538 211.482 90.5861 211.425 90.6466C211.367 90.7071 211.322 90.7786 211.293 90.8569C211.264 90.9352 211.251 91.0185 211.256 91.1019Z" fill="#683F1D"/>
<path d="M209.883 102.866C209.437 103.696 209.068 104.566 208.781 105.463C208.123 105.24 207.563 104.796 207.194 104.207C206.825 103.619 206.671 102.921 206.756 102.232C207.76 102.598 208.815 102.812 209.883 102.866V102.866Z" fill="#914839"/>
<path d="M200.415 97.3686C200.84 96.2729 202.262 96.476 202.878 97.1162" stroke="#914839" stroke-width="0.75" stroke-linecap="round" stroke-linejoin="round"/>
<path d="M201.45 97.9226C201.409 97.7853 201.402 97.6405 201.427 97.4997C201.453 97.359 201.511 97.2261 201.597 97.1119C201.683 96.9976 201.795 96.9051 201.923 96.8417C202.052 96.7783 202.193 96.7458 202.336 96.7468" stroke="#914839" stroke-width="0.75" stroke-linecap="round" stroke-linejoin="round"/>
<path d="M203.247 98.3905C203.46 98.1271 203.613 97.8204 203.696 97.4917" stroke="#914839" stroke-width="0.75" stroke-linecap="round" stroke-linejoin="round"/>
<path d="M209.07 95.5527C209.522 95.9342 210.076 96.1735 210.663 96.2403C211.25 96.3071 211.844 96.1986 212.37 95.9282" stroke="#914839" stroke-width="0.75" stroke-linecap="round" stroke-linejoin="round"/>
<path d="M212.979 94.0568C213.262 93.1457 213.078 92.4932 212.025 92.3208C211.518 92.2052 211.068 91.9135 210.756 91.4975C210.444 91.0816 210.289 90.5685 210.32 90.0493" stroke="#914839" stroke-width="0.75" stroke-linecap="round" stroke-linejoin="round"/>
<path d="M206.22 90.2709C206.22 91.0034 208.953 90.6648 209.181 89.8523C209.366 89.2121 206.202 88.892 206.22 90.2709Z" fill="#683F1D"/>
<path d="M211.576 86.9221C210.911 86.6082 210 89.249 210.825 89.4522C211.231 89.5568 213.133 87.667 211.576 86.9221Z" fill="#683F1D"/>
<path d="M200.378 84.115C201.41 84.1895 202.417 84.4612 203.346 84.9152" stroke="#7F542D" stroke-width="0.75" stroke-linecap="round" stroke-linejoin="round"/>
<path d="M202.114 88.8735C200.071 89.6307 197.614 90.9111 197.54 93.3673C197.467 95.8235 198.519 98.0519 195.269 99.6524C192.019 101.253 195.097 105.353 195.097 105.353" stroke="#7F542D" stroke-width="0.75" stroke-linecap="round" stroke-linejoin="round"/>
<path d="M198.716 106.024C200.698 104.405 198.544 102.367 200.698 100.847" stroke="#7F542D" stroke-width="0.75" stroke-linecap="round" stroke-linejoin="round"/>
<path d="M204.256 87.0944C200.932 85.7832 197.091 87.433 196.254 88.8365" stroke="#7F542D" stroke-width="0.75" stroke-linecap="round" stroke-linejoin="round"/>
<path d="M208.492 94.58C208.356 95.2694 207.445 95.6634 206.472 95.4603C205.5 95.2571 204.816 94.543 204.952 93.8597C205.087 93.1764 205.998 92.7763 206.977 92.9795C207.956 93.1826 208.633 93.909 208.492 94.58Z" fill="#914839"/>
<path d="M50.9211 286.722C46.4704 291.499 45.3808 295.303 44.6667 297.802L54.6638 305.645H69.2408C69.2408 305.645 68.9823 302.124 66.1629 301.545C63.3435 300.966 61.6507 300.708 61.6507 300.708L58.8682 294.7L50.9211 286.722Z" fill="#F797FF"/>
<path d="M93.5317 220.695C93.9318 248.334 95.6801 254.065 90.0229 263.631C84.3657 273.198 58.8682 294.7 58.8682 294.7L48.114 286.642C48.114 286.642 61.0412 272.299 67.0801 264.653C73.119 257.008 74.0116 253.899 73.8515 249.196C73.6915 244.493 69.2285 208.721 69.2285 208.721L93.5317 220.695Z" fill="#683F1D"/>
<path d="M164.213 258.793C164.213 258.793 173.773 264.61 175.669 265.601C177.565 266.592 177.83 269.122 177.83 269.122H154.745C154.745 269.122 153.65 263.342 154.234 259.888L164.213 258.793Z" fill="#F797FF"/>
<path d="M164.213 258.793L152.548 261.101L137.663 221.138C134.197 211.867 130.467 203.612 138.106 200.7C146.669 200.996 150.75 203.723 154.247 213.517C157.916 223.852 164.213 258.793 164.213 258.793Z" fill="#683F1D"/>
<path d="M137.663 221.137C137.663 221.137 103.504 224.246 92.9714 224.64C82.4388 225.034 72.1771 223.852 67.4863 207.311L94.3565 197.961L97.7976 200.669C113.156 200.915 127.099 200.62 136.665 200.669C137.164 200.669 137.644 200.669 138.112 200.7C152.074 203.027 146.792 218.343 137.663 221.137Z" fill="#683F1D"/>
<path d="M91.1988 224.683C83.4917 224.819 76.1047 223.68 71.1062 215.85" stroke="#7F542D" stroke-width="0.75" stroke-linecap="round" stroke-linejoin="round"/>
<path d="M113.889 180.238L106.127 186.88L99.6014 200.762C99.6014 200.762 89.7952 200.417 83.9656 204.615C78.136 208.814 69.6779 210.623 66.4092 210.568C66.1738 203.828 66.6421 197.082 67.8066 190.439C69.7333 179.826 74.461 163.648 74.461 163.648C74.4056 163.144 74.381 162.639 74.3625 162.146C74.0978 153.701 78.5546 147.015 85.8308 147.452C93.5317 147.926 101.405 150.777 101.405 150.777C101.405 150.777 109.925 152.125 114.412 154.63C116.45 155.769 117.841 157.708 118.155 161.051C118.537 165.064 117.349 171.109 113.889 180.238Z" fill="#00FFD1"/>
<path d="M96.7451 188.259L94.1597 184.689C96.1049 183.845 97.7239 183.082 98.3641 182.774C97.5146 178.859 96.7266 175.418 95.9572 172.494C97.3545 172.753 99.3182 174.045 99.86 178.964C100.266 182.713 105.739 176.729 107.746 181.611C109.752 186.492 96.7451 188.259 96.7451 188.259Z" fill="#14CCAB"/>
<path d="M113.15 165.834C112.085 166.948 110.565 172.993 108.373 180.158" stroke="#14CCAB" stroke-width="0.75" stroke-linecap="round" stroke-linejoin="round"/>
<path d="M143.234 171.38C143.142 173.535 139.319 172.993 139.319 172.993C140.291 174.704 137.472 175.819 136.081 175.899C135.147 175.924 134.217 175.769 133.341 175.443C133.341 175.443 119.657 187.613 114.542 192.193C109.426 196.773 99.9461 203.889 93.5379 203.015C87.1297 202.141 85.3506 195.628 82.5005 188.241C84.0176 188.12 85.5188 187.847 86.9819 187.428C90.7678 186.376 96.9605 183.458 98.3641 182.787C98.5426 183.624 98.7334 184.492 98.9181 185.379C110.393 178.903 123.16 170.605 124.231 169.577C125.302 168.549 129.839 165.003 131.181 163.55C132.523 162.097 135.059 163.445 134.037 164.252C133.015 165.058 132.523 165.858 136.635 168.395C141.812 171.583 143.338 168.795 143.234 171.38Z" fill="#FEBD9D"/>
<path d="M118.155 161.063C116.025 159.721 113.415 159.167 110.768 161.309C104.489 166.369 98.4563 166.129 89.9551 156.335C81.6879 146.818 74.7626 161.321 74.3686 162.159C74.1039 153.713 78.5607 147.028 85.8369 147.465C93.5378 147.939 101.411 150.789 101.411 150.789C101.411 150.789 109.931 152.137 114.418 154.642C116.45 155.769 117.841 157.708 118.155 161.063Z" fill="#00FFD1"/>
<path d="M99.5581 160.78C99.5581 161.037 99.6343 161.288 99.777 161.501C99.9197 161.715 100.123 161.882 100.36 161.98C100.597 162.078 100.858 162.104 101.11 162.054C101.362 162.004 101.594 161.88 101.775 161.698C101.957 161.517 102.081 161.285 102.131 161.033C102.181 160.781 102.155 160.52 102.057 160.283C101.959 160.045 101.792 159.843 101.579 159.7C101.365 159.557 101.114 159.481 100.857 159.481C100.513 159.481 100.182 159.618 99.9385 159.861C99.6949 160.105 99.5581 160.435 99.5581 160.78V160.78Z" fill="white"/>
<path d="M74.344 163.525C74.344 163.525 78.9609 184.584 80.4998 188.148C81.1587 188.239 81.8259 188.254 82.4881 188.191C84.0052 188.07 85.5065 187.798 86.9696 187.379C89.4171 186.622 91.8145 185.711 94.1473 184.652C96.0925 183.809 97.7115 183.045 98.3517 182.737C97.5022 178.822 96.7143 175.381 95.9448 172.457C94.1842 165.766 92.5098 161.82 90.3368 161.204" stroke="#14CCAB" stroke-width="0.75" stroke-linecap="round" stroke-linejoin="round"/>
<path d="M98.9181 185.366C95.5816 187.49 95.0522 189.226 95.0522 189.226" stroke="#F4A789" stroke-width="0.75" stroke-linecap="round" stroke-linejoin="round"/>
<path d="M139.312 172.993C136.85 172.777 135.705 172.599 135.705 172.599" stroke="#F4A789" stroke-width="0.75" stroke-linecap="round" stroke-linejoin="round"/>
<path d="M133.354 175.437C134.231 175.766 135.163 175.923 136.099 175.899C137.503 175.818 140.31 174.71 139.331 172.993C139.331 172.993 143.16 173.529 143.252 171.38C143.357 168.795 141.824 171.583 136.653 168.382C132.541 165.846 133.034 165.058 134.055 164.246C135.077 163.433 132.547 162.085 131.199 163.538C130.51 164.282 128.989 165.581 127.506 166.8" stroke="#F4A789" stroke-width="0.75" stroke-linecap="round" stroke-linejoin="round"/>
<path d="M126.367 165.101C127.857 163.02 129.9 164.486 129.943 166.228C129.986 167.97 126.502 170.229 125.511 169.306C124.52 168.382 125.53 166.265 126.367 165.101Z" fill="#B25E47"/>
<path d="M130.276 177.345C128.694 176.557 127.573 177.751 128.891 179.192C130.208 180.632 132.621 179.98 133.077 178.545L130.276 177.345Z" fill="#B25E47"/>
<path d="M130.276 177.345C128.694 176.557 127.573 177.751 128.891 179.192C130.208 180.632 132.621 179.98 133.077 178.545L130.276 177.345Z" stroke="#914839" stroke-width="0.75" stroke-linecap="round" stroke-linejoin="round"/>
<path d="M132.301 175.837C130.645 175.529 129.26 176.077 129.783 177.394C130.306 178.712 134.092 180.195 135.705 177.394L132.301 175.837Z" fill="#B25E47"/>
<path d="M132.301 175.837C130.645 175.529 129.26 176.077 129.783 177.394C130.306 178.712 134.092 180.195 135.705 177.394L132.301 175.837Z" stroke="#914839" stroke-width="0.75" stroke-linecap="round" stroke-linejoin="round"/>
<path d="M126.367 165.101C127.857 163.02 129.9 164.486 129.943 166.228C129.986 167.97 126.502 170.229 125.511 169.306C124.52 168.382 125.53 166.265 126.367 165.101Z" stroke="#914839" stroke-width="0.75" stroke-linecap="round" stroke-linejoin="round"/>
<path d="M132.227 176.453C131.119 175.345 131.772 173.744 133.274 174.126C134.776 174.507 135.084 175.4 137.669 175.554C139.386 175.628 135.2 179.432 132.227 176.453Z" fill="#B25E47"/>
<path d="M132.227 176.453C131.119 175.345 131.772 173.744 133.274 174.126C134.776 174.507 135.084 175.4 137.669 175.554C139.386 175.628 135.2 179.432 132.227 176.453Z" stroke="#914839" stroke-width="0.75" stroke-linecap="round" stroke-linejoin="round"/>
<path d="M106.465 138.095L104.335 138.902L101.073 140.102C100.01 139.035 99.0708 137.852 98.2717 136.575C96.9975 134.5 96.3573 132.297 98.4564 131.65C96.0248 131.65 95.7417 129.594 97.73 129.188C94.9784 129.12 96.0187 126.406 98.8627 126.726C98.8627 126.726 97.1021 124.343 101.75 123.851C105.031 123.506 107.585 124.325 109.137 125.451L109.26 125.55C109.892 125.99 110.389 126.597 110.694 127.304C111.371 129.089 106.465 138.095 106.465 138.095Z" fill="#BF8228"/>
<path d="M106.465 138.095L104.335 138.902L101.073 140.102C100.01 139.035 99.0708 137.852 98.2717 136.575C99.4475 135.313 101.35 135.547 101.645 134.667C102.076 133.436 98.8011 127.557 104.187 127.692C107.222 127.766 108.626 126.584 109.266 125.538C109.898 125.977 110.395 126.585 110.7 127.292C111.371 129.09 106.465 138.095 106.465 138.095Z" fill="#BF8228"/>
<path d="M98.8811 126.695C98.8811 126.695 103.264 126.886 104.624 127.107C106.471 127.409 106.73 128.129 106.73 128.129" stroke="#BA6BF8" stroke-width="0.75" stroke-linecap="round" stroke-linejoin="round"/>
<path d="M103.178 130.536L101.46 130.358" stroke="#BA6BF8" stroke-width="0.75" stroke-linecap="round" stroke-linejoin="round"/>
<path d="M97.73 129.126C99.0104 129.231 100.143 129.434 100.143 129.434" stroke="#BA6BF8" stroke-width="0.75" stroke-linecap="round" stroke-linejoin="round"/>
<path d="M98.4563 131.62C99.1396 131.611 99.8227 131.652 100.5 131.743" stroke="#BA6BF8" stroke-width="0.75" stroke-linecap="round" stroke-linejoin="round"/>
<path d="M104.243 134.648C102.174 134.574 99.5028 134.581 99.2627 134.168" stroke="#BA6BF8" stroke-width="0.75" stroke-linecap="round" stroke-linejoin="round"/>
<path d="M108.73 146.203C108.324 147.416 107.981 148.648 107.702 149.896C107.653 150.114 107.604 150.336 107.555 150.561C106.619 153.344 105.474 156.649 101.67 156.175C99.2566 155.88 96.4742 154.242 95.0891 150.229C94.5536 148.671 96.0556 147.182 96.2464 146.898C97.7238 144.756 99.1027 142.534 99.5706 140.872C99.5706 140.872 98.4194 139.425 99.2135 137.911C99.3328 137.69 99.4775 137.483 99.6444 137.295C100.906 135.892 103.252 136.538 104.034 137.622C104.226 137.485 104.401 137.325 104.557 137.148C104.702 137.022 104.822 136.869 104.907 136.697C104.992 136.525 105.042 136.337 105.054 136.146C105.065 135.954 105.038 135.762 104.974 135.581C104.91 135.4 104.81 135.233 104.68 135.092C104.536 134.927 104.395 134.774 104.255 134.63L104.2 134.575C103.227 133.547 102.402 132.728 102.821 131.318C102.9 131.033 103.025 130.763 103.19 130.518C103.837 129.607 105.037 129.49 106.834 129.73C109.094 130.025 110.226 129.379 110.713 127.268C110.774 127.36 111.267 128.154 111.944 129.416C112.141 129.779 112.35 130.179 112.559 130.616C113.064 131.614 113.618 132.796 114.135 134.076C114.34 134.564 114.531 135.063 114.708 135.572C114.901 136.099 115.063 136.638 115.194 137.185C116.302 141.678 115.6 147.132 108.73 146.203Z" fill="#FEBD9D"/>
<path d="M108.004 136.821C107.727 137.622 106.502 137.923 105.252 137.498C105.004 137.415 104.767 137.304 104.544 137.166C104.69 137.041 104.809 136.888 104.894 136.715C104.98 136.543 105.03 136.356 105.041 136.164C105.053 135.972 105.025 135.78 104.961 135.599C104.897 135.418 104.797 135.252 104.667 135.11C104.507 134.925 104.347 134.753 104.187 134.593C104.849 134.339 105.581 134.339 106.243 134.593C107.499 135.03 108.281 136.021 108.004 136.821Z" fill="#F4A789"/>
<path d="M107.629 134.168C107.629 134.29 107.665 134.409 107.732 134.51C107.8 134.611 107.896 134.69 108.009 134.737C108.121 134.783 108.245 134.796 108.364 134.772C108.484 134.748 108.593 134.689 108.68 134.603C108.766 134.517 108.824 134.408 108.848 134.288C108.872 134.169 108.86 134.045 108.813 133.932C108.766 133.82 108.687 133.724 108.586 133.656C108.485 133.589 108.366 133.552 108.244 133.552C108.081 133.552 107.924 133.617 107.809 133.733C107.694 133.848 107.629 134.005 107.629 134.168Z" fill="#683F1D"/>
<path d="M112.141 133.583C112.487 133.583 112.768 133.302 112.768 132.956C112.768 132.609 112.487 132.328 112.141 132.328C111.794 132.328 111.513 132.609 111.513 132.956C111.513 133.302 111.794 133.583 112.141 133.583Z" fill="#683F1D"/>
<path d="M108.73 146.203C108.324 147.415 107.981 148.648 107.702 149.896C102.544 148.831 104.692 143.882 104.692 143.882C104.692 143.882 107.222 145.803 108.73 146.203Z" fill="#F4A789"/>
<path d="M99.5581 140.878C100.5 142.201 102.919 142.164 103.738 141.494" stroke="#F4A789" stroke-width="0.75" stroke-linecap="round" stroke-linejoin="round"/>
<path d="M100.5 139.173C101.504 137.991 102.876 138.557 103.64 139.954" stroke="#F4A789" stroke-width="0.75" stroke-linecap="round" stroke-linejoin="round"/>
<path d="M102.759 140.626C101.122 140.582 101.645 138.637 103.178 139.284" stroke="#F4A789" stroke-width="0.75" stroke-linecap="round" stroke-linejoin="round"/>
<path d="M108.872 137.191C109.518 138.299 110.226 138.859 111.796 138.526" stroke="#F4A789" stroke-width="0.75" stroke-linecap="round" stroke-linejoin="round"/>
<path d="M110.454 131.349C110.239 132.715 110.097 133.903 111.55 134.574C113.003 135.245 112.719 136.575 111.359 136.981" stroke="#F4A789" stroke-width="0.75" stroke-linecap="round" stroke-linejoin="round"/>
<path d="M105.339 132.131C105.886 132.869 108.7 131.558 108.195 130.567C107.881 129.945 104.372 130.807 105.339 132.131Z" fill="#BF8228"/>
<path d="M112.559 130.635C111.821 130.943 110.325 130.721 110.325 130.272C110.325 129.822 111.199 129.459 111.938 129.434C112.135 129.798 112.344 130.198 112.559 130.635Z" fill="#BF8228"/>
<path d="M115.194 137.203C114.963 137.357 114.692 137.442 114.414 137.447C114.136 137.453 113.862 137.379 113.624 137.234C112.959 136.723 113.058 135.461 113.858 134.408C113.951 134.297 114.043 134.187 114.135 134.094C114.34 134.583 114.531 135.081 114.708 135.59C114.901 136.118 115.063 136.656 115.194 137.203V137.203Z" fill="#F4A789"/>
<path d="M96.2341 146.904C94.689 146.566 92.6884 147.298 92.4606 148.265C92.2328 149.231 91.9743 157.283 93.7718 157.308C95.5693 157.332 98.5672 153.67 100.131 156.557C102.07 160.133 102.679 155.418 105.172 157.837C106.053 158.693 107.111 160.423 108.201 159.068C109.291 157.714 110.103 152.913 109.765 152.125C109.426 151.337 108.589 150.37 107.53 150.567C106.816 150.696 105.683 155.615 101.861 155.818C101.073 155.861 95.754 150.278 95.4339 149.139C95.1137 148 96.2341 146.904 96.2341 146.904Z" fill="white"/>
<defs>
<linearGradient id="paint0_linear_80_560" x1="230" y1="310" x2="244" y2="160" gradientUnits="userSpaceOnUse">
<stop offset="0.0885417" stop-color="#F797FF" stop-opacity="0"/>
<stop offset="0.479167" stop-color="#CC34E2" stop-opacity="0.21"/>
<stop offset="1" stop-color="#282B31" stop-opacity="0"/>
</linearGradient>
<linearGradient id="paint1_linear_80_560" x1="439.5" y1="252" x2="258" y2="99" gradientUnits="userSpaceOnUse">
<stop stop-color="#282B31"/>
<stop offset="1" stop-color="#282B31" stop-opacity="0"/>
</linearGradient>
</defs>
</svg>
