<svg width="460" height="320" viewBox="0 0 460 320" fill="none" xmlns="http://www.w3.org/2000/svg">
<rect width="460" height="320" rx="16" fill="url(#paint0_linear_78_535)"/>
<rect width="460" height="320" rx="16" fill="url(#paint1_linear_78_535)"/>
<path d="M356.274 27H112.619C108.131 27 104.492 30.6389 104.492 35.1278V182.803C104.492 187.292 108.131 190.931 112.619 190.931H356.274C360.763 190.931 364.402 187.292 364.402 182.803V35.1278C364.402 30.6389 360.763 27 356.274 27Z" stroke="#DDDDDD" stroke-width="1.81" stroke-linecap="round" stroke-linejoin="round"/>
<path d="M348.571 34.6438H120.329C115.84 34.6438 112.201 38.2827 112.201 42.7716V175.147C112.201 179.636 115.84 183.275 120.329 183.275H348.571C353.06 183.275 356.699 179.636 356.699 175.147V42.7716C356.699 38.2827 353.06 34.6438 348.571 34.6438Z" stroke="#DDDDDD" stroke-width="1.81" stroke-linecap="round" stroke-linejoin="round"/>
<path d="M112.506 142.57C103.918 143.604 102.86 137.968 99.7347 129.954C96.6091 121.94 97.1589 114.416 95.0373 102.093C92.5572 87.7494 109.978 87.4267 113.564 107.537C113.713 108.35 113.875 109.294 114.048 110.328C114.556 113.238 115.195 116.902 116.116 120.535C116.349 121.45 116.6 122.364 116.863 123.267C118.596 129.058 121.112 141.53 112.506 142.57Z" fill="#B25E47"/>
<path d="M116.14 120.536C104.582 124.121 102.866 114.667 102.992 110.8L114.06 110.328C114.58 113.221 115.22 116.884 116.14 120.536Z" fill="#914839"/>
<path d="M157.705 180.335C157.256 180.762 156.781 181.161 156.283 181.53C155.906 181.829 155.452 182.169 154.926 182.522L154.478 182.827L153.964 183.155C153.241 183.61 152.422 184.088 151.501 184.554C151.071 184.775 150.617 185.002 150.139 185.211C149.894 185.325 149.643 185.438 149.38 185.546L148.597 185.869C148.352 185.964 148.107 186.06 147.85 186.149C147.593 186.239 147.252 186.377 146.906 186.484C146.559 186.592 146.308 186.681 146.009 186.771C145.71 186.861 145.412 186.956 145.083 187.04L144.246 187.261L144.019 187.315L143.159 187.506C142.471 187.661 141.766 187.787 141.031 187.895C140.732 187.948 140.433 187.99 140.117 188.026C140.003 188.026 139.889 188.056 139.77 188.062C139.453 188.104 139.136 188.134 138.814 188.163V188.223C138.981 189.873 140.798 221.093 141.264 229.299L141.306 230.028C141.306 230.195 141.306 230.344 141.306 230.476C118.345 229.878 95.4675 229.657 73.4268 229.717C72.9726 221.505 72.1538 206.332 71.359 190.871C70.2534 169.207 69.2015 147.011 69.3211 142.696V142.63C69.5721 134.323 68.4067 128.101 75.5006 125.358C77.9748 124.402 81.4769 123.864 86.3536 123.816H87.2919H88.3258H89.4135C89.784 123.816 90.1306 123.816 90.4653 123.781H91.2004L91.8996 123.745H92.4972L93.4654 123.691L94.1467 123.643C94.5053 123.643 94.828 123.595 95.1268 123.571H95.3121L95.6527 123.542L96.1368 123.488H96.3042C96.6329 123.446 96.9018 123.404 97.099 123.368C97.2962 123.332 97.3859 123.314 97.4935 123.291C97.6091 123.269 97.7215 123.233 97.8281 123.183V123.183C99.3939 127.51 103.757 135.422 111.072 134.424C118.387 133.426 117.771 125.275 116.319 121.707L116.456 121.826L116.665 121.994L117.126 122.328C117.191 122.376 117.263 122.43 117.341 122.478L117.586 122.639L117.825 122.789L118.154 122.986C118.434 123.141 118.751 123.291 119.044 123.422L119.355 123.547C119.564 123.619 119.773 123.673 119.952 123.721C120.175 123.765 120.401 123.788 120.628 123.787C120.699 123.793 120.771 123.793 120.843 123.787C120.921 123.787 120.992 123.787 121.064 123.751C122.206 123.464 125.415 122.902 129.807 124.623C132.61 125.729 135.897 127.767 139.441 131.412C141.736 133.927 143.678 136.741 145.214 139.779C151.531 151.403 156.223 169.105 157.705 180.335Z" fill="#00FFD1"/>
<path d="M145.256 139.678C141.415 139.131 137.5 139.87 134.122 141.781C131.469 143.393 129.381 145.788 128.146 148.636C121.979 162.238 105.819 167.348 95.0193 152.294C93.5184 150.161 91.7801 148.207 89.8379 146.467C84.0348 141.375 77.2876 139.97 69.2793 142.755V142.69C69.5303 134.383 68.3649 128.161 75.4588 125.418C77.933 124.462 81.4351 123.924 86.3118 123.876C96.6509 123.769 97.8043 123.105 97.8043 123.105C99.3701 127.432 103.733 135.345 111.048 134.347C118.363 133.349 117.747 125.197 116.295 121.629C116.456 121.767 119.283 124.115 121.076 123.667C122.218 123.38 125.427 122.818 129.819 124.54C132.622 125.645 135.909 127.683 139.453 131.329C141.757 133.836 143.71 136.644 145.256 139.678Z" fill="#00FFD1"/>
<path d="M155.739 230.954C150.922 230.798 146.107 230.659 141.294 230.535V230.087L141.252 229.358L138.802 188.283V188.223L155.739 176.689C155.966 178.195 156.157 179.832 156.337 181.565C157.866 199.279 156.002 227.129 155.739 230.954Z" fill="#B25E47"/>
<path d="M157.705 180.334C157.705 180.334 150.946 187.153 138.778 188.211C138.109 168.591 136.226 153.059 134.134 141.781C132.694 133.982 131.146 128.209 129.861 124.54C132.664 125.645 135.951 127.683 139.495 131.329C141.79 133.843 143.732 136.658 145.268 139.695C151.531 151.403 156.223 169.105 157.705 180.334Z" fill="#FDF19B"/>
<path d="M145.256 139.678C141.415 139.13 137.5 139.87 134.122 141.781C132.682 133.982 131.134 128.209 129.849 124.54C132.652 125.645 135.939 127.683 139.483 131.329C141.777 133.837 143.719 136.646 145.256 139.678Z" fill="#FDF19B"/>
<path d="M138.766 188.212C138.097 168.591 136.214 153.059 134.122 141.781" stroke="#FDF19B" stroke-width="0.68" stroke-linecap="round" stroke-linejoin="round"/>
<path d="M97.4579 120.954C93.8721 122.364 93.8721 123.942 93.8721 125.657C93.8721 127.372 97.0873 136.731 103.374 143.377C104.6 144.674 106.422 136.671 108.221 136.205C110.02 135.739 111.634 136.564 112.47 136.444C113.307 136.325 115.524 134.126 116.965 135.124C118.405 136.122 121.453 141.1 122.05 141.231C122.648 141.363 122.708 129.44 121.333 125.251C120.973 124.067 120.297 123.003 119.377 122.175C118.458 121.346 117.331 120.784 116.116 120.547C116.116 120.547 117.108 129.201 114.209 131.771C108.185 137.126 101.988 130.378 97.4579 120.954Z" fill="#FDF19B"/>
<path d="M95.7545 97.2454C93.6568 96.4685 90.4415 98.4407 90.8778 101.71C91.3141 104.979 96.1489 106.049 98.5395 104.154C97.3422 101.969 96.4074 99.65 95.7545 97.2454V97.2454Z" fill="#B25E47"/>
<path d="M92.5276 101.925C92.3483 100.521 94.0456 98.3035 96.711 100.407" stroke="#914839" stroke-width="0.68" stroke-linecap="round" stroke-linejoin="round"/>
<path d="M95.635 102.845C92.856 102.774 93.6747 99.7795 96.1848 100.042" stroke="#914839" stroke-width="0.68" stroke-linecap="round" stroke-linejoin="round"/>
<path d="M117.479 100.593L115.972 101.029L101.217 105.296C101.217 105.296 100.822 104.913 100.225 104.25C98.2758 102.105 96.7237 99.6298 95.641 96.9411C95.3161 96.0727 95.0896 95.1706 94.9657 94.2517C94.2366 88.5324 100.183 77.8168 110.08 82.7652C113.277 85.8132 115.094 91.2277 115.56 92.8174L115.715 93.3553C116.283 95.4769 117.479 100.593 117.479 100.593Z" fill="#B25E47"/>
<path d="M106.906 98.5666C106.906 100.093 106.3 101.557 105.221 102.636C104.141 103.715 102.678 104.322 101.151 104.322C100.833 104.322 100.515 104.298 100.201 104.25V104.25C98.252 102.105 96.6999 99.6298 95.6172 96.9411C96.0075 95.6109 96.8644 94.466 98.0306 93.7165C99.1969 92.9671 100.594 92.6633 101.966 92.8608C103.339 93.0584 104.593 93.7441 105.501 94.7922C106.408 95.8402 106.907 97.1803 106.906 98.5666V98.5666Z" fill="#914839"/>
<path d="M117.479 100.592L115.973 101.029C115.348 100.612 114.831 100.052 114.466 99.3957C114.101 98.7394 113.897 98.0055 113.872 97.2549C113.847 96.5042 114.001 95.7584 114.322 95.0792C114.642 94.4 115.12 93.8069 115.716 93.3491C116.283 95.4767 117.479 100.592 117.479 100.592Z" fill="#914839"/>
<path d="M106.667 92.7993C106.666 92.9511 106.71 93.0998 106.794 93.2265C106.877 93.3532 106.997 93.4522 107.137 93.5109C107.277 93.5695 107.431 93.5851 107.58 93.5558C107.729 93.5265 107.866 93.4535 107.973 93.3462C108.08 93.2388 108.153 93.102 108.183 92.953C108.212 92.8041 108.196 92.6498 108.138 92.5098C108.079 92.3697 107.98 92.2503 107.853 92.1667C107.727 92.0831 107.578 92.0391 107.426 92.0403C107.327 92.0403 107.228 92.0599 107.136 92.0981C107.044 92.1362 106.96 92.1921 106.89 92.2626C106.819 92.3331 106.763 92.4168 106.725 92.5088C106.687 92.6009 106.667 92.6996 106.667 92.7993V92.7993Z" fill="#683F1D"/>
<path d="M112.178 92.0404C112.178 92.1919 112.223 92.3401 112.307 92.466C112.391 92.5919 112.511 92.69 112.651 92.7477C112.791 92.8054 112.945 92.8202 113.094 92.7902C113.242 92.7602 113.379 92.6867 113.486 92.5792C113.592 92.4716 113.665 92.3347 113.693 92.1859C113.722 92.0371 113.706 91.8832 113.647 91.7435C113.589 91.6038 113.49 91.4848 113.363 91.4014C113.237 91.3181 113.088 91.2742 112.937 91.2754C112.836 91.2754 112.737 91.2952 112.645 91.3338C112.552 91.3723 112.468 91.4287 112.398 91.4998C112.327 91.5709 112.271 91.6553 112.234 91.7481C112.196 91.8409 112.177 91.9402 112.178 92.0404V92.0404Z" fill="#683F1D"/>
<path d="M118.727 109.832C115.506 118.091 107.486 115.695 103.906 113.376C100.326 111.057 98.5274 105.104 95.9935 101.035C92.6766 95.7336 92.7842 90.5282 94.5472 86.6914C95.6512 84.0948 97.7277 82.0333 100.332 80.9482C105.938 78.8983 110.086 82.7411 110.086 82.7411C109.972 86.3269 103.117 85.3707 101.82 84.9822C98.6231 84.0439 97.3262 87.4624 96.9497 90.1637C96.5074 93.3012 96.9855 96.5643 98.7007 98.9608C100.416 101.357 101.689 101.949 102.621 100.754C103.554 99.5584 105.328 98.2018 109.859 97.4727C114.389 96.7436 116.468 98.907 116.468 98.907C116.468 98.0943 115.608 93.1339 115.56 92.8291C117.203 95.7354 118.394 98.8752 119.092 102.14C119.588 104.704 119.654 107.435 118.727 109.832Z" fill="#FFEACC"/>
<path d="M118.727 109.831C115.506 118.091 107.486 115.694 103.906 113.375C100.326 111.057 98.5274 105.104 95.9935 101.034C92.6766 95.7333 92.7842 90.528 94.5472 86.6912C94.4277 96.9047 101.534 108.206 105.902 110.286C110.002 112.246 117.389 111.595 119.08 102.146C119.588 104.704 119.654 107.435 118.727 109.831Z" fill="#EDD6B7"/>
<path d="M107.426 99.8574C109.261 99.9687 111.101 99.9687 112.936 99.8574C112.936 99.8574 112.201 102.29 109.948 102.081C109.339 102.049 108.758 101.811 108.3 101.408C107.843 101.004 107.535 100.458 107.426 99.8574V99.8574Z" fill="#FDF19B" stroke="#914839" stroke-width="0.68" stroke-linecap="round" stroke-linejoin="round"/>
<path d="M106.661 87.2534C107.032 88.7176 103.345 91.3054 102.424 90.2416C101.504 89.1778 106.1 85.0541 106.661 87.2534Z" fill="#FFEACC"/>
<path d="M109.972 86.6138C109.859 87.6656 114.293 88.5501 114.353 87.7552C114.413 86.9604 110.181 84.7133 109.972 86.6138Z" fill="#FFEACC"/>
<path d="M109.225 88.3469C108.795 89.8589 108.52 91.8251 109.972 92.5303C111.424 93.2356 113.391 92.9606 113.588 95.8412" stroke="#914839" stroke-width="0.68" stroke-linecap="round" stroke-linejoin="round"/>
<path d="M56.1075 186.914C55.2768 196.363 55.2529 216.139 65.072 221.159C81.2499 229.424 84.6743 208.053 83.9632 186.914H56.1075Z" fill="#B25E47"/>
<path d="M89.9993 153.86C89.6945 166.356 84.3039 190.381 84.3039 190.381C79.2898 190.793 75.0047 190.979 71.3413 190.979C55.9104 190.979 51.6194 187.943 51.6194 187.943C51.6194 187.943 54.745 163.858 59.1615 148.069C59.6038 146.473 60.0639 144.961 60.5301 143.568C64.6 131.502 69.7396 126.494 75.4709 125.466C76.9803 125.206 78.5216 125.188 80.0368 125.412C86.3837 126.273 89.1746 136.17 89.8499 146.515C90.0173 148.935 90.0591 151.433 89.9993 153.86Z" fill="#FDF19B"/>
<path d="M89.8619 146.467C84.0588 141.375 77.3116 139.97 69.3033 142.755C65.7022 144.061 62.2869 145.831 59.1436 148.02C59.5858 146.425 60.046 144.913 60.5121 143.52C64.582 131.454 69.7216 126.446 75.4529 125.418C76.9624 125.158 78.5037 125.14 80.0188 125.364C86.3956 126.225 89.1865 136.11 89.8619 146.467Z" fill="#FDF19B"/>
<path d="M89.9992 153.859C89.6944 166.356 84.3037 190.381 84.3037 190.381" stroke="#FDF19B" stroke-width="0.68" stroke-linecap="round" stroke-linejoin="round"/>
<path d="M147.39 166.409C147.39 166.409 149.183 167.724 147.276 171.322C147.276 171.322 149.267 173.157 146.601 176.235C146.964 176.945 147.061 177.762 146.875 178.538C146.688 179.314 146.231 179.997 145.585 180.466C142.892 182.822 140.032 184.979 137.027 186.92C135.629 187.781 133.704 189.042 130.668 191.193C129.473 192.042 128.086 193.034 126.485 194.181C122.899 196.793 118.225 200.265 112.07 204.939C87.1187 223.86 72.2198 226.454 63.5541 220.22C56.6694 215.272 65.347 192.956 91.9237 184.028C105.603 179.426 114 177.017 119.14 175.571C121.226 174.974 122.779 174.555 123.921 174.209C125.439 173.742 126.258 173.42 126.706 173.043C128.308 171.669 129.049 170.055 129.826 168.119C130.602 166.182 132.431 158.927 132.885 156.943C133.34 154.959 136.776 153.811 136.202 165.029C136.202 165.029 146.033 161.826 147.814 161.365C149.595 160.905 150.3 164.808 147.39 166.409Z" fill="#B25E47"/>
<path d="M130.668 191.193C129.473 192.042 128.086 193.034 126.485 194.181C124.238 191.51 119.457 184.775 119.152 175.577C121.238 174.98 122.791 174.561 123.933 174.215C124.238 178.858 126.963 187.01 130.668 191.193Z" fill="#683F1D"/>
<path d="M123.215 188.211C125.714 188.211 127.74 186.186 127.74 183.687C127.74 181.189 125.714 179.163 123.215 179.163C120.717 179.163 118.691 181.189 118.691 183.687C118.691 186.186 120.717 188.211 123.215 188.211Z" fill="#FDF19B" stroke="#683F1D" stroke-width="0.9" stroke-linecap="round" stroke-linejoin="round"/>
<path d="M129.849 168.125C130.62 166.183 132.455 158.933 132.909 156.949C133.363 154.965 136.8 153.818 136.226 165.035C136.226 165.035 146.057 161.832 147.838 161.372C149.619 160.911 150.3 164.808 147.39 166.41C147.39 166.41 149.183 167.724 147.276 171.322C147.276 171.322 149.266 173.157 146.601 176.235C146.964 176.945 147.061 177.762 146.875 178.538C146.688 179.314 146.231 179.998 145.585 180.466" stroke="#914839" stroke-width="0.68" stroke-linecap="round" stroke-linejoin="round"/>
<path d="M147.39 166.41C145.597 167.234 141.951 168.734 141.951 168.734" stroke="#914839" stroke-width="0.68" stroke-linecap="round" stroke-linejoin="round"/>
<path d="M147.276 171.322C146.189 172.033 143.649 173.306 143.649 173.306" stroke="#914839" stroke-width="0.68" stroke-linecap="round" stroke-linejoin="round"/>
<path d="M146.601 176.235C146.08 176.536 145.537 176.796 144.975 177.012" stroke="#914839" stroke-width="0.68" stroke-linecap="round" stroke-linejoin="round"/>
<path d="M136.226 165.035C134.559 165.525 133.238 166.021 133.238 166.021" stroke="#914839" stroke-width="0.68" stroke-linecap="round" stroke-linejoin="round"/>
<path d="M253.362 143.586C253.294 144.823 253.16 146.056 252.962 147.279C251.414 157.35 245.85 171.818 239.677 180.657C238.441 182.479 237.014 184.164 235.421 185.683C230.569 190.148 222.841 190.99 217.445 187.865C215.816 186.926 214.427 185.62 213.39 184.052C212.353 182.483 211.695 180.695 211.468 178.828C211.233 177.211 211.215 175.568 211.415 173.946C212.448 164.796 218.682 149.114 226.206 137.801C227.061 136.498 227.945 135.249 228.836 134.084C233.085 128.514 237.585 124.629 241.697 124.211C242.546 124.111 243.407 124.178 244.231 124.408C251.044 126.368 253.978 131.699 253.362 143.586Z" fill="#404E6D"/>
<path d="M240.896 149.078C238.831 156.181 238.002 163.586 238.445 170.969C238.683 174.228 239.094 177.472 239.677 180.687C238.441 182.509 237.014 184.193 235.421 185.713C230.569 190.177 222.841 191.02 217.445 187.894C215.815 186.955 214.427 185.65 213.39 184.082C212.353 182.513 211.695 180.725 211.468 178.858C216.249 183.986 221.269 185.091 225.214 183.795C230.939 181.954 234.531 175.147 232.326 168.184C228.447 155.945 237.196 148.947 241.374 146.909C241.266 147.59 241.099 148.313 240.896 149.078Z" fill="#404E6D"/>
<path d="M253.362 143.586C253.294 144.823 253.16 146.056 252.962 147.279C252.246 146.218 251.657 145.077 251.205 143.879C249.089 138.231 245.276 135.052 241.045 133.671C237.047 132.431 232.747 132.576 228.842 134.084C233.091 128.514 237.591 124.629 241.703 124.211C242.552 124.111 243.413 124.178 244.237 124.408C251.044 126.368 253.978 131.699 253.362 143.586Z" fill="#404E6D"/>
<path d="M301.101 243.205C285.156 240.51 269.241 238.353 254.002 236.9C249.507 236.478 244.967 236.08 240.382 235.705C241.242 225.324 243.179 208.286 246.74 204.144C246.929 203.882 247.172 203.664 247.452 203.504C247.733 203.344 248.044 203.246 248.366 203.218C250.386 203.182 255.442 203.015 261.454 202.793C274.799 202.291 292.854 201.544 292.854 201.544C293.111 202.548 293.368 203.547 293.619 204.533C293.619 204.574 293.619 204.622 293.661 204.67C296.821 217.374 299.305 230.238 301.101 243.205Z" fill="#83ADDF"/>
<path d="M286.453 206.678C288.324 210.861 293.326 215.768 295.017 216.886" stroke="#FDF19B" stroke-width="0.9" stroke-miterlimit="10"/>
<path d="M269.594 133.88C261.896 134.819 260.235 128.651 260.187 119.836C260.187 117.762 260.259 115.539 260.373 113.22C260.434 111.86 260.58 110.505 260.809 109.162C263.432 94.1438 275.863 95.9606 276.503 104.812C276.748 108.17 279.114 132.721 269.594 133.88Z" fill="#B25E47"/>
<path d="M269.415 110.579C269.002 116.507 264.741 119.543 260.193 119.836C260.193 117.762 260.265 115.539 260.378 113.22C260.44 111.86 260.586 110.505 260.815 109.162C263.319 108.093 269.737 105.798 269.415 110.579Z" fill="#914839"/>
<path d="M299.231 168.979C298.824 170.334 298.503 171.714 298.268 173.109C298.203 173.491 298.143 173.874 298.083 174.25C295.722 188.958 295.43 202.602 295.268 204.019C295.107 205.435 281.935 204.945 272.134 204.467C268.315 204.275 263.379 204.329 258.723 204.365C251.432 204.419 244.828 204.437 244.272 203.403C243.92 202.734 242.975 198.819 241.948 193.793C241.786 193.01 241.625 192.209 241.457 191.402C241.374 190.996 241.296 190.578 241.218 190.159C241.141 189.741 241.033 189.197 240.944 188.719C240.854 188.241 240.746 187.691 240.651 187.171C240.441 186.024 240.232 184.864 240.053 183.711C239.874 182.558 239.671 181.428 239.497 180.316C238.945 177.096 238.566 173.848 238.362 170.587C237.996 163.198 238.904 155.801 241.045 148.72C241.099 148.534 241.153 148.355 241.195 148.176C241.278 147.865 241.356 147.578 241.428 147.249L241.535 146.765C241.571 146.604 241.601 146.443 241.631 146.281C241.661 146.12 241.697 145.959 241.72 145.803C241.744 145.648 241.774 145.48 241.798 145.319C241.852 145.008 241.894 144.692 241.936 144.387C242.019 143.622 242.085 142.869 242.115 142.134C242.115 142.032 242.115 141.93 242.115 141.835C242.115 141.315 242.115 140.801 242.115 140.293C242.06 137.96 241.798 135.636 241.332 133.348C240.579 129.446 239.569 126.512 239.82 125.161C239.939 124.498 240.627 124.097 241.834 123.924C241.918 123.924 242.007 123.924 242.085 123.894C245.073 123.547 250.775 124.39 258.556 125.998C258.713 124.251 258.991 122.518 259.386 120.81C259.463 120.544 259.627 120.311 259.85 120.147C260.074 119.984 260.346 119.9 260.624 119.908C261.472 119.83 262.62 120.141 263.719 120.242C265.59 120.416 271.955 119.256 275.23 117.529C275.888 117.145 276.614 116.893 277.369 116.788C278.941 116.639 279.485 117.876 279.688 119.567C279.688 119.639 279.688 119.717 279.688 119.788C279.688 119.86 279.688 119.944 279.688 120.027C279.688 120.111 279.688 120.338 279.724 120.499C279.76 120.661 279.724 120.738 279.754 120.864C279.784 120.989 279.754 121.193 279.784 121.36C279.814 121.527 279.784 121.76 279.784 121.958C279.784 122.155 279.784 122.34 279.784 122.555C279.784 122.651 279.784 122.752 279.784 122.854C279.784 122.956 279.784 123.021 279.784 123.105C279.784 123.189 279.784 123.332 279.784 123.446C279.784 123.559 279.784 123.733 279.784 123.87C279.784 124.008 279.784 124.151 279.784 124.288V124.557C279.784 125.753 279.784 126.709 279.784 126.709C285.7 124.468 294.617 122.179 301.376 126.332H301.412C303.612 127.726 305.431 129.644 306.707 131.914C307.042 132.48 307.358 133.078 307.657 133.707C313.359 145.702 303.079 155.903 299.231 168.979Z" fill="#404E6D"/>
<path d="M306.844 131.89C301.137 132.59 294.748 136.295 288.754 143.419C287.822 144.526 286.901 145.722 285.993 147.005C276.353 160.493 259.566 156.919 253.123 147.082C252.418 146.016 251.84 144.871 251.402 143.67C249.34 137.998 245.563 134.777 241.35 133.355C240.597 129.452 239.587 126.518 239.838 125.167C239.957 124.504 240.645 124.103 241.852 123.93C241.935 123.93 242.025 123.93 242.103 123.9C245.091 123.553 250.792 124.396 258.573 126.004C258.731 124.258 259.009 122.524 259.404 120.816C259.481 120.55 259.644 120.317 259.868 120.153C260.092 119.99 260.364 119.906 260.641 119.914C261.49 119.836 262.637 120.147 263.737 120.249C265.608 120.422 271.972 119.262 275.247 117.535C275.905 117.151 276.632 116.899 277.387 116.794C278.959 116.645 279.503 117.882 279.706 119.573C279.706 119.645 279.706 119.723 279.706 119.794C279.706 119.866 279.706 119.95 279.706 120.033C279.706 120.117 279.706 120.344 279.742 120.506C279.777 120.667 279.742 120.745 279.772 120.87C279.801 120.996 279.771 121.199 279.801 121.366C279.831 121.533 279.801 121.767 279.801 121.964C279.801 122.161 279.801 122.346 279.801 122.561C279.801 122.657 279.801 122.759 279.801 122.86C279.801 122.962 279.801 123.028 279.801 123.111C279.801 123.195 279.801 123.338 279.801 123.452C279.801 123.565 279.801 123.739 279.801 123.876C279.801 124.014 279.801 124.157 279.801 124.294V124.563C279.801 125.759 279.801 126.715 279.801 126.715C285.718 124.474 294.635 122.185 301.394 126.338H301.43C303.67 127.708 305.531 129.617 306.844 131.89V131.89Z" fill="#404E6D"/>
<path d="M241.912 141.835C241.893 143.528 241.725 145.216 241.41 146.879C241.266 147.59 241.099 148.313 240.896 149.048C238.831 156.151 238.002 163.556 238.446 170.94C238.683 174.198 239.094 177.442 239.677 180.657C239.862 181.763 240.065 182.898 240.274 184.046C240.908 187.488 241.619 191.02 242.294 194.128C243.376 199.136 244.362 203.044 244.721 203.69" stroke="#404E6D" stroke-width="0.68" stroke-linecap="round" stroke-linejoin="round"/>
<path d="M298.22 173.994C296.015 188.731 295.866 202.369 295.716 203.786C295.567 205.202 282.395 204.861 272.594 204.479C268.775 204.329 263.839 204.437 259.183 204.521C263.008 201.335 270.921 196.1 278.511 199.411C289.047 204.007 294.013 189.508 287.583 188.211C281.152 186.914 280.817 179.599 279.562 173.683L284.822 171.549L298.22 173.994Z" fill="#404E6D"/>
<path d="M258.191 126.141C258.125 127.282 258.125 128.425 258.191 129.566" stroke="#404E6D" stroke-width="0.68" stroke-linecap="round" stroke-linejoin="round"/>
<path d="M279.562 126.398C279.479 128.645 279.377 130.11 279.377 130.11" stroke="#404E6D" stroke-width="0.68" stroke-linecap="round" stroke-linejoin="round"/>
<path d="M263.295 129.865C266.187 130.695 270.634 130.743 273.18 129.865" stroke="#404E6D" stroke-width="0.68" stroke-linecap="round" stroke-linejoin="round"/>
<path d="M325.861 182.659C322.873 186.454 314.751 187.183 308.141 181.906C306.297 180.417 304.719 178.627 303.473 176.611C302.744 175.452 301.806 173.695 300.76 171.627C300.3 170.707 299.81 169.726 299.314 168.711C296.535 163.021 293.338 156.124 291.318 152.18C290.304 150.187 289.545 148.075 289.059 145.893C288.855 145.026 288.694 144.148 288.568 143.263C287.045 132.643 290.857 121.492 301.155 126.004H301.185C303.234 126.906 305.416 128.86 307.609 131.424C312.928 137.664 318.271 147.56 321.677 155.001C322.454 156.692 323.124 158.258 323.673 159.626C327.654 169.523 329.584 177.89 325.861 182.659Z" fill="#404E6D"/>
<path d="M310.233 165.878C310 169.589 305.643 171.119 300.76 171.627C300.3 170.707 299.81 169.726 299.314 168.71C296.535 163.021 293.338 156.124 291.318 152.18C290.304 150.187 289.546 148.075 289.059 145.893C293.242 145.982 297.802 147.512 298.221 154.69C298.507 159.591 310.759 157.385 310.233 165.878Z" fill="#404E6D"/>
<path d="M307.609 131.442C307.25 131.442 306.892 131.502 306.539 131.55C300.838 132.303 294.491 136.08 288.568 143.263C287.045 132.643 290.857 121.492 301.155 126.004H301.185C303.234 126.924 305.416 128.878 307.609 131.442Z" fill="#404E6D"/>
<path d="M303.474 176.611C302.745 175.452 301.806 173.695 300.761 171.627C300.3 170.707 299.81 169.727 299.314 168.711C296.535 163.021 293.338 156.124 291.318 152.18C290.305 150.187 289.546 148.075 289.059 145.893C288.856 145.026 288.694 144.148 288.569 143.263" stroke="#404E6D" stroke-width="0.68" stroke-linecap="round" stroke-linejoin="round"/>
<path d="M325.861 182.659C322.873 186.454 314.751 187.183 308.141 181.906C309.77 181.383 311.497 181.238 313.191 181.482C319.92 182.462 326.56 179.689 321.385 171.854C317.201 165.501 320.189 157.511 321.677 155.019C322.454 156.71 323.124 158.276 323.674 159.644C327.654 169.523 329.584 177.89 325.861 182.659Z" fill="#404E6D"/>
<path d="M282.64 82.2274C281.379 83.1238 280.602 83.2672 280.632 84.6179C280.662 85.9685 280.076 86.363 279.485 86.5841C278.893 86.8052 279.556 87.8093 279.371 88.7774C279.186 89.7456 276.7 90.6659 276.7 90.6659L260.187 82.8967C258.813 81.2233 259.41 80.297 259.852 79.4006C259.895 79.3164 259.918 79.2232 259.918 79.1286C259.918 79.0341 259.895 78.9409 259.852 78.8567C259.619 78.2591 258.615 77.6913 258.872 76.9921C259.201 76.1016 260.068 75.9522 261.131 75.9164C262.195 75.8805 261.962 72.9282 261.472 72.1274C260.982 71.3266 261.358 69.3842 263.026 69.4978C264.693 69.6113 265.327 69.2767 265.476 68.4938C265.577 68.2212 265.732 67.9723 265.933 67.7625C266.134 67.5527 266.376 67.3866 266.644 67.2745C266.912 67.1623 267.201 67.1066 267.491 67.1107C267.782 67.1149 268.068 67.1788 268.333 67.2985C269.63 67.9738 270.723 67.2268 271.524 66.4857C271.57 66.4393 271.62 66.3973 271.674 66.3602C272.528 65.6969 274.321 65.3323 275.05 66.4857C275.779 67.6392 276.759 68.195 278.319 68.2786C279.879 68.3623 280.321 69.689 279.987 70.9859C279.652 72.2828 280.136 72.731 281.14 73.3286C281.666 73.7437 282.054 74.309 282.251 74.9494C282.449 75.5898 282.447 76.2751 282.246 76.9144C282.044 77.2924 281.971 77.7261 282.039 78.1492C282.107 78.5723 282.312 78.9615 282.622 79.2571C283.118 79.8189 283.901 81.3369 282.64 82.2274Z" fill="#683F1D"/>
<path d="M276.347 103.455C275.043 104.015 273.629 104.27 272.212 104.202C266.54 103.939 252.693 109.067 252.693 109.067C250.368 109.354 248.952 110.155 250.004 111.314C251.055 112.474 252.042 115.82 249.352 116.095C248.823 116.145 248.291 116.145 247.762 116.095C246.185 115.958 245.485 115.294 245.683 114.673C245.934 113.878 247.643 114.075 247.966 113.729C248.288 113.382 248.366 112.677 247.314 111.691C246.262 110.705 245.521 109.187 246.591 107.639C247.661 106.091 249.824 104.68 248.516 103.587C247.207 102.493 246.125 101.513 246.723 100.204C247.32 98.8953 250.356 97.0427 248.94 95.4231C247.523 93.8035 246.25 91.7536 249.012 89.2436C251.773 86.7335 254.57 87.2116 254.169 85.0601C253.769 82.9087 254.103 80.8408 257.08 81.3488C260.056 81.8568 260.498 81.6417 261.807 80.9126C263.116 80.1834 264.855 80.5839 266.534 82.0421C268.213 83.5003 269.803 81.8568 271.835 82.2572C273.867 82.6576 271.835 84.6179 274.417 85.0601C276.999 85.5024 277.871 85.604 278.164 88.0483C278.457 90.4926 280.166 90.5464 280.519 91.3233C281.254 92.8831 280.088 93.9768 279.76 94.9091C279.431 95.8414 280.154 96.3912 280.728 97.3474C281.642 98.967 279.694 102.033 276.347 103.455Z" fill="#683F1D"/>
<path d="M277.232 99.0865C277.042 100.563 276.74 102.024 276.329 103.455C275.025 104.014 273.611 104.27 272.194 104.202C266.522 103.939 252.675 109.067 252.675 109.067C250.35 109.354 248.934 110.155 249.986 111.314C251.038 112.473 252.024 115.82 249.334 116.095C248.806 116.145 248.273 116.145 247.745 116.095C249.759 115.766 250.297 114.332 249.257 112.432C247.828 109.82 248.342 108.248 249.777 106.772C251.211 105.296 248.862 101.734 249.777 99.8694C250.691 98.0048 252.245 97.3474 251.623 94.5325C251.002 91.7177 251.307 90.3491 253.548 88.8012C255.789 87.2534 257.641 86.9366 258.831 85.072C260.02 83.2074 263.122 82.0241 264.18 84.2592C265.237 86.4944 265.578 88.0064 268.548 87.098C271.518 86.1896 273.509 87.3071 272.451 89.859C271.393 92.4109 271.895 94.8313 273.76 95.1421C275.624 95.4529 277.602 95.5485 277.232 99.0865Z" fill="#683F1D"/>
<path d="M275.116 107.627C263.959 115.743 259.148 118.414 253.811 113.926C251.325 111.84 250.894 107.579 251.384 103.228C251.567 101.676 251.846 100.137 252.221 98.6204C252.779 96.1529 253.636 93.7626 254.773 91.5026C257.163 87.1757 262.674 86.9606 263.229 87.1757C263.785 87.3909 263.959 87.7136 263.421 88.9686C262.883 90.2236 263.474 91.1619 265.022 91.2097C266.57 91.2575 268.339 92.3333 268.172 93.8812C268.071 94.6347 268.194 95.4014 268.527 96.085C268.86 96.7686 269.387 97.3388 270.042 97.7239C271.483 98.6323 271.238 100.025 271.429 100.873C271.62 101.722 273.407 102.666 273.891 101.513C274.375 100.359 277.142 97.8315 279.389 100.132C281.636 102.433 279.652 107.788 275.116 107.627Z" fill="#B25E47"/>
<path d="M261.741 101.824C262.279 102.941 264.215 103.121 266.056 102.23C267.897 101.34 268.967 99.7141 268.447 98.5965C267.927 97.4789 265.978 97.2937 264.132 98.1901C262.285 99.0866 261.203 100.706 261.741 101.824Z" fill="#914839"/>
<path d="M254.217 102.798C253.709 103.509 252.585 103.64 251.384 103.228C251.567 101.676 251.846 100.137 252.221 98.6201C252.322 98.6783 252.42 98.7421 252.514 98.8114C254.181 100.007 254.94 101.794 254.217 102.798Z" fill="#914839"/>
<path d="M254.002 97.4011C254.001 97.5526 254.045 97.7011 254.128 97.8277C254.211 97.9543 254.33 98.0533 254.47 98.1121C254.61 98.1709 254.764 98.1869 254.912 98.1581C255.061 98.1292 255.198 98.0568 255.306 97.9501C255.413 97.8434 255.487 97.7071 255.517 97.5585C255.547 97.41 255.532 97.2558 255.474 97.1157C255.417 96.9756 255.318 96.8558 255.193 96.7714C255.067 96.6871 254.918 96.6421 254.767 96.6421C254.565 96.6421 254.371 96.7219 254.228 96.864C254.085 97.0062 254.004 97.1992 254.002 97.4011V97.4011Z" fill="#683F1D"/>
<path d="M258.663 97.8075C258.663 97.9588 258.708 98.1066 258.792 98.2324C258.876 98.3582 258.996 98.4563 259.135 98.5142C259.275 98.5721 259.429 98.5872 259.577 98.5577C259.726 98.5282 259.862 98.4554 259.969 98.3484C260.076 98.2414 260.149 98.1051 260.178 97.9567C260.208 97.8083 260.193 97.6545 260.135 97.5147C260.077 97.3749 259.979 97.2555 259.853 97.1714C259.727 97.0874 259.579 97.0425 259.428 97.0425C259.225 97.0425 259.031 97.1231 258.887 97.2665C258.744 97.41 258.663 97.6046 258.663 97.8075V97.8075Z" fill="#683F1D"/>
<path d="M274.704 104.208C274.853 102.565 276.73 100.299 278.756 101.973" stroke="#914839" stroke-width="0.68" stroke-linecap="round" stroke-linejoin="round"/>
<path d="M274.776 103.802C276.18 101.411 279.007 104.692 275.714 105.35" stroke="#914839" stroke-width="0.68" stroke-linecap="round" stroke-linejoin="round"/>
<path d="M256.183 102.296C255.347 101.907 255.018 101.148 255.09 100.963C255.161 100.778 257.779 98.8474 257.277 95.8772" stroke="#914839" stroke-width="0.68" stroke-linecap="round" stroke-linejoin="round"/>
<path d="M259.428 92.1659C259.189 93.7137 262.948 95.2257 263.528 94.2516C264.024 93.4149 259.775 89.9128 259.428 92.1659Z" fill="#683F1D"/>
<path d="M253.117 93.188C253.153 93.6302 257.187 93.5406 257.133 91.9927C257.08 90.4448 253.016 91.8851 253.117 93.188Z" fill="#683F1D"/>
<path d="M256.578 103.862C257.976 103.494 259.341 103.01 260.659 102.415C260.659 102.415 261.078 104.997 259.428 105.469C259.136 105.553 258.829 105.579 258.526 105.543C258.224 105.508 257.931 105.412 257.666 105.263C257.401 105.113 257.168 104.912 256.981 104.672C256.794 104.431 256.657 104.156 256.578 103.862V103.862Z" fill="#FDF19B" stroke="#914839" stroke-width="0.68" stroke-linecap="round" stroke-linejoin="round"/>
<path d="M277.829 75.958C277.232 77.8824 274.967 75.8923 274.787 78.6414C274.608 81.3905 269.122 80.6195 267.443 77.9481C266.068 75.7488 262.171 76.5736 259.882 78.8984C259.649 78.3007 258.645 77.733 258.902 77.0337C259.231 76.1433 260.098 75.9938 261.161 75.958C262.225 75.9221 261.992 72.9698 261.502 72.169C261.012 71.3682 261.388 69.4259 263.056 69.5394C264.723 69.653 265.357 69.3183 265.506 68.5354C265.607 68.2628 265.762 68.0139 265.963 67.8041C266.164 67.5944 266.406 67.4282 266.674 67.3161C266.942 67.2039 267.231 67.1482 267.521 67.1523C267.812 67.1565 268.098 67.2204 268.363 67.3401C269.66 68.0155 270.753 67.2684 271.554 66.5274C271.6 66.4809 271.65 66.4389 271.704 66.4019C272.343 68.1948 272.809 70.6929 275.289 70.914C278.75 71.2307 278.427 74.0276 277.829 75.958Z" fill="#683F1D"/>
<path d="M206.383 128.824C206.693 126.852 212.233 125.382 215.455 124.766L216.686 132.727C216.686 132.727 207.829 131.46 206.383 128.824Z" fill="#404E6D"/>
<path d="M211.534 133.056C210.894 124.438 210.894 117.189 210.715 114.416C210.536 111.643 210.673 108.744 213.907 107.411C213.907 107.411 213.907 104.871 217.594 104.423C217.594 104.423 217.128 102.146 220.212 102.206C220.205 101.993 220.248 101.781 220.338 101.587C220.427 101.393 220.56 101.223 220.726 101.089C220.892 100.956 221.087 100.862 221.295 100.816C221.504 100.771 221.72 100.774 221.927 100.826C223.947 101.178 224.598 102.415 224.598 102.415C227.276 101.818 228.782 104.62 228.638 106.909C228.495 109.198 228.333 111.69 227.228 113.997C226.122 116.304 224.718 120.123 224.718 120.123L224.807 124.964C224.807 124.964 222.752 140.532 211.534 133.056Z" fill="#B25E47"/>
<path d="M210.715 114.416C210.53 111.673 210.673 108.744 213.906 107.411C213.906 107.411 213.906 104.871 217.594 104.423C217.594 104.423 217.128 102.146 220.211 102.206C220.205 101.993 220.248 101.781 220.337 101.587C220.427 101.393 220.56 101.223 220.726 101.089C220.892 100.956 221.087 100.862 221.295 100.816C221.504 100.771 221.72 100.774 221.927 100.826C223.947 101.178 224.598 102.415 224.598 102.415C227.275 101.818 228.781 104.62 228.638 106.909" stroke="#914839" stroke-width="0.68" stroke-linecap="round" stroke-linejoin="round"/>
<path d="M224.598 102.415C221.843 103.772 219.817 106.318 220.648 107.567C221.478 108.816 224.604 107.25 225.028 106.85" stroke="#914839" stroke-width="0.68" stroke-linecap="round" stroke-linejoin="round"/>
<path d="M219.979 102.212C221.018 102.349 223.068 103.503 223.068 103.503" stroke="#914839" stroke-width="0.68" stroke-linecap="round" stroke-linejoin="round"/>
<path d="M217.594 104.423C218.802 104.472 219.985 104.778 221.066 105.32" stroke="#914839" stroke-width="0.68" stroke-linecap="round" stroke-linejoin="round"/>
<path d="M220.594 111.11C221.514 110.411 222.309 109.18 222.07 108.039" stroke="#914839" stroke-width="0.68" stroke-linecap="round" stroke-linejoin="round"/>
<path d="M213.883 107.435C216.082 106.533 218.317 105.511 218.98 107.011C219.644 108.511 220.008 113.131 218.98 113.758C217.952 114.386 216.231 113.866 215.938 112.659C215.646 111.451 215.424 109.796 215.424 109.796" stroke="#914839" stroke-width="0.68" stroke-linecap="round" stroke-linejoin="round"/>
<path d="M217.988 114.021C218.915 115.162 218.586 119.202 217.594 120.553" stroke="#914839" stroke-width="0.68" stroke-linecap="round" stroke-linejoin="round"/>
<path d="M225.238 183.741C223.445 187.141 220.875 188.994 217.433 187.841C210.948 185.641 208.366 179.42 207.422 173.342C206.43 167.001 207.207 160.792 207.177 159.501C207.111 156.925 206.406 128.812 206.406 128.812C207.53 129.261 209.233 129.273 211.295 128.884C212.865 128.573 214.407 128.129 215.903 127.557C219.037 126.356 222.02 124.792 224.789 122.896L224.909 122.812C224.909 122.812 225.471 129.781 226.23 137.789C226.869 144.65 227.658 152.27 228.363 156.913C229.475 164.479 228.823 177.095 225.238 183.741Z" fill="#404E6D"/>
<path d="M225.238 183.741C223.445 187.142 220.875 188.994 217.433 187.841C210.948 185.642 208.367 179.42 207.422 173.342C208.577 175.305 209.94 177.139 211.486 178.811C216.273 183.956 221.275 185.062 225.238 183.741Z" fill="#404E6D"/>
<path d="M224.891 122.83C224.891 122.83 226.827 146.843 228.345 156.949C229.173 163.377 228.971 169.895 227.748 176.259" stroke="#404E6D" stroke-width="0.68" stroke-linecap="round" stroke-linejoin="round"/>
<path d="M293.452 151.721L270.395 142.09C268.577 141.331 266.487 142.189 265.728 144.008L252.036 176.786C251.277 178.605 252.135 180.694 253.953 181.454L277.01 191.084C278.828 191.844 280.918 190.985 281.677 189.167L295.369 156.388C296.128 154.57 295.27 152.481 293.452 151.721Z" fill="#DDDDDD"/>
<path d="M290.858 150.632L270.393 142.084C268.575 141.325 266.485 142.183 265.726 144.001L252.034 176.78C251.275 178.598 252.133 180.688 253.951 181.448L274.416 189.995C276.234 190.755 278.324 189.897 279.083 188.078L292.775 155.3C293.534 153.481 292.676 151.392 290.858 150.632Z" fill="#F9F9F9" stroke="#DDDDDD" stroke-width="0.9" stroke-linecap="round" stroke-linejoin="round"/>
<path d="M271.751 147.542C271.751 147.85 271.66 148.15 271.49 148.406C271.319 148.661 271.076 148.86 270.792 148.978C270.508 149.096 270.196 149.126 269.895 149.066C269.593 149.006 269.316 148.858 269.099 148.641C268.882 148.424 268.734 148.147 268.674 147.846C268.614 147.544 268.644 147.232 268.762 146.948C268.88 146.664 269.079 146.421 269.334 146.25C269.59 146.08 269.89 145.989 270.198 145.989C270.402 145.988 270.604 146.027 270.793 146.105C270.982 146.183 271.154 146.297 271.298 146.442C271.443 146.586 271.557 146.758 271.635 146.947C271.713 147.136 271.752 147.338 271.751 147.542Z" fill="#DDDDDD"/>
<path d="M274.315 149.078C274.316 149.232 274.272 149.383 274.187 149.512C274.102 149.641 273.981 149.741 273.838 149.801C273.696 149.86 273.54 149.876 273.388 149.846C273.237 149.817 273.098 149.742 272.989 149.633C272.88 149.524 272.806 149.385 272.776 149.234C272.746 149.083 272.762 148.926 272.822 148.784C272.881 148.642 272.982 148.521 273.11 148.436C273.239 148.351 273.39 148.306 273.544 148.307C273.748 148.309 273.944 148.39 274.088 148.535C274.232 148.679 274.314 148.874 274.315 149.078V149.078Z" fill="#DDDDDD"/>
<path d="M273.18 174.854C271.656 174.322 270.867 171.376 270.664 168.836L276.64 169.541C276.64 169.541 276.682 175.237 273.18 174.854Z" fill="#404E6D"/>
<path d="M275.188 173.354C273.492 172.143 271.737 171.018 269.929 169.983C269.247 169.613 265.381 169.177 262.691 167.694C260.879 166.67 259.133 165.535 257.462 164.294L256.398 166.272C256.398 166.272 254.306 164.013 254.008 161.975C253.709 159.937 254.534 159.871 255.024 159.435C255.514 158.999 255.209 158.353 255.179 157.302C255.149 156.25 256.046 156.035 256.326 155.664C256.607 155.294 256.356 154.331 256.297 153.034C256.237 151.738 257.779 151.672 258.024 150.931C258.269 150.19 258.49 147.805 260.594 148.427C262.697 149.048 271.853 155.849 272.451 156.16C273.34 156.478 274.251 156.736 275.176 156.931C275.176 156.931 282.67 168.651 275.188 173.354Z" fill="#B25E47"/>
<path d="M257.462 164.294L256.398 166.272C256.398 166.272 254.306 164.013 254.008 161.975C253.709 159.937 254.534 159.871 255.024 159.435C255.514 158.999 255.209 158.353 255.179 157.302C255.149 156.25 256.046 156.035 256.326 155.664C256.607 155.294 256.356 154.331 256.297 153.034C256.237 151.738 257.779 151.672 258.024 150.931C258.269 150.19 258.49 147.805 260.594 148.427" stroke="#914839" stroke-width="0.68" stroke-linecap="round" stroke-linejoin="round"/>
<path d="M257.462 164.294C256.416 163.415 256.201 163.272 256.201 163.272" stroke="#914839" stroke-width="0.68" stroke-linecap="round" stroke-linejoin="round"/>
<path d="M327.032 181.081C325.114 186.974 317.96 192.197 301.651 186.03L300.76 185.683C283.805 178.96 273.174 174.848 273.174 174.848C274.639 168.648 274.639 162.192 273.174 155.993C282.909 158.718 308.655 164.001 317.799 166.684C318.396 166.864 318.994 167.049 319.526 167.282C327.2 170.115 328.885 175.374 327.032 181.081Z" fill="#404E6D"/>
<path d="M300.76 185.683C283.806 178.96 273.18 174.854 273.18 174.854" stroke="#404E6D" stroke-width="0.68" stroke-linecap="round" stroke-linejoin="round"/>
<path d="M273.18 155.993C282.013 158.467 304.041 163.045 314.871 165.878" stroke="#404E6D" stroke-width="0.68" stroke-linecap="round" stroke-linejoin="round"/>
<path d="M327.033 181.082C325.114 186.974 317.961 192.197 301.651 186.03C301.651 186.03 306.432 180.502 313.191 181.482C319.951 182.462 326.56 179.689 321.385 171.854C320.468 170.46 319.836 168.898 319.526 167.258C327.2 170.115 328.885 175.374 327.033 181.082Z" fill="#404E6D"/>
<path d="M387.991 129.542C387.361 130.552 386.443 131.351 385.355 131.837C377.772 135.422 360.625 128.597 360.625 128.388C360.625 128.179 357.315 100.072 362.048 89.9664C362.938 88.0719 364.11 86.8169 365.634 86.5121C373.469 86.273 380.192 88.9325 381.339 94.5861C382.487 100.24 379.074 106.754 380.072 110.776C381.07 114.798 385.128 114.882 386.832 115.742C389.915 117.29 392.802 121.551 387.991 129.542Z" fill="#B25E47"/>
<path d="M385.355 131.837C377.772 135.422 360.625 128.598 360.625 128.388C360.625 128.179 357.315 100.073 362.048 89.9666C374.861 90.4327 376.989 95.16 376.026 101.71C375.004 108.672 370.343 118.217 380.491 125.089C383.551 127.169 384.925 129.536 385.355 131.837Z" fill="#B25E47"/>
<path d="M369.1 103.688C370.97 105.786 371.245 108.427 370.474 111.404C369.703 114.38 368.508 118.731 369.99 123.028" stroke="#683F1D" stroke-width="0.68" stroke-linecap="round" stroke-linejoin="round"/>
<path d="M377.694 101.041C377.598 105.027 376.397 107.77 376.056 111.523C375.716 115.276 378.034 117.44 380.969 118.593C382.186 119.101 383.153 120.07 383.658 121.288C384.163 122.506 384.165 123.875 383.664 125.095" stroke="#683F1D" stroke-width="0.68" stroke-linecap="round" stroke-linejoin="round"/>
<path d="M375.632 124.629C372.811 121.354 372.261 118.958 373.947 118.707C375.632 118.456 378.949 119.902 378.614 121.354C378.279 122.807 376.134 122.191 376.223 121.48" stroke="#683F1D" stroke-width="0.68" stroke-linecap="round" stroke-linejoin="round"/>
<path d="M362.43 143.795C354.422 147.979 348.595 143.98 347.842 139.546C347.352 136.642 347.639 129.948 347.806 122.992C347.89 119.352 347.949 115.629 347.842 112.354C347.842 111.84 347.842 111.344 347.842 110.854C347.842 90.1517 363.655 94.9507 364.94 102.965C365.753 108.051 367.002 118.181 367.612 123.524C368.221 128.866 370.462 139.612 362.43 143.795Z" fill="#FEBD9D"/>
<path d="M347.806 122.992C347.89 119.352 347.95 115.629 347.842 112.354C347.842 111.84 347.842 111.344 347.842 110.854C351.774 110.662 358.002 110.471 358.002 110.471C359.149 118.545 354.547 123.757 347.806 122.992Z" fill="#FDC0A5"/>
<path d="M319.502 215.081C320.226 216.187 325.479 212.093 326.985 209.702L321.648 202.339C321.648 202.339 317.429 211.872 319.502 215.081Z" fill="#BA6BF8"/>
<path d="M332.465 195.329C339.039 205.363 342.087 208.531 342.559 212.708C343.031 216.886 341.28 227.255 336.636 229.006C331.993 230.757 321.277 223.412 320.871 221.733C320.465 220.053 325.55 220.788 327.929 221.93C327.929 221.93 323.387 215.834 323.387 209.003C323.387 207.252 317.1 203.816 317.1 203.816C317.1 203.816 322.305 188.187 332.465 195.329Z" fill="#FEBD9D"/>
<path d="M411.657 270.84C391.296 263.597 366.237 256.598 339.75 250.742V238.873C339.75 235.663 340.121 230.237 340.599 224.362C340.987 219.509 341.447 214.352 341.794 209.899C342.111 206.158 342.356 202.907 342.463 200.75L350.537 200.666L365.604 200.523L396.364 200.218L401.354 200.17C401.922 214.34 406.888 231.151 410.384 243.911C412.894 253.007 412.243 264.732 411.657 270.84Z" fill="#683F1D"/>
<path d="M394.367 223.824C392.341 230.309 394.499 236.757 398.419 238.873" stroke="#7F542D" stroke-width="0.68" stroke-linecap="round" stroke-linejoin="round"/>
<path d="M319.502 171.55L323.142 177.908L333.971 196.829" stroke="#83ADDF" stroke-width="0.68" stroke-linecap="round" stroke-linejoin="round"/>
<path d="M395.204 201.562C393.651 201.879 384.985 202.16 375.118 202.279C360.177 202.435 342.487 202.13 342.487 200.749C342.487 198.586 343.431 196.566 340.73 191.827C338.029 187.088 333.559 183.388 333.158 174.764C332.758 166.141 334.778 156.543 334.778 156.543L330.541 160.726L319.502 171.549L323.142 177.908L333.971 196.829C333.971 196.829 319.371 202.506 319.502 215.081C319.502 215.081 299.5 190.207 293.553 181.691C287.607 173.175 294.36 163.439 303.958 153.435C308.739 148.439 313.992 141.709 319.239 136.044C324.487 130.378 329.776 125.788 334.646 125.089C337.401 124.695 341.22 124.354 345.332 124.079C346.133 124.019 346.94 123.966 347.758 123.918C347.537 132.362 349.976 133.922 349.976 133.922C351.171 134.627 351.296 134.299 351.404 135.715C351.511 137.131 352.169 141.148 353.322 141.148C354.918 141.148 355.946 138.53 357.297 134.741C358.187 130.211 363.781 128.442 365.586 125.98C366.211 125.094 366.649 124.089 366.871 123.027H367.534C368.58 123.284 369.841 123.577 371.221 123.858C374.807 124.587 379.212 125.257 382.786 125.089C387.525 124.874 401.402 125.155 405.531 136.11C405.531 136.11 405.531 136.139 405.531 136.157C405.705 136.623 405.86 137.114 406.004 137.622C406.111 138.022 406.207 138.464 406.29 138.942C408.741 153.262 398.999 200.773 395.204 201.562Z" fill="#BA6BF8"/>
<path d="M381.817 164.109C373.69 166.959 371.514 178.183 373.355 182.701C375.196 187.219 368.914 189.43 362.92 189.43C356.018 189.43 347.812 196.692 351.326 207.078L386.586 190.942L381.817 164.109Z" fill="#BA6BF8"/>
<path d="M406.571 139.05C406.488 139.008 406.392 138.978 406.308 138.942C398.934 136.026 390.298 137.867 384.68 142.528C383.254 143.693 382.02 145.074 381.022 146.622C374.299 157.194 352.677 162.967 345.577 149.108C339.828 137.873 331.234 134.353 319.239 136.05C324.498 130.384 329.776 125.794 334.646 125.095C337.401 124.701 341.22 124.36 345.332 124.085C346.133 124.026 346.94 123.972 347.758 123.924C347.537 132.368 349.975 133.928 349.975 133.928C351.171 134.633 351.296 134.305 351.404 135.721C351.511 137.138 352.169 141.154 353.322 141.154C354.918 141.154 355.946 138.536 357.296 134.747C358.187 130.217 363.781 128.448 365.586 125.986C366.211 125.1 366.648 124.095 366.871 123.033H367.534C368.58 123.29 369.841 123.583 371.221 123.864C374.807 124.593 379.212 125.263 382.786 125.095C387.525 124.88 401.402 125.161 405.531 136.116C405.531 136.116 405.531 136.146 405.531 136.163C405.943 137.101 406.29 138.065 406.571 139.05V139.05Z" fill="#BA6BF8"/>
<path d="M355.282 145.134C355.972 145.134 356.532 144.575 356.532 143.885C356.532 143.195 355.972 142.636 355.282 142.636C354.593 142.636 354.033 143.195 354.033 143.885C354.033 144.575 354.593 145.134 355.282 145.134Z" fill="#83ADDF"/>
<path d="M352.635 143.299C353.006 146.658 351.966 152.587 351.171 158.581C350.376 164.575 348.481 172.822 351.171 181.291C353.86 189.759 354.464 192.359 354.535 193.393C354.655 195.228 353.257 197.325 356.735 198.772" stroke="#83ADDF" stroke-width="0.68" stroke-linecap="round" stroke-linejoin="round"/>
<path d="M349.976 133.922C346.653 133.134 344.286 137.185 343.019 140.61C342.894 130.713 344.089 126.165 345.332 124.079C346.575 121.994 347.824 122.388 347.824 122.388C347.788 122.926 347.77 123.434 347.758 123.918C347.537 132.345 349.976 133.922 349.976 133.922Z" fill="#83ADDF"/>
<path d="M371.257 127.755C370.372 133.39 366.84 141.16 366.84 141.16C366.84 141.16 364.032 137.98 362.059 135.578C360.087 133.175 358.946 133.57 357.278 134.753C358.169 130.223 363.763 128.454 365.567 125.992C366.193 125.106 366.63 124.101 366.852 123.039C367.087 122.037 367.191 121.009 367.163 119.979C368.152 120.135 369.07 120.59 369.793 121.284C370.515 121.977 371.007 122.876 371.203 123.858C371.469 125.142 371.487 126.464 371.257 127.755V127.755Z" fill="#83ADDF"/>
<path d="M316.819 206.678C317.476 203.128 322 196.925 329.178 193.662" stroke="#83ADDF" stroke-width="0.68" stroke-linecap="round" stroke-linejoin="round"/>
<path d="M310.233 163.523C311.287 163.585 312.307 163.92 313.191 164.497C314.984 165.543 317.177 167.617 319.502 171.549" stroke="#83ADDF" stroke-width="0.68" stroke-linecap="round" stroke-linejoin="round"/>
<path d="M334.778 156.543L335.847 151.965" stroke="#83ADDF" stroke-width="0.68" stroke-linecap="round" stroke-linejoin="round"/>
<path d="M330.54 160.708L319.502 171.549C317.177 167.617 314.96 165.543 313.191 164.497C316.054 163.212 317.464 164.384 318.851 165.406C322.281 167.952 325.514 157.875 330.54 160.708Z" fill="#BA6BF8"/>
<path d="M407.086 176.988C405.801 187.674 403.763 197.959 401.659 205.023C397.601 218.625 387.411 219.402 380.832 215.063C377.019 212.541 374.413 208.304 374.927 203.84C374.975 203.397 375.04 202.877 375.118 202.28C376.313 193.124 380.312 166.254 382.72 150.979C383.145 148.106 383.8 145.272 384.68 142.505C387.812 132.942 393.047 129.984 399.49 130.648C402.155 130.922 404.127 132.907 405.532 136.092C405.532 136.092 405.532 136.122 405.532 136.14C405.937 137.08 406.279 138.046 406.554 139.032C409.147 148.021 408.777 162.824 407.086 176.988Z" fill="#BA6BF8"/>
<path d="M407.085 176.988C405.8 187.673 403.762 197.959 401.659 205.023C397.601 218.625 387.411 219.402 380.831 215.063C382.065 213.875 383.608 213.059 385.284 212.708C392.712 211.31 397.141 205.614 396.041 193.662C395.18 184.59 403.171 179.109 407.085 176.988Z" fill="#BA6BF8"/>
<path d="M406.571 139.05C406.488 139.008 406.392 138.979 406.308 138.943C398.934 136.026 390.298 137.867 384.68 142.529C387.812 132.966 393.047 130.008 399.49 130.671C402.155 130.946 404.127 132.931 405.532 136.116C405.532 136.116 405.532 136.146 405.532 136.164C405.943 137.101 406.291 138.066 406.571 139.05V139.05Z" fill="#BA6BF8"/>
<path d="M376.911 189.431C378.644 177.478 381.094 161.491 382.72 150.979C383.144 148.106 383.8 145.272 384.68 142.505C385.336 140.407 386.252 138.399 387.405 136.528" stroke="#83ADDF" stroke-width="0.68" stroke-linecap="round" stroke-linejoin="round"/>
<path d="M326.309 238.867C323.166 239.464 319.98 234.773 318.929 231.886C317.877 229 326.273 227.703 326.273 227.703C326.273 227.703 329.005 236.626 326.309 238.867Z" fill="#BA6BF8"/>
<path d="M318.534 217.926C312.39 219.975 297.987 227.135 297.216 227.733C296.445 228.33 294.151 233.566 294.067 234.354C293.983 235.143 293.045 243.319 294.575 243.845C296.105 244.371 296.876 240.976 297.216 238.873C297.541 237.309 298.057 235.792 298.752 234.354C298.752 234.354 297.82 237.659 299.183 238.873C299.971 239.578 301.734 238.873 301.734 238.873C301.734 238.873 302.165 241.03 304.98 240.008C304.98 240.008 304.812 242.297 306.665 242.745C308.518 243.193 310.251 241.126 310.986 239.906C311.249 239.494 310.585 238.287 309.725 238.287C309.725 238.287 310.49 237.791 312.791 237.791C315.092 237.791 317.835 237.922 319.592 235.263C321.349 232.603 323.333 231.336 324.97 230.912L318.534 217.926Z" fill="#FEBD9D"/>
<path d="M294.067 234.354C293.977 235.149 293.045 243.319 294.575 243.845C296.105 244.371 296.876 240.976 297.216 238.873C297.541 237.309 298.057 235.792 298.752 234.354C298.752 234.354 297.82 237.659 299.183 238.873C299.971 239.578 301.734 238.873 301.734 238.873C301.734 238.873 302.165 241.03 304.98 240.008C304.98 240.008 304.812 242.297 306.665 242.745C308.518 243.193 310.251 241.126 310.986 239.907C311.249 239.494 310.585 238.287 309.725 238.287" stroke="#FDC0A5" stroke-width="0.68" stroke-linecap="round" stroke-linejoin="round"/>
<path d="M310.066 238.347C309.598 238.278 309.121 238.311 308.667 238.442" stroke="#FDC0A5" stroke-width="0.68" stroke-linecap="round" stroke-linejoin="round"/>
<path d="M309.103 236.93C308.643 238.125 308.069 239.954 308.296 240.48" stroke="#FDC0A5" stroke-width="0.68" stroke-linecap="round" stroke-linejoin="round"/>
<path d="M304.986 240.457C304.944 238.024 305.564 235.626 306.778 233.518" stroke="#FDC0A5" stroke-width="0.68" stroke-linecap="round" stroke-linejoin="round"/>
<path d="M301.735 238.872C301.286 237.08 302.667 232.52 303.773 231.193" stroke="#FDC0A5" stroke-width="0.68" stroke-linecap="round" stroke-linejoin="round"/>
<path d="M298.746 234.354C298.92 233.159 299.165 229.89 300.952 228.378" stroke="#FDC0A5" stroke-width="0.68" stroke-linecap="round" stroke-linejoin="round"/>
<path d="M392.617 216.611C389.957 218.009 383.58 220.412 375.775 223.137C355.772 230.111 326.387 239.189 326.309 238.867C326.202 238.418 323.62 226.645 314.763 218.798C314.763 218.798 355.856 199.16 369.022 193.01C376.929 189.317 389.025 183.042 395.539 189.012C395.778 189.227 396.005 189.454 396.22 189.688C403.242 197.08 401.79 211.776 392.617 216.611Z" fill="#BA6BF8"/>
<path d="M392.616 216.611C389.957 218.009 383.58 220.412 375.775 223.137C377.156 219.551 380.162 213.67 385.283 212.708C392.712 211.31 397.14 205.614 396.041 193.662C395.914 192.334 395.98 190.996 396.238 189.688C403.242 197.08 401.79 211.776 392.616 216.611Z" fill="#BA6BF8"/>
<path d="M314.763 218.798C314.763 218.798 355.856 199.16 369.022 193.01C372.799 191.247 377.532 188.892 382.17 187.566" stroke="#83ADDF" stroke-width="0.68" stroke-linecap="round" stroke-linejoin="round"/>
<path d="M323.387 217.412C328.353 223.502 332.465 234.355 332.465 234.355" stroke="#83ADDF" stroke-width="0.68" stroke-linecap="round" stroke-linejoin="round"/>
<path d="M368.138 86.5779C371.861 88.3708 374.939 96.2057 368.347 101.041C361.755 105.875 364.761 94.3292 364.922 94.1081C365.084 93.8869 365.293 86.8468 368.138 86.5779Z" fill="#F797FF"/>
<path d="M368.371 96.5406C368.089 97.0794 367.703 97.5568 367.235 97.9451C367.235 97.9451 360.147 102.816 355.731 100.216C351.314 97.6164 345.906 91.4488 345.906 91.4488C343.916 89.9667 342.828 88.8073 342.433 87.5104C342.242 86.8421 342.207 86.1385 342.332 85.4546C342.696 83.1477 345.147 77.9842 352.946 79.8966C352.946 79.8966 354.314 78.1635 357.129 79.2093C359.944 80.2552 362.394 83.327 362.394 83.327C362.394 83.327 365.137 82.3529 368.132 86.5781C370.492 89.9129 369.697 94.2099 368.371 96.5406Z" fill="#B25E47"/>
<path d="M368.371 96.5405C368.089 97.0792 367.703 97.5566 367.235 97.9449C367.235 97.9449 360.147 102.816 355.731 100.216C351.314 97.6162 345.906 91.4487 345.906 91.4487C343.915 89.9665 342.828 88.8071 342.433 87.5103C342.792 83.7511 344.525 81.0618 348.177 82.1854C353.352 83.781 355.85 86.6437 361.002 85.2632C361.002 85.2632 362.305 95.4349 368.371 96.5405Z" fill="#B25E47"/>
<path d="M344.997 84.2235C345.929 83.2075 347.836 83.2493 350.669 86.1956" stroke="#683F1D" stroke-width="0.68" stroke-linecap="round" stroke-linejoin="round"/>
<path d="M351.272 79.5796C353.403 80.0245 355.417 80.9123 357.183 82.1853" stroke="#683F1D" stroke-width="0.68" stroke-linecap="round" stroke-linejoin="round"/>
<path d="M362.4 83.3389C362.879 83.9313 363.28 84.5819 363.595 85.2752" stroke="#683F1D" stroke-width="0.68" stroke-linecap="round" stroke-linejoin="round"/>
<path d="M363.888 105.266C357.595 114.123 349.468 118.952 344.561 114.828C340.939 111.798 340.916 105.768 341.77 100.909C342.017 99.4958 342.35 98.0987 342.768 96.7259C342.804 96.6064 342.846 96.4929 342.882 96.3793C344.418 91.5983 346.689 84.4267 350.346 85.9148C350.346 85.9148 353.203 88.4726 358.617 87.373C358.617 87.373 355.838 97.5328 362.131 98.728C362.131 98.728 364.91 95.1422 368.108 97.0487C371.305 98.9551 371.341 105.188 363.888 105.266Z" fill="#FEBD9D"/>
<path d="M350.812 94.7595C350.811 94.911 350.855 95.0595 350.938 95.1861C351.021 95.3127 351.14 95.4117 351.28 95.4705C351.42 95.5293 351.574 95.5453 351.723 95.5165C351.871 95.4876 352.008 95.4152 352.116 95.3085C352.223 95.2018 352.297 95.0655 352.327 94.9169C352.357 94.7684 352.342 94.6142 352.284 94.4741C352.227 94.334 352.129 94.2142 352.003 94.1298C351.877 94.0455 351.729 94.0005 351.577 94.0005C351.375 94.0005 351.181 94.0803 351.038 94.2224C350.895 94.3646 350.814 94.5576 350.812 94.7595V94.7595Z" fill="#683F1D"/>
<path d="M345.577 94.7595C345.575 94.911 345.619 95.0595 345.703 95.1861C345.786 95.3127 345.905 95.4117 346.045 95.4705C346.184 95.5293 346.338 95.5453 346.487 95.5165C346.636 95.4876 346.773 95.4152 346.88 95.3085C346.988 95.2018 347.061 95.0655 347.091 94.9169C347.121 94.7684 347.107 94.6142 347.049 94.4741C346.991 94.334 346.893 94.2142 346.767 94.1298C346.641 94.0455 346.493 94.0005 346.342 94.0005C346.14 94.0005 345.946 94.0803 345.803 94.2224C345.66 94.3646 345.578 94.5576 345.577 94.7595V94.7595Z" fill="#683F1D"/>
<path d="M362.095 98.752C361.521 99.3992 361.132 100.19 360.972 101.041" stroke="#FDC0A5" stroke-width="0.68" stroke-linecap="round" stroke-linejoin="round"/>
<path d="M362.932 101.363C364.259 98.3753 367.116 98.196 368.759 99.5287" stroke="#FDC0A5" stroke-width="0.68" stroke-linecap="round" stroke-linejoin="round"/>
<path d="M363.607 100.216C366.147 98.5247 367.635 102.965 364.312 102.965" stroke="#FDC0A5" stroke-width="0.68" stroke-linecap="round" stroke-linejoin="round"/>
<path d="M344.005 91.4248C344.202 92.0582 348.284 91.6937 348.188 90.2653C348.033 88.3469 343.634 90.2235 344.005 91.4248Z" fill="#B25E47"/>
<path d="M351.248 90.1636C351.117 91.4485 355.061 92.5542 355.432 91.8788C355.802 91.2035 351.493 87.7253 351.248 90.1636Z" fill="#B25E47"/>
<path d="M346.192 98.9909C346.073 97.7956 346.706 96.4509 347.567 96.1461C348.428 95.8414 349.76 95.0106 349.462 91.9089" stroke="#FDC0A5" stroke-width="0.68" stroke-linecap="round" stroke-linejoin="round"/>
<path d="M347.107 101.363C348.637 101.363 351.021 100.204 351.404 99.7319C351.404 99.7319 351.583 103.407 349.503 103.67C347.752 103.897 347.107 101.363 347.107 101.363Z" fill="#FDF19B" stroke="#FDC0A5" stroke-width="0.68" stroke-linecap="round" stroke-linejoin="round"/>
<path d="M364.408 107.304C365.725 107.304 366.793 106.236 366.793 104.919C366.793 103.603 365.725 102.535 364.408 102.535C363.091 102.535 362.024 103.603 362.024 104.919C362.024 106.236 363.091 107.304 364.408 107.304Z" fill="#FDF19B"/>
<path d="M359.257 97.7299C359.693 98.8056 358.701 100.228 357.027 100.909C355.354 101.591 353.651 101.274 353.209 100.198C352.766 99.1224 353.764 97.694 355.438 97.0127C357.111 96.3314 358.814 96.6542 359.257 97.7299Z" fill="#FDC0A5"/>
<path d="M344.806 100.359C344.328 101.184 343.067 101.393 341.758 100.957C342.005 99.5433 342.338 98.1462 342.756 96.7734L343.031 96.9228C344.597 97.8073 345.391 99.3552 344.806 100.359Z" fill="#FDC0A5"/>
<path d="M265.428 255.696L295.597 248.763L322.179 257.859L296.236 266.722L265.428 255.696Z" stroke="#DDDDDD" stroke-width="0.9" stroke-linecap="round" stroke-linejoin="round"/>
<path d="M282.897 250.036V255.696C282.897 257.578 287.738 259.102 293.714 259.102C299.69 259.102 304.537 257.578 304.537 255.696V250.036H282.897Z" fill="#DDDDDD" stroke="#DDDDDD" stroke-width="0.9" stroke-miterlimit="10"/>
<path d="M293.714 253.174C287.403 253.174 283.166 251.554 283.166 250.036C283.166 248.519 287.403 246.899 293.714 246.899C300.025 246.899 304.262 248.524 304.262 250.036C304.262 251.549 300.025 253.174 293.714 253.174Z" fill="#F9F9F9"/>
<path d="M293.714 247.168C300.085 247.168 303.993 248.841 303.993 250.036C303.993 251.232 300.085 252.905 293.714 252.905C287.343 252.905 283.435 251.232 283.435 250.036C283.435 248.841 287.343 247.168 293.714 247.168ZM293.714 246.63C287.738 246.63 282.897 248.154 282.897 250.036C282.897 251.919 287.738 253.443 293.714 253.443C299.69 253.443 304.537 251.919 304.537 250.036C304.537 248.154 299.69 246.63 293.714 246.63V246.63Z" fill="#DDDDDD"/>
<path d="M273.843 255.863C273.843 256.234 274.482 256.539 275.271 256.539C276.06 256.539 276.7 256.234 276.7 255.863C276.7 255.493 276.06 255.188 275.271 255.188C274.482 255.188 273.843 255.493 273.843 255.863Z" fill="#DDDDDD"/>
<path d="M295.077 263.657C295.077 264.027 295.716 264.332 296.505 264.332C297.294 264.332 297.928 264.027 297.928 263.657C297.928 263.286 297.288 262.981 296.505 262.981C295.722 262.981 295.077 263.286 295.077 263.657Z" fill="#DDDDDD"/>
<path d="M312.88 257.74C312.88 258.111 313.52 258.415 314.309 258.415C315.098 258.415 315.737 258.111 315.737 257.74C315.737 257.369 315.098 257.065 314.309 257.065C313.52 257.065 312.88 257.369 312.88 257.74Z" fill="#DDDDDD"/>
<path d="M4 230.912C25.461 230.243 48.936 229.831 73.4389 229.759C95.4796 229.699 118.357 229.926 141.318 230.518C146.127 230.638 150.942 230.777 155.763 230.936C184.527 231.875 213.219 233.405 240.405 235.688C244.991 236.062 249.531 236.46 254.025 236.883C269.265 238.335 285.18 240.469 301.125 243.188C314.105 245.375 327.104 247.915 339.774 250.724C366.279 256.581 391.32 263.579 411.681 270.822C432.741 278.323 448.794 286.098 456.27 293.186" stroke="#DDDDDD" stroke-width="1.81" stroke-linecap="round" stroke-linejoin="round"/>
<path d="M267.191 262.629C257.54 267.625 200.89 282.35 200.89 282.35L195.703 277.217L162.594 244.473C162.594 244.473 194.191 238.126 200.083 238.837C205.008 239.434 249.191 251.214 263.307 258.26C266.068 259.67 267.903 262.264 267.191 262.629Z" stroke="#DDDDDD" stroke-width="0.9" stroke-linecap="round" stroke-linejoin="round"/>
<path d="M164.028 249.558C187.557 245.578 196.826 242.984 200.149 243.893C203.472 244.801 248.372 257.543 247.619 257.74C226.541 263.262 188.968 272.053 188.968 272.053L164.028 249.558Z" stroke="#DDDDDD" stroke-width="0.9" stroke-linecap="round" stroke-linejoin="round"/>
<path d="M267.191 262.628C257.54 267.625 200.89 282.35 200.89 282.35L195.703 277.217L263.307 258.296C266.068 259.67 267.903 262.264 267.191 262.628Z" fill="#DDDDDD"/>
<path d="M129.849 227.715C123.981 216.814 127.507 198.921 137.392 197.582C147.276 196.243 160.382 209.033 165.48 202.686C171.014 195.771 166.514 162.406 166.556 156.375L191.352 153.859C191.352 153.859 186.624 199.19 193.103 204.467C196.898 207.557 201.338 207.126 203.998 201.544C206.388 196.477 209.765 192.395 215.819 197.092C215.819 197.092 219.213 189.197 232.361 192.311C245.509 195.425 237.907 210.587 234.847 212.631C234.847 212.631 240.824 217.908 238.929 224.583C237.035 231.259 227.395 234.325 227.395 234.325C227.395 234.325 231.393 243.438 223.397 246.343C215.4 249.247 210.213 248.226 204.96 246.343C199.707 244.46 190.617 239.769 185.501 246.97C180.385 254.172 144.868 255.63 129.849 227.715Z" fill="#F9F9F9" stroke="#DDDDDD" stroke-width="1.81" stroke-linecap="round" stroke-linejoin="round"/>
<path d="M164.028 168.734C159.164 170.115 156.695 175.308 155.404 180.454C154.114 185.6 154.628 186.46 153.193 185.199C151.657 183.848 148.328 174.245 150.115 159.591C151.442 148.708 156.337 143.682 159.158 141.662C159.965 150.656 161.583 159.559 163.992 168.262V168.262C164.013 168.419 164.025 168.576 164.028 168.734V168.734Z" fill="#DDDDDD" stroke="#DDDDDD" stroke-width="1.81" stroke-linecap="round" stroke-linejoin="round"/>
<path d="M204.207 185.199C202.773 186.46 203.269 185.588 201.99 180.454C200.711 175.32 198.237 170.115 193.372 168.734C193.374 168.579 193.384 168.423 193.402 168.268V168.268C195.819 159.561 197.44 150.651 198.243 141.65C201.063 143.688 205.958 148.714 207.285 159.579C209.066 174.245 205.749 183.848 204.207 185.199Z" fill="#DDDDDD" stroke="#DDDDDD" stroke-width="1.81" stroke-linecap="round" stroke-linejoin="round"/>
<path d="M198.243 141.644C197.44 150.645 195.819 159.555 193.402 168.263V168.263C193.175 169.039 192.953 169.804 192.72 170.545H164.674C164.44 169.798 164.213 169.027 163.992 168.245C161.583 159.541 159.965 150.638 159.157 141.644C157.866 127.898 158.141 112.539 161.142 97.8077C161.53 95.9132 161.948 94.0964 162.397 92.3692C168.217 69.8026 178.7 60.5393 178.7 60.5393C178.7 60.5393 189.188 69.8026 195.003 92.3692C195.452 94.0964 195.876 95.9132 196.258 97.8077C199.259 112.539 199.539 127.875 198.243 141.644Z" fill="#F9F9F9" stroke="#DDDDDD" stroke-width="1.81" stroke-linecap="round" stroke-linejoin="round"/>
<path d="M195.003 92.3692H162.396C168.217 69.8026 178.7 60.5393 178.7 60.5393C178.7 60.5393 189.188 69.8026 195.003 92.3692Z" fill="#DDDDDD" stroke="#DDDDDD" stroke-width="0.9" stroke-miterlimit="10"/>
<path d="M186.493 119.603C185.471 120.63 184.257 121.444 182.919 122C181.582 122.556 180.148 122.842 178.7 122.842C177.252 122.842 175.818 122.556 174.48 122C173.143 121.444 171.928 120.63 170.907 119.603C168.849 117.533 167.694 114.733 167.694 111.813C167.694 108.894 168.849 106.094 170.907 104.023C171.928 102.997 173.143 102.182 174.48 101.627C175.818 101.071 177.252 100.785 178.7 100.785C180.148 100.785 181.582 101.071 182.919 101.627C184.257 102.182 185.471 102.997 186.493 104.023C187.161 104.689 187.739 105.438 188.214 106.252C189.441 108.356 189.937 110.806 189.626 113.221C189.315 115.636 188.213 117.88 186.493 119.603V119.603Z" fill="#DDDDDD" stroke="#F9F9F9" stroke-width="1.81" stroke-linecap="round" stroke-linejoin="round"/>
<path d="M188.214 106.252L173.136 121.33C172.323 120.852 171.573 120.271 170.907 119.603C170.241 118.936 169.664 118.184 169.192 117.368L184.264 102.296C185.077 102.775 185.826 103.355 186.493 104.023C187.161 104.689 187.739 105.438 188.214 106.252V106.252Z" fill="#F9F9F9"/>
<path d="M178.7 139.301C173.991 145.553 171.528 177.173 178.7 185.713C185.884 177.167 183.403 145.553 178.7 139.301Z" fill="#DDDDDD" stroke="#DDDDDD" stroke-width="0.9" stroke-miterlimit="10"/>
<path d="M186.493 119.603C185.471 120.63 184.257 121.444 182.919 122C181.582 122.556 180.148 122.842 178.7 122.842C177.252 122.842 175.818 122.556 174.48 122C173.143 121.444 171.928 120.63 170.907 119.603C168.849 117.533 167.694 114.733 167.694 111.813C167.694 108.894 168.849 106.094 170.907 104.023C171.928 102.997 173.143 102.182 174.48 101.627C175.818 101.071 177.252 100.785 178.7 100.785C180.148 100.785 181.582 101.071 182.919 101.627C184.257 102.182 185.471 102.997 186.493 104.023C187.161 104.689 187.739 105.438 188.214 106.252C189.441 108.356 189.937 110.806 189.626 113.221C189.315 115.636 188.213 117.88 186.493 119.603V119.603Z" stroke="#DDDDDD" stroke-width="1.81" stroke-linecap="round" stroke-linejoin="round"/>
<path d="M234.848 212.637C233.649 213.53 232.396 214.346 231.094 215.081" stroke="#DDDDDD" stroke-width="1.81" stroke-linecap="round" stroke-linejoin="round"/>
<path d="M224.682 216.886C221.562 213.712 213.966 215.129 212.765 222.438C211.564 229.747 217.976 236.13 227.395 234.355" stroke="#DDDDDD" stroke-width="1.81" stroke-linecap="round" stroke-linejoin="round"/>
<path d="M174.827 187.59C176.023 196.052 175.545 210.748 175.473 211.68" stroke="#DDDDDD" stroke-width="1.81" stroke-linecap="round" stroke-linejoin="round"/>
<path d="M190.575 223.866C185.913 218.99 183.69 215.834 183.69 195.12" stroke="#DDDDDD" stroke-width="1.81" stroke-linecap="round" stroke-linejoin="round"/>
<path d="M105.472 190.202L172.233 216.354L204.559 280.815L132.706 249.128L101.802 191.773L105.472 190.202Z" fill="#DDDDDD"/>
<path d="M101.802 191.773L168.564 217.926L200.89 282.386L129.043 250.7L101.802 191.773Z" fill="#F9F9F9" stroke="#DDDDDD" stroke-width="0.9" stroke-linecap="round" stroke-linejoin="round"/>
<defs>
<linearGradient id="paint0_linear_78_535" x1="230" y1="310" x2="244" y2="160" gradientUnits="userSpaceOnUse">
<stop offset="0.0885417" stop-color="#00FFD1" stop-opacity="0"/>
<stop offset="0.479167" stop-color="#139984" stop-opacity="0.21"/>
<stop offset="1" stop-color="#282B31" stop-opacity="0"/>
</linearGradient>
<linearGradient id="paint1_linear_78_535" x1="439.5" y1="252" x2="258" y2="99" gradientUnits="userSpaceOnUse">
<stop stop-color="#282B31"/>
<stop offset="1" stop-color="#282B31" stop-opacity="0"/>
</linearGradient>
</defs>
</svg>
